<?xml version="1.0" encoding="UTF-8"?>
<svg id="Ebene_2" data-name="Ebene 2" xmlns="http://www.w3.org/2000/svg" viewBox="0 0 353.49 58.08">
  <defs>
    <style>
      .cls-1 {
        fill: #fff;
      }

      .cls-2 {
        fill: #1d1d1b;
        stroke: #fff;
        stroke-miterlimit: 10;
      }
    </style>
  </defs>
  <g id="Ebene_1-2" data-name="Ebene 1">
    <rect class="cls-2" x=".5" y=".5" width="352.49" height="57.08" rx="28.54" ry="28.54"/>
    <path class="cls-1" d="m276.03,17.37h5.46v17.88h6.98v-17.88h5.46v17.88h5.32c.96,0,1.74-.78,1.74-1.74v-16.14h5.46v16.14c0,3.98-3.22,7.2-7.2,7.2h-23.22v-23.34h0Zm-31.29,7.2c0-3.98,3.23-7.2,7.2-7.2h12.52c3.98,0,7.2,3.22,7.2,7.2v16.14h-5.46v-7.27h-16.01v7.27h-5.46v-16.14s0,0,0,0Zm21.47,0c0-.96-.78-1.74-1.74-1.74h-12.52c-.96,0-1.74.78-1.74,1.74v3.41h16.01v-3.41Zm-25.16,1.67c0,2.58-1.38,4.96-3.62,6.25l3.66,8.22h-5.96l-3.23-7.27h-10.43v7.27h-5.46v-23.34h17.85c3.98,0,7.2,3.22,7.2,7.2h0v1.68h0Zm-7.2,1.74c.96,0,1.74-.78,1.74-1.74v-1.67c0-.96-.78-1.74-1.74-1.74h-12.39v5.16h12.39Zm-32.14-1.74c0,2.58-1.38,4.96-3.62,6.25l3.66,8.22h-5.97l-3.23-7.27h-10.43v7.27h-5.46v-23.34h17.85c3.98,0,7.2,3.22,7.2,7.2h0s0,1.68,0,1.68Zm-7.2,1.74c.96,0,1.74-.78,1.74-1.74v-1.67c0-.96-.78-1.74-1.74-1.74h-12.39v5.16h12.39Zm-49.01-3.41c0-3.98,3.22-7.2,7.2-7.2h12.52c3.98,0,7.2,3.22,7.2,7.2h0v16.14h-5.46v-7.27h-16.01v7.27h-5.46v-16.14h0Zm21.46,0c0-.96-.78-1.74-1.74-1.74h-12.52c-.96,0-1.74.78-1.74,1.74v3.41h16.01v-3.41s0,0,0,0Zm-23.17-7.2v5.46h-9.04v17.89h-5.56v-17.88h-9.04v-5.46s23.64,0,23.64,0Zm-45.66,7.2c0,.96.78,1.74,1.74,1.74h11.33c3.98,0,7.2,3.22,7.2,7.2s-3.22,7.2-7.2,7.2h-17.68v-5.46h17.68c.96,0,1.74-.78,1.74-1.74,0-.96-.78-1.74-1.74-1.74h-11.33c-3.98,0-7.2-3.22-7.2-7.2s3.22-7.2,7.2-7.2h16.95v5.46h-16.96c-.96,0-1.74.78-1.74,1.74h0s0,0,0,0Zm-19.1,1.74h8.68v5.46h-8.68v-5.46h0Zm-24.77,14.4c-3.98,0-7.2-3.23-7.2-7.2h0v-8.94c0-3.98,3.22-7.2,7.2-7.2,0,0,0,0,0,0h19.43v5.46h-19.43c-.96,0-1.74.78-1.74,1.74v8.94c0,.96.78,1.74,1.74,1.74h12.74c.96,0,1.74-.78,1.74-1.74v-1.74h-8.25v-5.46h13.71v7.2c0,3.98-3.22,7.2-7.2,7.2h-12.74Z"/>
  </g>
</svg>