<?xml version="1.0" encoding="UTF-8"?>
<svg id="Ebene_2" data-name="Ebene 2" xmlns="http://www.w3.org/2000/svg" viewBox="0 0 154.56 154.56">
  <defs>
    <style>
      .cls-1 {
        fill: #1d1d1b;
      }

      .cls-2 {
        fill: #fff;
        stroke: #1d1d1b;
        stroke-miterlimit: 10;
      }
    </style>
  </defs>
  <g id="Ebene_1-2" data-name="Ebene 1">
    <circle class="cls-2" cx="77.28" cy="77.28" r="76.78"/>
    <g>
      <g>
        <path class="cls-1" d="m53.43,60.81c-5.01,0-9.54,1.73-12.77,4.87-3.55,3.46-5.42,8.47-5.42,14.49s2.02,11.11,5.83,14.81c3.4,3.3,8.08,5.19,12.84,5.19,5.12,0,9.77-1.99,14.22-6.09l.26-.24-2.02-1.91-.22.26c-.04.05-4.47,5.09-11.27,5.09-3.78,0-7.27-1.45-9.84-4.1-3.02-3.11-4.65-7.76-4.71-13.49h29.67v-.33c0-7.46-4.41-18.56-16.56-18.56Zm-12.95,16.08c.18-7.07,6.15-13.66,12.47-13.66,5.31,0,11.21,3.6,11.97,13.66h-24.44Z"/>
        <path class="cls-1" d="m73.27,96.4c-.91,0-1.65.74-1.65,1.65s.74,1.65,1.65,1.65,1.65-.74,1.65-1.65-.74-1.65-1.65-1.65Z"/>
        <path class="cls-1" d="m91.44,96.4c-.91,0-1.65.74-1.65,1.65s.74,1.65,1.65,1.65,1.65-.74,1.65-1.65-.74-1.65-1.65-1.65Z"/>
        <circle class="cls-1" cx="109.3" cy="98.05" r="1.65"/>
        <path class="cls-1" d="m80.06,39.35v60.34h5.05V34.68h-.33c-2.96,0-4.73,1.75-4.73,4.67Z"/>
        <path class="cls-1" d="m119.33,39.27s-2.83-4.8-9.19-4.8c-3.39,0-6.44,1.29-8.6,3.62-2.47,2.67-3.77,6.67-3.77,11.58v50.02h4.92v-35.83h11.2v-3.05h-11.2v-11.25c0-8.31,2.71-12.53,8.05-12.53,3.48,0,5.7,2.35,6.72,3.76l.21.29,1.8-1.59-.13-.23Z"/>
      </g>
      <path class="cls-1" d="m116.9,114.08c-.41,0-.75.34-.75.75s.34.75.75.75.75-.34.75-.75-.34-.75-.75-.75m-6.81-1.98c.15-.6.62-.97,1.21-.97.62,0,1.06.35,1.22.97h-2.43Zm3.67.98v-.32c0-.65-.16-1.27-.42-1.69-.41-.62-1.21-1.03-2.04-1.03-1.53,0-2.55,1.08-2.55,2.74,0,.75.17,1.36.51,1.81.46.62,1.25,1,2.07,1,.67,0,1.31-.22,1.78-.64.27-.22.44-.44.71-.9l-1.02-.57c-.49.79-.81,1.02-1.42,1.02-.77,0-1.29-.55-1.36-1.41h3.75Zm-6.92-2.69c-.49-.25-.92-.36-1.44-.36-1.63,0-2.89,1.21-2.89,2.79s1.23,2.75,2.83,2.75c.59,0,.95-.1,1.51-.39v-1.61c-.59.7-.93.91-1.53.91-.91,0-1.57-.71-1.57-1.69s.67-1.68,1.61-1.68c.57,0,.95.22,1.49.88v-1.61Zm-9.24.72c.88,0,1.49.7,1.49,1.68s-.61,1.69-1.49,1.69-1.46-.71-1.46-1.69.62-1.68,1.46-1.68m1.42-.95v.61c-.52-.54-.97-.75-1.63-.75-1.41,0-2.48,1.17-2.48,2.73,0,1.64,1.05,2.81,2.5,2.81.64,0,1.05-.19,1.61-.71v.55h1.21v-5.24h-1.21Zm-7.02,1.13h1.32v-1.13h-1.32v-1.72c0-.87.12-1.11.55-1.11.22,0,.35.05.77.26v-1.23c-.36-.15-.52-.19-.85-.19-.49,0-1.03.22-1.31.54-.26.29-.37.72-.37,1.43v2.02h-.44v1.13h.44v4.11h1.21v-4.11Zm-4.58,2.78c-.41,0-.75.34-.75.75s.34.75.75.75.75-.34.75-.75-.34-.75-.75-.75m-3.24-3.01c-.34-.7-.81-1.03-1.46-1.03-.98,0-1.67.65-1.67,1.58,0,.65.25.98,1.02,1.36.6.3.7.35.88.46.24.14.32.29.32.5,0,.34-.25.56-.62.56s-.56-.16-.85-.68l-1.03.47c.37.87.98,1.3,1.88,1.3,1.03,0,1.86-.79,1.86-1.77,0-.5-.21-.9-.64-1.18-.24-.16-.47-.29-1-.54-.57-.26-.7-.37-.7-.6,0-.21.19-.37.4-.37.25,0,.42.15.6.49l1-.54Zm-8.02.05c.85,0,1.46.71,1.46,1.68s-.62,1.69-1.46,1.69c-.88,0-1.49-.68-1.49-1.69s.61-1.68,1.49-1.68m-1.42,7.15v-3.44c.5.52.98.75,1.63.75,1.41,0,2.48-1.17,2.48-2.73s-1.05-2.81-2.49-2.81c-.63,0-1.11.21-1.62.71v-.57h-1.21v8.09h1.21Zm-4.32-11.06c-.45,0-.8.35-.8.79s.36.8.78.8.8-.36.8-.8-.35-.79-.78-.79m.6,2.96h-1.21v5.24h1.21v-5.24Zm-3.75-3.83h-1.21v9.08h1.21v-9.08Zm-4.53,7.74c-.41,0-.75.34-.75.75s.34.75.75.75.75-.34.75-.75-.34-.75-.75-.75m-3.24-3.01c-.34-.7-.81-1.03-1.46-1.03-.98,0-1.67.65-1.67,1.58,0,.65.25.98,1.02,1.36.6.3.7.35.88.46.24.14.32.29.32.5,0,.34-.25.56-.62.56s-.56-.16-.85-.68l-1.03.47c.37.87.98,1.3,1.88,1.3,1.03,0,1.86-.79,1.86-1.77,0-.5-.21-.9-.63-1.18-.24-.16-.47-.29-1-.54-.57-.26-.7-.37-.7-.6,0-.21.19-.37.4-.37.25,0,.42.15.6.49l1-.54Zm-9.04,1.03c.15-.6.62-.97,1.21-.97.62,0,1.06.35,1.22.97h-2.43Zm3.67.98v-.32c0-.65-.16-1.27-.42-1.69-.41-.62-1.21-1.03-2.04-1.03-1.53,0-2.55,1.08-2.55,2.74,0,.75.17,1.36.51,1.81.46.62,1.24,1,2.07,1,.67,0,1.31-.22,1.78-.64.27-.22.44-.44.71-.9l-1.02-.57c-.49.79-.81,1.02-1.42,1.02-.77,0-1.29-.55-1.36-1.41h3.75Zm-9.91,1.34l-2.04,3.83h1.38l4.17-8.09h-1.37l-1.49,3.01-1.59-3.01h-1.41l2.35,4.26Zm-7.46-2.33c.15-.6.62-.97,1.21-.97.62,0,1.06.35,1.22.97h-2.43Zm3.67.98v-.32c0-.65-.16-1.27-.42-1.69-.41-.62-1.21-1.03-2.04-1.03-1.53,0-2.55,1.08-2.55,2.74,0,.75.17,1.36.51,1.81.46.62,1.25,1,2.07,1,.67,0,1.31-.22,1.78-.64.27-.22.44-.44.71-.9l-1.02-.57c-.49.79-.81,1.02-1.42,1.02-.77,0-1.29-.55-1.36-1.41h3.75Z"/>
    </g>
  </g>
</svg>