<?xml version="1.0" encoding="UTF-8"?>
<svg id="Ebene_2" data-name="Ebene 2" xmlns="http://www.w3.org/2000/svg" viewBox="0 0 188.73 63.98">
  <defs>
    <style>
      .cls-1 {
        fill: #fff;
        stroke: #1d1d1b;
        stroke-miterlimit: 10;
      }
    </style>
  </defs>
  <g id="Ebene_1-2" data-name="Ebene 1">
    <rect class="cls-1" x=".5" y=".5" width="187.73" height="62.98" rx="31.49" ry="31.49"/>
    <g>
      <g>
        <path d="m69.31,11.13h-7.34c1.17,1.7.77,3.19-.02,4.5-.5.83-1.1,1.62-1.78,2.31-2.42,2.45-4.9,4.84-7.35,7.26-.05.05-.11.08-.23.16v-.54c0-2.45,0-4.91,0-7.36,0-2.12-.02-4.25.62-6.34h-5.04c.39,1.62.43,3.26.44,4.9,0,5.56.02,11.11,0,16.67,0,1.26-.04,2.51-.11,3.76-.04.74-.19,1.47-.3,2.21h4.92c-.15-1.02-.4-2.04-.44-3.06-.09-2.57-.08-5.14-.1-7.71,0-.13.05-.3.14-.39.52-.58,1.06-1.15,1.62-1.76,4.65,4.63,9.21,9.16,13.72,13.65.96-.95,1.87-1.85,2.74-2.71-4.48-4.55-8.97-9.11-13.48-13.69,3.95-3.91,7.94-7.85,11.99-11.86"/>
        <path d="m89.71,35.76c-.99.3-2,.55-3.02.72-3.6.6-3.49.47-7.12.46-.24,0-.35-.07-.37-.31-.05-.5-.12-1-.18-1.5-.07-2.41-.07-4.82-.08-7.23v-2.19s11.62,0,11.62,0v-1.66h-11.62c0-2.2,0-4.39,0-6.59,0-1.19,0-2.39.1-3.57.03-.25.07-.51.09-.76.03-.25.15-.31.38-.31,3.21-.03,2.7-.07,5.88.46,2.59.43,6.95,3.24,6.95,3.24,0,0-.41-3.43-.65-4.86-.13-.75-.07-.62-.73-.61l-13.91.09h-2.52c.39,1.62.43,3.26.44,4.9,0,5.56.02,11.11,0,16.67,0,1.25-.04,2.51-.11,3.76-.04.74-.19,1.47-.3,2.21h4.86l7.12.03c3.2.02,2.66.02,5.86.03.21,0,.37-.02.41-.28.27-1.62.76-5.1.71-5.28-1.51,1.6-2.18,2.08-3.8,2.59"/>
        <path d="m138.34,25.76c-1.34-1.45-3.06-2.5-4.8-3.53-1.6-.94-3.28-1.79-4.65-3.01-1.14-1.02-1.81-2.2-1.74-3.68.14-2.6,2.86-4.19,5.7-3.5,1.35.33,1.88,1.18,2.42,2.28.42.84.68,1.74,1.06,2.72.16-.12.37-.21.48-.36.51-.74,1-1.5,1.5-2.25.47-.71.76-1.06,1.26-1.81-.24-.13-.43-.23-.64-.33-1.29-.62-2.48-1.41-3.91-1.66-2.55-.45-4.73-.52-7.21.3-3.28,1.08-5.12,3.6-4.89,6.66.17,2.2,1.32,3.96,3.24,5.29,1.43.99,2.97,1.86,4.48,2.76,1.4.84,2.8,1.68,3.88,2.85,1.61,1.75,2.19,3.75,1.57,5.94-.57,2.02-2.14,3.15-4.48,3.41-2.31.25-4.92-.47-6.03-2.73-1.16-2.38-.82-4.7.6-6.92.09-.15.12-.32.18-.49-.21.02-.44,0-.63.07-1.14.42-2.27.87-3.41,1.29q-1.6.6-1.81,2.15c-.42,3.09,1.17,5.78,4.33,7.15,2.87,1.25,5.88,1.41,8.95.69,2.05-.48,3.77-1.44,5.05-2.96,2.48-2.92,2.27-7.36-.49-10.33"/>
        <path d="m120.4,11.73c.14-.18.27-.37.45-.6h-6.59c.88,1.49.75,2.68.55,3.67-.22,1.08-.65,2.09-1.28,2.99-1.38,1.97-2.8,3.92-4.2,5.87-.19.26-.38.51-.59.8-.12-.16-.21-.28-.29-.4-2.88-4.21-5.75-8.41-8.62-12.62-.18-.27-.37-.36-.69-.35-1.26.02-2.52,0-3.77,0-.14,0-.28.01-.48.02.11.17.18.29.26.4,3.5,4.89,7,9.78,10.49,14.67.14.2.24.48.24.72.02,1.68.03,3.37,0,5.05-.02,2.24.01,4.49-.56,6.68h5.1c-.42-1.46-.51-2.93-.54-4.41-.04-2.67-.03-5.35-.05-8.02,0-.36.09-.64.31-.93,3.43-4.52,6.85-9.04,10.27-13.57"/>
      </g>
      <path d="m119.95,54.69v-1.92h3.28v-.84h-3.28v-1.72h.28s3.48,0,3.48,0v-.84h-4.67v6.17h4.78v-.84h-3.87Zm-6.52-4.5c1.06,0,1.56.37,1.56,1.03s-.5,1.01-1.56,1.01h-1.48v-2.04h.29s1.19,0,1.19,0Zm-1.48,2.88h1.35l1.77,2.46h1.09l-1.84-2.54.14-.03c.95-.23,1.46-.82,1.46-1.74,0-1.2-.88-1.86-2.47-1.86h-2.41v6.17h.91v-2.46Zm-7.62-.14l.06-.17.84-2.23h.29l.84,2.22.08.18h-2.12Zm3.09,2.6h.99l-2.44-6.17h-1.16l-2.45,6.17h.97l.68-1.81h2.72l.68,1.81Zm-11.63-3.09c0-1.3.64-2.35,1.88-2.35.75,0,1.23.47,1.69,1.2l.75-.57c-.58-1-1.32-1.52-2.43-1.52-1.62,0-2.85,1.34-2.85,3.24s1.22,3.24,2.85,3.24c1.1,0,1.84-.52,2.43-1.52l-.75-.57c-.45.74-.94,1.19-1.69,1.19-1.25,0-1.88-1.05-1.88-2.34m-6.9,2.24v-5.32h-.91v6.17h4.45v-.84h-3.54Zm-6.81.14c-.88,0-1.55-.63-1.55-1.61v-3.86h-.91v3.97c0,1.42,1.09,2.35,2.46,2.35s2.46-.93,2.46-2.35v-3.97h-.91v3.86c0,.99-.67,1.61-1.55,1.61m-6.11-2.38c0,1.31-.62,2.37-1.84,2.37s-1.83-1.06-1.83-2.37.61-2.38,1.83-2.38,1.84,1.07,1.84,2.38m.95,0c0-1.82-1.08-3.24-2.79-3.24s-2.78,1.42-2.78,3.24,1.08,3.24,2.78,3.24,2.79-1.43,2.79-3.24m-10.66,2.38c-.88,0-1.72-.34-2.34-.91l-.54.78c.67.63,1.75.99,2.88.99,1.45,0,2.48-.78,2.48-1.92,0-.93-.67-1.43-1.58-1.66l-1.52-.39c-.58-.14-.99-.31-.99-.79,0-.55.54-.88,1.38-.88.69,0,1.41.25,2.04.81l.57-.71c-.7-.6-1.57-.94-2.54-.94-1.39,0-2.35.74-2.35,1.78,0,.96.69,1.38,1.71,1.61l1.52.37c.48.12.86.34.86.87,0,.65-.7,1-1.57,1"/>
    </g>
  </g>
</svg>