<?xml version="1.0" encoding="utf-8"?>
<!-- Generator: Adobe Illustrator 26.5.0, SVG Export Plug-In . SVG Version: 6.00 Build 0)  -->
<svg version="1.1" id="Ebene_2_00000049929077452346501060000017773584626047528329_"
	 xmlns="http://www.w3.org/2000/svg" xmlns:xlink="http://www.w3.org/1999/xlink" x="0px" y="0px" viewBox="0 0 219 64"
	 style="enable-background:new 0 0 219 64;" xml:space="preserve">
<style type="text/css">
	.st0{fill:#FFFFFF;stroke:#1D1D1B;stroke-miterlimit:10;}
</style>
<g id="Ebene_1-2">
	<path class="st0" d="M32,0.5h155c17.4,0,31.5,14.1,31.5,31.5l0,0c0,17.4-14.1,31.5-31.5,31.5H32C14.6,63.5,0.5,49.4,0.5,32l0,0
		C0.5,14.6,14.6,0.5,32,0.5z"/>
</g>
<g id="_x39_IVxOb_00000020400934769103768610000014176838515254680496_">
	<g>
		<path d="M134.4,12.3c1.9,0,3.8,0,5.7,0c0.9,6.2,1.7,12.4,2.6,18.6c0.1,0,0.1,0,0.2,0.1c2-4.3,3.9-8.6,5.9-13c2,4.5,4,8.7,5.9,13
			c0.1,0,0.1,0,0.2,0c0.9-6.2,1.7-12.4,2.6-18.6c1.9,0,3.7,0,5.7,0c-1.9,12.7-3.8,25.3-5.8,38c-0.1,0-0.1,0-0.2,0
			c-2.8-6.3-5.6-12.6-8.5-19.1c-2.9,6.5-5.7,12.8-8.5,19.1c-0.1,0-0.1,0-0.2,0C138.2,37.6,136.3,25,134.4,12.3z"/>
		<path d="M65.5,49.9c-2.2,0-4.3,0-6.4,0c-0.2,0-0.5-0.4-0.6-0.6c-2.9-5.7-5.8-11.4-8.7-17.1c-0.1-0.2-0.2-0.5-0.5-0.7
			c0,6.1,0,12.2,0,18.4c-1.9,0-3.7,0-5.6,0c0-12.5,0-25,0-37.6c1.8,0,3.6,0,5.6,0c0,4.7,0,9.3,0,14c0.1,0,0.1,0,0.2,0
			c0.2-0.2,0.4-0.5,0.5-0.7c2.8-4.3,5.7-8.5,8.5-12.8c0.3-0.4,0.6-0.6,1.1-0.6c1.9,0,3.9,0,6,0c-0.2,0.3-0.3,0.6-0.5,0.8
			c-3.3,5-6.6,10.1-10,15.1c-0.3,0.5-0.3,0.8-0.1,1.3c3.4,6.5,6.7,13,10.1,19.5C65.2,49.2,65.3,49.5,65.5,49.9z"/>
		<path d="M92.3,12.3c8.2-0.5,14.8,2.4,19.1,9.4c4.1,6.7,3.8,13.5-0.7,19.9c-4.4,6.3-10.8,8.7-18.5,8.3
			C92.3,37.3,92.3,24.8,92.3,12.3z M97.9,44.2c6.2-1.2,11.3-7.1,10.5-14.4c-0.6-5.8-6.2-12-10.5-11.7C97.9,26.8,97.9,35.5,97.9,44.2
			z"/>
		<path d="M86.9,49.9c-1.8,0-3.6,0-5.5,0c0-0.8,0-1.5,0-2.3c-1,0.7-1.9,1.5-2.9,2c-3.5,1.8-7.5,0.7-10.1-2.6
			c-3-3.8-2.7-9.9,0.6-13.5c3.3-3.6,8.2-3.8,11.7-0.4c0.2,0.2,0.4,0.3,0.7,0.6c0-0.9,0-1.7,0-2.5c1.9,0,3.7,0,5.5,0
			C86.9,37.4,86.9,43.6,86.9,49.9z M71.6,40.5c0,2.9,2.3,5.3,5,5.2c2.7,0,5-2.4,5-5.2c0-2.9-2.2-5.2-5-5.2
			C73.8,35.3,71.6,37.6,71.6,40.5z"/>
		<path d="M133,47.7c-3.8,3.9-10.6,3.7-14.4-0.6c-3.7-4.2-3.1-11,1.4-14.4c4.6-3.4,11.2-2.4,14.2,2.3c-3.4,3.3-6.8,6.6-10.2,10
			c1.7,1.1,3.7,0.9,5.7-0.6C130.9,45.5,131.9,46.6,133,47.7z M128,35.8c-2-0.6-4.2-0.1-5.4,1.4c-1.2,1.5-1.7,3.1-1,4.9
			C123.7,40,125.8,37.9,128,35.8z"/>
		<path d="M170.6,44.9c2.2,1.2,4.1,0.8,5.8-0.6c1,1.1,2.1,2.2,3.1,3.3c-1.5,2.3-6.3,3.5-9.8,2.4c-4.3-1.3-7-5.3-6.9-9.8
			c0.1-4.4,3.1-8.2,7.3-9.3c4.1-1,8.6,0.6,10.7,4.1C177.5,38.3,174.1,41.6,170.6,44.9z M174.6,35.8c-2-0.7-4.1-0.1-5.4,1.4
			c-1.2,1.4-1.6,3.1-1,4.9C170.3,40,172.4,37.9,174.6,35.8z"/>
	</g>
</g>
</svg>
