<?xml version="1.0" encoding="UTF-8"?>
<svg id="Ebene_2" data-name="Ebene 2" xmlns="http://www.w3.org/2000/svg" viewBox="0 0 292.06 86.75">
  <defs>
    <style>
      .cls-1 {
        fill: #fff;
      }

      .cls-2 {
        fill: #1d1d1b;
        stroke: #fff;
        stroke-miterlimit: 10;
      }
    </style>
  </defs>
  <g id="Ebene_1-2" data-name="Ebene 1">
    <rect class="cls-2" x=".5" y=".5" width="291.06" height="85.75" rx="42.87" ry="42.87"/>
    <path class="cls-1" d="m136.78,15.05c-2.41.08-4.96.26-5.67.38-.72.12-1.97.22-2.79.22s-2.21.14-3.08.3-2.17.3-2.89.3-1.83.14-2.49.3-1.73.3-2.39.3-1.63.14-2.17.3-1.47.3-2.09.3-1.55.14-2.09.3-1.35.3-1.79.3-1.25.14-1.79.3-1.35.3-1.81.3-1.23.14-1.69.3-1.17.3-1.57.3-1.15.14-1.69.3-1.31.3-1.71.3c-.42,0-1.07.14-1.45.3-.4.16-1.09.3-1.53.3s-1.02.1-1.23.22c-.24.14-.94.3-1.53.4-.62.08-1.47.24-1.91.36-.44.1-1.19.3-1.69.42s-1.33.3-1.89.38c-.54.1-1.25.26-1.55.38-.32.14-.86.24-1.19.24-.36.02-.86.14-1.13.3s-.8.28-1.15.3c-.36,0-.86.1-1.09.24-.24.12-.84.3-1.33.38s-1.15.22-1.49.34c-.76.26-2.17.62-3.18.82-.44.08-1,.26-1.23.38-.24.14-.68.24-1,.24-.3.02-.78.14-1.05.3s-.74.28-1.02.3c-.3,0-.64.14-.78.3s-.38.3-.54.3c-1.07,0-4.22,3.96-4.24,5.33,0,.18-.14.52-.3.72-.16.22-.3.68-.3,1-.02.34-.14.84-.3,1.11s-.28.78-.3,1.11c0,.34-.12,1-.28,1.43-.4,1.09-.6,6.53-.34,9.2.2,2.17.5,3.86.86,4.88.12.32.26.92.32,1.29.04.38.22.88.36,1.09.16.22.28.54.28.74,0,1.07,2.49,4.44,3.64,4.94.24.12.58.28.74.38,1.03.6,1.63.82,2.13.82.3.02.78.14,1.05.3s.78.28,1.09.3c.34,0,.86.14,1.17.3.3.16.84.3,1.19.3.34.02.84.14,1.11.3s.72.28,1,.3c.28,0,.9.12,1.39.28,1.31.42,2.57.72,3.58.9.5.08,1.09.26,1.33.38.24.14.78.24,1.19.24.42.02.98.14,1.25.3s.84.28,1.25.3c.42,0,1.07.14,1.47.3.38.16,1.02.3,1.39.3.36,0,1,.14,1.39.3.38.16,1,.3,1.35.3s1.03.14,1.49.3,1.13.3,1.49.3,1.03.14,1.49.3,1.17.3,1.59.3,1.13.14,1.59.3,1.23.3,1.69.3,1.23.14,1.69.3,1.21.3,1.69.3,1.27.14,1.81.3,1.37.3,1.87.3,1.39.14,1.99.3,1.55.3,2.09.3,1.53.14,2.19.3,1.73.3,2.39.3,1.73.14,2.39.3c.66.16,1.87.28,2.73.3.84,0,2.23.14,3.08.3s2.41.3,3.44.3,3.18.14,4.78.3c4.08.4,21.67.4,26.37,0,1.87-.16,4.24-.3,5.27-.3s2.71-.14,3.68-.3c1-.16,2.47-.3,3.28-.3.82-.02,2.07-.14,2.79-.3.72-.16,1.87-.3,2.59-.3s1.79-.14,2.39-.3,1.59-.3,2.19-.3,1.59-.14,2.19-.3,1.51-.3,2.01-.3,1.35-.14,1.89-.3,1.39-.3,1.89-.3,1.31-.14,1.77-.3,1.25-.3,1.77-.3,1.27-.14,1.71-.3,1.17-.28,1.61-.3c.46,0,1.21-.14,1.67-.3s1.13-.3,1.49-.3,1.03-.14,1.49-.3,1.13-.3,1.49-.3.98-.14,1.35-.3c.4-.16,1.03-.3,1.39-.3.38,0,1.02-.14,1.39-.3.4-.16,1.05-.3,1.43-.3.4,0,.92-.1,1.13-.22s.88-.3,1.43-.38c.96-.16,1.39-.26,3.8-.9,1.73-.46,2.77-.72,3.58-.9,1.21-.26,2.53-.6,3.18-.84.34-.12.96-.26,1.39-.34s1-.26,1.23-.38c.24-.14.64-.24.9-.24s.66-.14.88-.3c.2-.16.5-.3.66-.3.42,0,2.17-1.49,2.89-2.43,1-1.31,1.91-3.22,1.91-4,.02-.24.14-.66.3-.94s.28-.8.3-1.15c0-.36.1-.86.24-1.09.12-.24.3-1.25.4-2.23.08-1,.24-2.55.32-3.48.1-.94.1-2.41,0-3.28s-.26-2.35-.36-3.28c-.18-1.71-.4-2.73-.92-4.4-.16-.52-.28-1.07-.28-1.23s-.12-.56-.28-.88c-.16-.3-.48-1.02-.74-1.55-.48-1.03-2.41-3.14-3.2-3.48-.24-.1-.6-.28-.76-.38-.48-.26-1.61-.64-2.49-.82-.44-.08-1.05-.24-1.39-.36-.78-.26-2.17-.62-3.18-.82-.44-.08-1-.26-1.23-.38-.24-.14-.74-.24-1.09-.24-.36-.02-.88-.14-1.15-.3s-.8-.28-1.15-.3c-.36,0-.98-.14-1.37-.3-.38-.16-.98-.3-1.29-.3s-.9-.14-1.29-.3c-.38-.16-.98-.3-1.29-.3s-.9-.14-1.29-.3c-.38-.16-1-.3-1.35-.3s-.98-.14-1.35-.3c-.4-.16-1.03-.3-1.43-.3s-1.03-.14-1.43-.3c-.38-.16-1.05-.3-1.49-.3s-1.09-.14-1.49-.3c-.38-.16-1.09-.3-1.55-.3s-1.23-.14-1.69-.3-1.17-.3-1.59-.3-1.17-.14-1.71-.3-1.33-.3-1.77-.3-1.23-.14-1.77-.3-1.39-.3-1.89-.3-1.35-.14-1.89-.3-1.43-.3-1.99-.3-1.55-.14-2.17-.3c-.64-.16-1.67-.3-2.29-.3-.62-.02-1.71-.14-2.43-.3s-1.87-.28-2.59-.3c-.72,0-2.05-.14-2.99-.3s-2.37-.3-3.18-.3-2.57-.14-3.88-.3c-2.83-.34-23.21-.56-30.25-.3h0Zm29.06,2.77c5.77.44,13.28,1.19,16.12,1.63.78.12,2.07.3,2.89.38s2.13.26,2.89.38c2.83.48,5,.82,5.57.88.34.04,1.17.18,1.89.32s2.01.38,2.89.54c4.58.86,6.33,1.19,8.96,1.77.66.14,1.91.4,2.79.6,1.49.3,2.27.48,4.78,1.09.56.14,1.31.32,1.69.4.92.2,2.45.58,3.68.9.56.16,1.57.42,2.29.6,6.21,1.53,7.36,2.09,8.5,3.98.62,1.02,1.29,3.12,1.97,6.17.52,2.31.54,10.07.02,12.24-1.21,5-1.81,6.37-3.36,7.6-.92.72-2.17,1.35-2.67,1.35-.18,0-.74.14-1.25.28-1.47.48-2.65.78-6.73,1.79-.64.16-1.55.4-2.05.54s-1.25.3-1.69.38-1.23.26-1.79.4c-3.24.8-6.11,1.41-10.49,2.29-.8.16-2.13.42-2.95.6-.82.16-1.67.3-1.89.3s-1.02.12-1.79.28c-.76.16-2.29.44-3.38.62s-2.53.42-3.18.54-1.81.28-2.59.36c-.76.1-2.01.26-2.79.38-1.35.2-4.06.54-8.16,1.03-1.09.12-3.03.3-4.28.38s-3.4.26-4.78.38c-4.42.38-15.86.68-21.59.56-6.71-.16-14.01-.46-14.43-.62-.16-.08-1.45-.2-2.89-.32-4.86-.34-14.97-1.67-20.1-2.63-.66-.12-1.63-.28-2.19-.36-1.02-.14-2.47-.4-4.98-.9-.76-.16-2.15-.42-3.08-.6-1.61-.32-3.03-.62-5.67-1.19-.66-.14-1.91-.42-2.79-.6-.88-.2-1.99-.48-2.47-.62-.5-.16-1.05-.28-1.27-.28s-.86-.12-1.41-.28c-.96-.28-1.63-.46-4.74-1.23-.7-.16-1.69-.42-2.25-.58-.54-.14-1.53-.4-2.19-.58-3.38-.92-3.52-.98-4.68-2.11-1.43-1.39-1.87-2.39-2.85-6.27-1.41-5.55-1.21-10.35.62-16.32.62-2.01.96-2.73,1.77-3.66,1.13-1.31,1.65-1.53,6.23-2.75.6-.16,1.55-.42,2.09-.56.56-.16,1.57-.42,2.29-.6s1.75-.46,2.31-.62,1.19-.28,1.41-.28.78-.12,1.27-.28c.48-.14,1.59-.42,2.47-.62.88-.18,2.09-.46,2.69-.6s1.81-.42,2.69-.6,2.17-.46,2.89-.6c.72-.16,2.05-.42,2.99-.6s2.33-.44,3.08-.6c.78-.14,2.29-.42,3.38-.6s2.63-.46,3.38-.62c.78-.16,1.67-.28,1.99-.28.34,0,1.31-.12,2.19-.3.88-.16,2.63-.42,3.88-.58,1.25-.16,3.28-.44,4.48-.62,1.21-.16,2.59-.3,3.08-.3s1.43-.1,2.09-.2c.66-.12,2.67-.3,4.48-.42,1.81-.12,4.1-.3,5.08-.38,2.79-.24,26.01-.1,29.66.18h0Z"/>
    <path class="cls-1" d="m135.69,20.14c-8.18.54-17.63,1.53-22.21,2.37-.9.16-1.93.3-2.29.3-.38,0-1,.1-1.39.2-.4.12-1.33.28-2.09.38-.76.12-1.91.3-2.57.42s-1.91.36-2.79.52c-2.25.42-6.69,1.31-8.76,1.77-.66.14-1.91.42-2.79.6s-2.03.46-2.57.62c-.52.16-1.17.28-1.43.28-.28,0-.82.14-1.21.3-.38.16-.9.3-1.11.3s-.86.12-1.41.28-1.57.44-2.25.6c-1.99.5-3.66.94-4.64,1.21-.5.14-1.49.42-2.23.62-1.23.34-2.75,1.33-2.75,1.79,0,.08-.12.3-.26.46-.46.56-1.29,3.5-1.81,6.39-.4,2.15-.4,5.47-.02,7.48.52,2.73.94,4.54,1.21,5.35.16.46.28.96.28,1.11,0,.18.36.72.78,1.19.92,1.03,1.25,1.17,5.85,2.45,3.54.98,3.62,1,9.25,2.39,1.31.34,3.1.76,5.21,1.21.82.18,1.95.46,2.51.62s1.21.28,1.47.28.92.12,1.47.28c1.05.3,2.73.66,4.3.92.5.08,1.47.24,2.19.38,2.71.52,4.34.8,6.27,1.11,1.09.18,2.73.44,3.6.6.9.16,1.89.3,2.19.3.32,0,1.47.14,2.57.3,3.16.46,5.41.74,7.66.9,1.15.1,3.08.26,4.28.38,4.42.42,10.35.62,18.41.62,11.03,0,19.41-.38,26.67-1.21,1.03-.12,2.65-.3,3.58-.38,2.89-.28,10.47-1.37,14.03-2.03.66-.12,1.47-.26,1.79-.3.34-.04,1.31-.2,2.19-.38.88-.16,2.31-.44,3.18-.6,1.91-.38,4.04-.82,5.27-1.11.5-.12,1.35-.28,1.89-.38.56-.08,1.27-.24,1.59-.34.34-.1,1.31-.34,2.19-.52.88-.2,1.91-.44,2.29-.56.38-.14,1.05-.3,1.49-.38.76-.14,1.25-.28,3.58-.88,2.21-.58,3.44-.92,6.63-1.81,3.01-.86,3.78-1.57,4.6-4.26,1.07-3.54,1.09-3.62,1.09-8.86.02-5.23-.08-5.93-1.11-9.16-.68-2.11-1.25-2.59-4.04-3.36-.66-.2-1.59-.46-2.09-.62-.5-.14-1.47-.4-2.19-.58-1.23-.32-2.11-.56-4.18-1.13-.5-.14-1.25-.32-1.69-.4-.74-.16-1.37-.3-4.18-.98-2.57-.62-3.28-.78-4.78-1.09-4.28-.9-6.59-1.37-8.76-1.77-.88-.16-2.17-.4-2.89-.54s-1.55-.28-1.89-.32c-.32-.04-1.39-.2-2.39-.36-14.49-2.33-27.25-3.3-42.49-3.26-4.54.02-10.09.16-12.34.3Zm9.77,5.83c.44.36.48.54.48,2.09,0,2.57.22,2.45-5.49,2.81-2.55.18-5.69.44-6.95.6s-2.63.3-3.05.3c-1.09,0-4.64.56-5.91.94-2.43.74-3.66,1.77-3.88,3.28-.06.48-.1,4.22-.06,8.32l.06,7.46.56.74c.34.44,1.03.96,1.69,1.27,1.27.6,3.9,1.27,4.98,1.27.4,0,1.73.12,2.93.28,4.04.56,8.54.92,11.05.92,3.72,0,4.34.48,4.14,3.22-.12,1.67-.64,2.15-2.23,2.15-.68,0-2.07-.1-3.1-.22-1.03-.1-2.75-.28-3.78-.36-2.45-.22-4.26-.52-9.55-1.51-1.93-.36-3.58-.82-4.54-1.21-.36-.16-.74-.28-.84-.28-.44,0-2.95-1.29-3.72-1.93-1.13-.9-2.03-2.25-2.37-3.52-.36-1.33-.4-16.56-.04-17.99.3-1.27,1.39-2.89,2.51-3.7,1-.72,3.32-1.87,4.32-2.13.34-.08,1.23-.34,1.99-.58.78-.22,1.71-.46,2.09-.52.38-.04,1.33-.22,2.09-.38,3.36-.68,9.23-1.49,11.44-1.55,4.5-.16,4.72-.16,5.19.24h0Zm16.2.02c.44.12,1.47.3,2.29.38.82.1,2.03.3,2.69.42s1.91.36,2.79.52c3.4.64,5.75,1.15,7.96,1.77.56.16,1.21.32,1.49.38.8.18,1.79.88,1.99,1.43.36.92.24,2.01-.28,2.59-.46.54-.48.56-1.53.32-1.25-.26-3.66-.68-6.45-1.13-1.09-.18-2.73-.44-3.6-.6-.9-.16-1.93-.3-2.29-.3-.38,0-1.39-.14-2.27-.3-2.43-.44-5.81-.4-6.91.1-1.97.88-1.95.7-1.95,12.04s-.02,10.63,1.43,11.58c.82.56.88.56,3.82.54,1.79,0,3.94-.14,5.29-.36,1.25-.18,3.18-.48,4.28-.64,3.42-.52,5.71-.9,7.17-1.19,2.09-.42,2.81-.38,3.2.22.5.78.3,2.35-.42,3.08-.32.34-.7.6-.86.6s-.7.12-1.21.28c-2.65.82-4.7,1.27-10.67,2.39-.88.16-2.45.46-3.48.64-1.27.26-2.83.36-4.78.38-2.87,0-2.89-.02-4.18-.66-1.39-.7-3.01-2.15-3.5-3.12-.18-.34-.48-1.11-.7-1.77-.36-1.09-.38-1.87-.38-12.02,0-12.08,0-12.02,1.35-14.13,1.51-2.33,4.04-3.58,7.2-3.6.94,0,2.05.08,2.49.18h0Zm-49.32,3.9c.2.32.38,1.05.42,1.77.08,1.13.04,1.29-.48,1.83-.34.34-1.27.88-2.17,1.23-.88.36-1.85.78-2.15.94-.32.16-.7.28-.84.28s-.52.12-.84.28c-.3.16-.92.42-1.35.58s-1.51.58-2.39.94c-.88.36-1.95.78-2.39.94-2.09.8-2.43.92-2.99,1.15-.6.26-1.75.72-3.08,1.19-.38.14-1.41.54-2.29.9-1.75.7-2.81,1.09-3.32,1.27-.58.18-.42.44.5.82.46.2,1.11.46,1.43.6.56.24,1.27.52,3.05,1.17,1.17.44,2.47.94,3.12,1.21.56.24,1.27.52,3.05,1.17,1.49.56,2.55.96,3.12,1.21.34.14.96.38,1.39.56.44.16,1.19.44,1.69.64.5.18,1.17.46,1.49.6.34.14,1,.4,1.49.6,2.67,1.02,3.5,1.47,3.76,2.01.52,1.15.08,3.64-.66,3.7-1.09.06-3.05-.4-4.26-1.02-.18-.1-.74-.34-1.23-.52s-1.15-.46-1.49-.6c-.32-.14-1-.4-1.49-.6-.5-.18-1.15-.46-1.49-.6-.32-.14-.96-.38-1.39-.56-1.53-.58-2.59-1-3.18-1.23-.32-.14-.96-.4-1.39-.56s-1.51-.58-2.39-.94-1.93-.76-2.33-.92c-1.41-.52-2.45-.94-3.05-1.17-.32-.14-.96-.4-1.39-.56-2.29-.86-2.81-1.13-3.2-1.69-.78-1.13-.82-4.66-.06-5.93.38-.62.64-.78,2.13-1.35,2.13-.82,2.57-.98,3.12-1.21.34-.14,1-.42,1.49-.6.5-.2,1.25-.48,1.69-.64.44-.18,1.07-.42,1.39-.56.34-.14.96-.4,1.39-.56s1.51-.58,2.39-.94,1.95-.78,2.39-.94c.44-.18,1.07-.42,1.39-.56.34-.14.96-.4,1.39-.56,1.63-.62,4.18-1.63,5.93-2.41.42-.18.9-.32,1.09-.32.18-.02.56-.14.84-.3.84-.48,1.73-.38,2.13.22h0Zm79.57,1.37c2.01,1.05,4.64,2.47,7.03,3.82.62.34,1.59.86,2.13,1.13.56.28,1.57.84,2.29,1.23.72.4,2.11,1.13,3.08,1.65,1,.54,2.43,1.29,3.18,1.71,1.79,1,3.5,1.91,4.86,2.63.58.3,1.39.84,1.77,1.17l.74.64-.36,2.13c-.2,1.17-.42,2.25-.48,2.41-.16.44-.86.54-1.23.2-.2-.18-.4-.32-.48-.32-.06,0-.68-.38-1.37-.86-.7-.46-1.45-.94-1.67-1.07-.2-.14-1.21-.76-2.23-1.39-2.09-1.31-2.03-1.27-3.92-2.35-.76-.44-1.55-.9-1.73-1-.18-.12-.78-.44-1.29-.72-.52-.3-1.27-.72-1.65-.94s-1.09-.64-1.59-.9c-.5-.28-1.21-.68-1.59-.9s-1.09-.62-1.59-.86c-.5-.26-1.33-.72-1.85-1.02-.54-.32-1.17-.6-1.39-.62l-.44-.04v4.88c0,6.93-.28,12.88-.64,13.67-.72,1.57-4.26,1.67-4.86.12-.16-.4-.16-2.11,0-5.93.14-3.74.14-7.22-.02-11.48-.2-5.89-.2-6.13.18-6.77.54-.94,1.13-1.19,2.55-1.09.88.08,1.57.3,2.59.84h0Zm-109.78,3.8c.54.38.5.76-.16,2.47-.54,1.35-1.21,4.7-1.21,5.93,0,.52.14,1.73.32,2.73.3,1.69.5,2.35,1.21,4.12.62,1.49.08,1.95-2.21,1.95-2.23-.02-3.14-.52-3.74-2.09-1.71-4.42-1.71-8.96,0-13.33.4-1.02.72-1.37,1.49-1.77.9-.44,3.66-.44,4.3,0h0Zm140.63.08c1.02.62,1.63,2.29,2.21,5.93.28,1.69.3,2.35.1,3.68-.44,3.22-.58,4.08-.8,4.48-.12.24-.22.56-.22.74,0,.6-1,1.89-1.67,2.17-1.19.5-2.83.62-3.4.24-.48-.32-.5-.42-.4-1.37.08-.58.26-1.69.42-2.51.18-.96.28-2.75.28-5.17,0-3.14-.08-3.92-.42-5.19-.64-2.27-.68-2.55-.28-2.99.52-.58,3.24-.58,4.18,0h0Zm-83.75,5.83c.22.22.36.82.42,1.89.12,1.95-.16,2.93-.92,3.16-.76.26-14.31-.04-15.07-.34-.32-.12-.66-.34-.74-.46-.22-.34-.2-2.81.02-3.38.32-.84,1.19-.98,7.86-1.13,7.3-.18,8-.16,8.42.26h0Zm28.3.04c7.2.36,7.09.32,7.32,1.75.06.4.04,1.11-.02,1.61-.24,1.57-.14,1.55-8.36,1.73-3.96.1-7.34.12-7.52.06-.72-.22-1.03-3.4-.48-4.76.3-.68.32-.7,1.43-.7.64,0,4.06.14,7.62.3h0Z"/>
  </g>
</svg>