<?xml version="1.0" encoding="UTF-8"?>
<svg id="Ebene_2" data-name="Ebene 2" xmlns="http://www.w3.org/2000/svg" viewBox="0 0 304.57 66.22">
  <defs>
    <style>
      .cls-1 {
        fill: #1d1d1b;
      }

      .cls-2 {
        fill: #fff;
        stroke: #000;
        stroke-miterlimit: 10;
      }
    </style>
  </defs>
  <g id="Ebene_1-2" data-name="Ebene 1">
    <rect class="cls-2" x=".5" y=".5" width="303.57" height="65.22" rx="32.61" ry="32.61"/>
    <g>
      <g>
        <path class="cls-1" d="m41.83,32.71v-15.38h8.53c2.17,0,3.63.61,4.64,1.7.8.89,1.25,1.98,1.25,3.16,0,1.34-.57,2.52-1.46,3.39-.97.92-2.33,1.48-4.43,1.48h-5.16v5.65h-3.37Zm3.37-12.53v4.03h5.28c.59,0,1.25-.09,1.77-.59.38-.38.61-.89.61-1.41s-.21-1.01-.57-1.39c-.52-.54-1.2-.64-1.81-.64h-5.28Z"/>
        <path class="cls-1" d="m64.08,17.33h2.9l7.14,15.38h-3.7l-1.41-3.25h-7.11l-1.39,3.25h-3.56l7.14-15.38Zm-1.04,9.47h4.81l-2.33-5.44h-.14l-2.33,5.44Z"/>
        <path class="cls-1" d="m91.24,17.33v9.85c0,3.84-2.97,6.01-7.04,6.01s-7-2.17-7-6.01v-9.85h3.39v9.85c0,2.03,1.63,3.11,3.6,3.11,2.1,0,3.65-1.08,3.65-3.11v-9.85h3.39Z"/>
        <path class="cls-1" d="m100.15,17.33v12.49h9.05v2.9h-12.41v-15.38h3.37Z"/>
        <path class="cls-1" d="m119.22,17.33h2.9l7.14,15.38h-3.7l-1.41-3.25h-7.11l-1.39,3.25h-3.56l7.14-15.38Zm-1.04,9.47h4.81l-2.33-5.44h-.14l-2.33,5.44Z"/>
        <path class="cls-1" d="m165.15,24.86c0-4.83,3.65-8.13,8.36-8.13,3.46,0,5.47,1.89,6.57,3.84l-2.87,1.41c-.66-1.27-2.07-2.28-3.7-2.28-2.85,0-4.92,2.19-4.92,5.16s2.07,5.16,4.92,5.16c1.63,0,3.04-.99,3.7-2.28l2.87,1.39c-1.13,1.96-3.11,3.86-6.57,3.86-4.71,0-8.36-3.3-8.36-8.13Z"/>
        <path class="cls-1" d="m210.81,16.86c4.88,0,8.79,3.65,8.79,8.13s-3.91,8.2-8.79,8.2-8.69-3.63-8.69-8.2,3.82-8.13,8.69-8.13Zm0,13.43c2.94,0,5.25-2.4,5.25-5.3s-2.31-5.21-5.25-5.21-5.16,2.36-5.16,5.21,2.26,5.3,5.16,5.3Z"/>
        <path class="cls-1" d="m224.12,32.59v-15.38h3.37v15.38h-3.37Z"/>
        <path class="cls-1" d="m232.19,24.74c0-4.83,3.65-8.13,8.36-8.13,3.46,0,5.47,1.89,6.57,3.84l-2.87,1.41c-.66-1.27-2.07-2.28-3.7-2.28-2.85,0-4.92,2.19-4.92,5.16s2.07,5.16,4.92,5.16c1.63,0,3.04-.99,3.7-2.28l2.87,1.39c-1.13,1.96-3.11,3.86-6.57,3.86-4.71,0-8.36-3.3-8.36-8.13Z"/>
        <path class="cls-1" d="m259.78,26.01h-5.68v3.67h9.99v2.9h-13.36v-15.38h12.82v2.92h-9.45v2.99h5.68v2.9Z"/>
        <path class="cls-1" d="m134.19,19.62c0,1.3-.43,2.12-1.02,2.92-.95,1.31-2.64,1.82-2.7,1.75-.05-.07-.19-.43-.15-.46.47-.32.87-.64,1.21-.97.34-.33.51-.78.51-1.53,0-.18-.01-.31-.03-.38s-.06-.11-.12-.11c-.04,0-.09.01-.15.03-.05.02-.12.03-.19.03-.44,0-.87-.19-1.19-.51-.28-.27-.48-.74-.48-1.4,0-.55.18-.94.59-1.37s.91-.68,1.51-.68c.67,0,1.21.27,1.62.81s.59,1.06.59,1.87Z"/>
        <path class="cls-1" d="m149.48,21.28c-.92-.68-2.85-1.65-5.39-1.65-1.53,0-2.9.57-2.9,1.88s2.03,1.46,4.03,1.63c2.8.19,7,.83,7,4.74s-2.97,5.29-6.74,5.29-5.97-1.45-7.74-2.77c.35-.45,1.4-1.8,1.72-2.17,1.33.99,3.35,2.18,6.07,2.18,1.95,0,3.51-.75,3.51-2.19s-1.58-1.81-3.89-2c-3.37-.21-7.33-.7-7.33-4.5s3.46-4.88,6.36-4.88c3.7,0,5.82,1.29,7.14,2.19l-1.84,2.24Z"/>
        <path class="cls-1" d="m184.17,32.71v-15.38h3.39s0,5.87,0,5.87h7.26v-5.88h3.39v15.38h-3.39v-6.59h-7.26v6.59h-3.39Z"/>
      </g>
      <g>
        <path class="cls-1" d="m105.32,43.12c-.5-.37-1.56-.9-2.94-.9-.84,0-1.58.31-1.58,1.03s1.11.8,2.2.89c1.53.1,3.92.28,3.92,2.6,0,2.07-1.72,2.88-3.78,2.88-2.17,0-3.64-.86-4.61-1.66l1.04-1.26c.71.57,1.9,1.41,3.6,1.41,1.07,0,1.92-.41,1.92-1.2s-.86-.99-2.12-1.09c-1.84-.11-4-.32-4-2.45s1.89-2.66,3.47-2.66c1.75,0,3.23.64,3.94,1.13l-1.05,1.29Z"/>
        <path class="cls-1" d="m115.82,44.61l3.84-3.65h2.31l-3.5,3.28,4.13,5.12h-2.33l-3.11-3.91-1.35,1.27v2.63h-1.85v-8.39h1.85v3.65Z"/>
        <path class="cls-1" d="m129.16,49.35v-8.39h1.84v8.39h-1.84Z"/>
        <path class="cls-1" d="m146.26,40.96v8.39h-1.59l-4.27-5.19h-.01v5.19h-1.85v-8.39h1.58l4.28,5.2h.01v-5.2h1.85Z"/>
        <path class="cls-1" d="m153.31,45.07c0-2.64,1.99-4.43,4.56-4.43,1.89,0,2.98,1.03,3.59,2.09l-1.57.77c-.36-.69-1.13-1.25-2.02-1.25-1.56,0-2.69,1.19-2.69,2.81s1.13,2.81,2.69,2.81c.89,0,1.66-.54,2.02-1.25l1.57.76c-.62,1.07-1.7,2.11-3.59,2.11-2.57,0-4.56-1.8-4.56-4.43Z"/>
        <path class="cls-1" d="m172.4,40.96h1.58l3.89,8.39h-2.02l-.77-1.77h-3.88l-.76,1.77h-1.94l3.89-8.39Zm-.57,5.17h2.62l-1.27-2.97h-.08l-1.27,2.97Z"/>
        <path class="cls-1" d="m184.92,49.35v-8.39h4.65c1.2,0,1.98.35,2.52.91.44.46.69,1.07.69,1.73,0,1.08-.67,1.92-1.7,2.37l1.97,3.38h-2.11l-1.7-3.08h-2.49v3.08h-1.84Zm1.84-6.84v2.2h3.01c.64,0,1.17-.46,1.17-1.11,0-.28-.1-.54-.3-.73-.3-.32-.67-.36-1-.36h-2.88Z"/>
        <path class="cls-1" d="m205.04,45.77h-3.1v2h5.45v1.58h-7.29v-8.39h6.99v1.59h-5.15v1.63h3.1v1.58Z"/>
      </g>
    </g>
  </g>
</svg>