<?xml version="1.0" encoding="UTF-8"?>
<svg id="Ebene_2" data-name="Ebene 2" xmlns="http://www.w3.org/2000/svg" viewBox="0 0 303.57 65.22">
  <defs>
    <style>
      .cls-1 {
        fill: #fff;
      }
    </style>
  </defs>
  <g id="Ebene_1-2" data-name="Ebene 1">
    <rect x="0" y="0" width="303.57" height="65.22" rx="32.61" ry="32.61"/>
    <path class="cls-1" d="m197.53,40.24c-.88,1.12-2.16,1.68-3.85,1.68-1.69,0-2.95-.57-3.78-1.69-.83-1.12-1.25-2.63-1.25-4.51,0-1.74.41-3.21,1.23-4.38.81-1.18,2.1-1.77,3.84-1.77,1.14,0,2.15.32,3.02.97,1.41,1.07,2.11,2.85,2.11,5.34,0,1.78-.44,3.23-1.32,4.36h0Zm2.13-21.44v9.49c-.6-.7-1.62-1.52-2.49-1.95-1.08-.54-2.66-.78-4.04-.78-2.57,0-5.2.78-6.99,2.78-1.79,1.99-2.91,4.29-2.91,7.77,0,3.02.91,5.48,2.73,7.41,1.82,1.93,4.06,2.89,6.73,2.89,1.62,0,3.4-.27,4.49-.82.91-.46,1.74-1.09,2.48-2.01v2.85h5.8v-27.62s-5.8,0-5.8,0Zm-118.25,19.32c-.04,1.73-1.01,2.92-2.07,3.57-1.07.66-2.23.98-3.5.98-.8,0-1.47-.2-2.03-.59-.56-.4-.84-1.03-.84-1.92,0-.99.45-1.72,1.37-2.19.54-.28,1.43-.51,2.66-.71l1.32-.22c.66-.11,1.18-.22,1.55-.35.38-.13,1.16-.29,1.54-.5v1.92Zm3.35-11.26c-1.89-.86-4.05-1.29-6.49-1.29-3.74,0-6.38.87-7.92,2.61-.96,1.12-1.51,2.54-1.63,4.26h5.58c.14-.76.42-1.37.83-1.81.58-.6,1.56-.91,2.94-.9,1.24,0,2.18.15,2.81.46.64.31.96.87.96,1.68,0,.67-.42,1.15-1.25,1.47-.46.18-1.24.34-2.31.46l-1.99.22c-2.25.26-3.96.68-5.12,1.27-2.12,1.09-3.17,2.85-3.17,5.28,0,1.88.66,3.32,1.97,4.35,1.32,1.02,2.98,1.53,5,1.53,1.58,0,3-.32,4.25-.96,1.05-.54,1.76-1.01,2.57-1.78v2.74s5.8,0,5.8,0v-14.71c0-2.38-.94-4-2.83-4.86m47.18.37c-1.5-1.1-3.42-1.66-5.76-1.66-1.88,0-3.43.41-4.65,1.23-.68.46-1.41,1.22-2.17,2.26v-3.5h-5.78v20.85h5.97s0-11.02,0-11.02c0-1.26.19-2.29.58-3.1.75-1.53,2.12-2.3,4.13-2.3,1.64,0,2.74.52,3.33,1.57.32.57.48,1.39.48,2.47v12.39s6.11,0,6.11,0v-13.72c0-2.55-.75-4.38-2.24-5.48m19.3,13.32c-.9,1.06-2.19,1.59-3.86,1.59s-2.97-.53-3.87-1.59c-.91-1.06-1.36-2.58-1.36-4.53,0-1.96.45-3.47,1.36-4.53.91-1.05,2.2-1.59,3.87-1.59,1.68,0,2.96.53,3.86,1.59.9,1.06,1.35,2.57,1.35,4.53,0,1.96-.45,3.47-1.35,4.54h0Zm4.59-11.87c-1.85-2.07-4.66-3.1-8.43-3.1-3.77,0-6.58,1.03-8.42,3.1-1.85,2.07-2.78,4.51-2.78,7.34,0,2.87.93,5.32,2.77,7.36,1.85,2.04,4.66,3.06,8.42,3.06,3.77,0,6.58-1.02,8.43-3.06,1.85-2.04,2.78-4.49,2.78-7.36,0-2.82-.93-5.27-2.77-7.34m-47.18-1.45c-1.49-1.1-3.42-1.65-5.76-1.65-1.88,0-3.43.41-4.65,1.23-.68.46-1.4,1.21-2.17,2.26v-3.49s-5.78,0-5.78,0v20.86s5.96,0,5.96,0v-11.02c0-1.26.2-2.3.59-3.11.75-1.53,2.12-2.3,4.13-2.3,1.63,0,2.74.52,3.32,1.57.32.57.48,1.39.48,2.47v12.39s6.11,0,6.11,0v-13.72c0-2.56-.75-4.38-2.24-5.49m70.33,0c-1.49-1.1-3.42-1.65-5.77-1.65-1.87,0-3.42.41-4.64,1.23-.68.46-1.4,1.22-2.17,2.26v-3.49h-5.78v20.86s5.97,0,5.97,0v-11.02c0-1.26.2-2.29.58-3.11.75-1.53,2.13-2.3,4.13-2.3,1.64,0,2.75.52,3.33,1.57.32.58.48,1.4.48,2.47v12.39s6.11,0,6.11,0v-13.72c0-2.55-.74-4.38-2.24-5.48m50.77-8.42v27.62s5.81,0,5.81,0v-27.62s-5.81,0-5.81,0ZM56.64,29.93c1.31,0,2.31.37,2.9,1.19.42.58.44.75.65,1.32h5.81c-.32-2.81-1.32-4.12-3.01-5.22-1.69-1.11-3.86-1.66-6.51-1.65-3.11,0-5.56.95-7.32,2.83-1.77,1.89-2.65,4.52-2.64,7.9,0,3,.81,5.43,2.42,7.31,1.61,1.88,4.11,2.82,7.51,2.81,3.4,0,5.96-1.14,7.69-3.39,1.08-1.4,1.74-2.89,1.87-4.46h-5.59c-.11,1.05-.54,1.89-1.08,2.55-.54.65-1.46.98-2.76.98-1.82,0-3.07-.81-3.73-2.45-.36-.88-.55-2.04-.55-3.48,0-1.52.18-2.73.54-3.64.68-1.73,1.96-2.59,3.82-2.59m164.25,8.19c-.04,1.73-1.01,2.92-2.07,3.57-1.07.66-2.23.98-3.5.98-.8,0-1.47-.2-2.03-.59-.56-.39-.84-1.03-.84-1.92,0-.99.45-1.72,1.37-2.19.54-.28,1.43-.51,2.66-.71l1.32-.22c.66-.11,1.18-.22,1.55-.35.38-.13,1.16-.29,1.54-.5v1.92Zm3.35-11.26c-1.89-.86-4.05-1.29-6.49-1.29-3.74,0-6.38.87-7.92,2.61-.96,1.12-1.51,2.54-1.63,4.26h5.58c.14-.76.42-1.37.83-1.81.58-.6,1.56-.91,2.94-.9,1.24,0,2.18.15,2.81.46.64.31.96.87.96,1.68,0,.67-.42,1.15-1.25,1.47-.46.18-1.24.34-2.31.45l-1.99.22c-2.25.26-3.96.68-5.12,1.27-2.11,1.09-3.17,2.85-3.17,5.28,0,1.88.66,3.32,1.97,4.34,1.32,1.02,2.98,1.53,5,1.53,1.58,0,3-.32,4.25-.96,1.05-.54,1.76-1.01,2.57-1.78v2.74s5.8,0,5.8,0v-14.71c0-2.38-.94-4-2.84-4.86m18.65,7.12c.19-1.28.64-2.29,1.37-3.04.73-.75,1.75-1.12,3.06-1.12,1.21,0,2.22.35,3.04,1.06.82.71,1.27,1.74,1.37,3.11h-8.84Zm13.99-.51c-.24-1.54-.76-2.9-1.56-4.06-.89-1.33-2.02-2.29-3.39-2.91-1.37-.62-2.91-.92-4.61-.92-2.87,0-5.21.91-7.02,2.73-1.8,1.82-2.7,4.43-2.7,7.84,0,3.63,1,6.26,2.99,7.87,2,1.61,4.3,2.42,6.91,2.42,3.16,0,5.62-.96,7.38-2.87,1.13-1.2,1.76-2.39,1.9-3.56h-5.23c-.31.58-.66,1.03-1.06,1.36-.73.6-1.68.9-2.85.9-1.1,0-2.04-.24-2.83-.74-1.29-.79-1.97-2.18-2.05-4.15h14.29c.02-1.7-.03-3-.17-3.9"/>
  </g>
</svg>