<?xml version="1.0" encoding="UTF-8"?>
<svg id="Ebene_2" data-name="Ebene 2" xmlns="http://www.w3.org/2000/svg" viewBox="0 0 154.56 154.56">
  <defs>
    <style>
      .cls-1 {
        fill: #010101;
      }

      .cls-2 {
        fill: #1b181c;
      }

      .cls-3 {
        fill: #fff;
        stroke: #1d1d1b;
        stroke-miterlimit: 10;
      }
    </style>
  </defs>
  <g id="Ebene_1-2" data-name="Ebene 1">
    <circle class="cls-3" cx="77.28" cy="77.28" r="76.78"/>
    <g>
      <path class="cls-1" d="m54.35,87.76c1.53-15.01,9.13-43.52,23.85-43.52,8.24,0,15.01,11.55,18.22,21.21l6.72-3.89c-3.5-12.94-13.02-31.14-24.97-31.14-16.54,0-29.17,30.49-32.05,62.57l8.22-5.24Z"/>
      <path class="cls-1" d="m78.03,50.18c-2.83,0-5.12,2.3-5.12,5.13s2.29,5.13,5.12,5.13,5.12-2.29,5.12-5.13-2.29-5.13-5.12-5.13"/>
      <path class="cls-2" d="m30.42,104.83h11.91v-4.27s5.64,0,5.64,0v12.65h-5.64v-5.01h-11.91v5.01h-5.63v-12.65s5.63,0,5.63,0v4.28Zm90.23,3.68c-.31.59-.94.75-1.49.75h-12.03v-4.72h12.02c.55,0,1.19.16,1.49.75.51,1.01.52,2.26,0,3.23m-36.97-.22l3.29-4.51h1.55l3.29,4.51h-8.13Zm41.8-5.03c-.96-1.96-3-2.7-4.91-2.7h-19.11v12.19s-8.87-12.19-8.87-12.19h-9.69s-8.87,12.18-8.87,12.18v-2.42s-17.49,0-17.49,0v-2h17.5v-2.89h-17.5v-1.99h17.49s0-2.89,0-2.89h-23.13v12.65h29.21s1.5-2.05,1.5-2.05h12.28l1.5,2.05h25.19c1.91,0,3.95-.74,4.91-2.7,1.1-2.23,1.17-5.13,0-7.25m2.05-5.38v1.76h.3v-.69h.25c.17,0,.28.02.35.06.11.06.17.2.17.4v.2s.01.01.01.02c0,0,0,.01,0,.02h.29v-.02s-.02-.05-.03-.09c0-.05,0-.09,0-.13v-.13c0-.09-.03-.18-.09-.27-.07-.09-.16-.15-.3-.17.11-.02.19-.05.25-.09.11-.07.17-.19.17-.35,0-.22-.09-.37-.28-.45-.1-.04-.26-.06-.48-.06h-.62Zm1.08.54c0,.13-.06.22-.19.27-.07.02-.17.04-.31.04h-.29v-.63h.27c.18,0,.31.02.39.06.08.04.12.13.12.26m1.17.35c0-.44-.16-.82-.47-1.13-.31-.31-.69-.46-1.13-.46s-.82.15-1.13.46c-.31.31-.47.69-.47,1.13s.16.82.46,1.13c.31.31.69.47,1.13.47s.82-.16,1.13-.47c.31-.31.47-.69.47-1.13m-1.6-1.37c.38,0,.71.13.98.4.27.27.4.59.4.97s-.13.71-.4.98c-.27.27-.59.4-.98.4s-.71-.13-.98-.4c-.27-.27-.4-.6-.4-.98s.13-.71.4-.97c.27-.27.59-.4.97-.4"/>
    </g>
  </g>
</svg>