<?xml version="1.0" encoding="UTF-8"?>
<svg id="Ebene_2" data-name="Ebene 2" xmlns="http://www.w3.org/2000/svg" viewBox="0 0 264.83 108.69">
  <defs>
    <style>
      .cls-1 {
        fill: #fff;
      }

      .cls-2, .cls-3 {
        fill: #1d1d1b;
      }

      .cls-3 {
        fill-rule: evenodd;
      }
    </style>
  </defs>
  <g id="Ebene_1-2" data-name="Ebene 1">
    <ellipse class="cls-2" cx="132.41" cy="54.35" rx="132.41" ry="54.35"/>
    <g>
      <polygon class="cls-1" points="53.1 29.04 204.83 29.04 204.83 80.19 53.1 80.19 53.1 29.04 53.1 29.04"/>
      <polygon class="cls-3" points="69.96 60.04 76.86 60.04 76.86 57.32 85.13 57.32 85.13 53.99 76.86 53.99 76.86 52.87 85.13 52.87 85.13 49.13 69.96 49.13 69.96 60.04"/>
      <path class="cls-3" d="m94.54,52.12h2.24c1.22,0,1.8.28,1.8.96,0,.81-.34,1.22-1.91,1.22h-2.12v-2.19Zm-6.9,7.92h6.9v-3.52h.04l3.23,3.52h8.16l-4.74-4.51c2.14-.14,4.24-1.02,4.24-3.2s-1.82-3.21-4.91-3.21h-12.92v10.92Z"/>
      <polygon class="cls-3" points="108.05 60.04 123.45 60.04 123.45 57.18 114.95 57.18 114.95 56.16 123.45 56.16 123.45 53.62 114.95 53.62 114.95 52.58 123.45 52.58 123.45 49.13 108.05 49.13 108.05 60.04"/>
      <rect class="cls-2" x="126.02" y="49.13" width="6.9" height="10.92"/>
      <polygon class="cls-3" points="139.29 60.04 146.19 60.04 146.19 53.42 150.24 53.42 150.24 49.13 135.24 49.13 135.24 53.42 139.29 53.42 139.29 60.04"/>
      <path class="cls-3" d="m161.73,55.65h-2.96l1.43-3.99h.06l1.47,3.99Zm-11.29,4.39h7.03l.52-1.39h4.57l.44,1.39h7.13l-4.4-10.92h-10.93l-4.36,10.92Z"/>
      <path class="cls-3" d="m187.9,54.49h-6.31v3.01h-.99c-1.74,0-2.96-.67-2.96-2.37,0-2.05,2.45-2.23,4.41-2.23,1.74,0,3.94.11,5.64.32v-3.84c-2.89-.34-4.61-.58-7.72-.58-5.01,0-9.23,1.35-9.23,5.83,0,4.07,3.54,5.73,8.92,5.73,3.5,0,5.73-.31,8.24-.96v-4.91Z"/>
      <path class="cls-1" d="m194.87,50.99c0,1.39-1.04,2.49-2.44,2.49s-2.44-1.09-2.44-2.48,1.04-2.49,2.44-2.49,2.44,1.09,2.44,2.48Z"/>
    </g>
  </g>
</svg>