<?xml version="1.0" encoding="UTF-8"?>
<svg id="Ebene_2" data-name="Ebene 2" xmlns="http://www.w3.org/2000/svg" viewBox="0 0 304.57 66.22">
  <defs>
    <style>
      .cls-1 {
        fill: #fff;
        stroke: #000;
        stroke-miterlimit: 10;
      }
    </style>
  </defs>
  <g id="Ebene_1-2" data-name="Ebene 1">
    <rect class="cls-1" x=".5" y=".5" width="303.57" height="65.22" rx="32.61" ry="32.61"/>
    <g>
      <path d="m150.75,56.12c-.62-.05-1.24-.07-1.86-.15-.95-.12-1.89-.27-2.83-.41-.71-.1-1.43-.16-2.12-.33-1.6-.39-3.2-.78-4.77-1.29-4.38-1.41-8.35-3.59-11.98-6.39-.63-.49-1.23-1-1.84-1.51-.15-.13-.34-.25-.42-.42-.09-.19-.08-.43-.12-.65.22-.03.47-.15.65-.08.45.19.87.47,1.31.71,4.44,2.41,9.14,4.13,14.07,5.23,2.84.63,5.71,1.03,8.61,1.22,2.72.18,5.44.14,8.16-.1,2.9-.26,5.75-.78,8.57-1.49,2.55-.65,5.04-1.48,7.47-2.5.22-.09.48-.11.72-.11.33.01.58.23.63.54.03.21-.04.52-.19.66-.43.39-.91.73-1.39,1.05-2.25,1.48-4.65,2.65-7.2,3.5-1.61.54-3.23,1.06-4.88,1.44-1.64.37-3.32.56-4.98.81-.84.12-1.69.19-2.54.29h-3.06Z"/>
      <path d="m256.71,34.37h-4.11v-.44c0-2.77,0-5.54,0-8.3,0-.33-.02-.67-.09-1-.16-.73-.87-1.29-1.64-1.36-1.09-.1-2.06.21-2.95.82-.11.07-.16.29-.16.44,0,3.14,0,6.28,0,9.42,0,.12,0,.25,0,.4h-4.08v-13.6c.08-.01.18-.03.27-.03.88,0,1.77,0,2.65,0,.29,0,.46.1.52.4.07.34.18.66.28,1.04.48-.32.91-.62,1.36-.9,1.51-.94,3.15-1.22,4.86-.8,1.79.44,2.74,1.68,3.03,3.46.02.11.05.21.07.32v10.13Z"/>
      <path d="m72.5,34.37h-4.1c0-.15,0-.28,0-.41,0-4.17,0-8.34,0-12.51,0-.12,0-.25,0-.37.01-.24.14-.35.38-.35.91,0,1.82,0,2.72,0,.25,0,.32.15.37.34.09.35.19.71.29,1.09.52-.34,1-.69,1.5-.98,1.61-.93,3.3-1.15,5.09-.6.93.29,1.61.91,2.13,1.72.57-.38,1.1-.79,1.67-1.12,1.69-.95,3.48-1.22,5.33-.52,1.44.54,2.16,1.68,2.42,3.14.07.39.08.79.08,1.18,0,2.94,0,5.88,0,8.83v.55h-4.1c0-.14,0-.28,0-.41,0-2.88,0-5.76,0-8.64,0-1.27-.78-2.02-2.04-2.05-.88-.02-1.66.24-2.41.66-.28.15-.39.34-.39.67.02,3.09,0,6.18.01,9.27,0,.16,0,.32,0,.5h-4.1c0-.18,0-.36,0-.53,0-2.69,0-5.39,0-8.08,0-.17-.02-.35-.01-.52.03-1.18-.89-2.01-2.11-1.98-.94.02-1.78.3-2.54.83-.12.09-.19.33-.19.5-.01,2.89,0,5.79,0,8.68,0,.36,0,.72,0,1.11Z"/>
      <path d="m53.78,30.16c-.4,1.26-.82,2.53-1.2,3.8-.1.32-.24.43-.57.43-1.33-.02-2.66,0-4.03,0,.25-.69.49-1.33.73-1.98,1.51-4.02,3.03-8.03,4.54-12.05.52-1.38,1.05-2.75,1.55-4.13.11-.3.27-.42.6-.42,1.29.02,2.59.02,3.88,0,.3,0,.44.1.54.38.86,2.3,1.73,4.59,2.59,6.88,1.36,3.6,2.71,7.2,4.07,10.81.06.15.09.3.15.51-.21,0-.37,0-.53,0-1.26,0-2.51,0-3.77,0-.24,0-.34-.07-.41-.31-.39-1.22-.81-2.44-1.2-3.66-.06-.19-.14-.3-.36-.3-2.16,0-4.33,0-6.49,0-.02,0-.05.02-.09.03Zm3.46-10.58s-.08,0-.11,0c-.81,2.55-1.61,5.1-2.43,7.68h5.04c-.84-2.58-1.67-5.13-2.5-7.68Z"/>
      <path d="m207.46,34.37h-4.1v-.39c0-6.31,0-12.62,0-18.92,0-.51,0-.51.51-.51,1.18,0,2.36,0,3.58,0v7.36c.25-.16.43-.27.61-.39,1.68-1.14,3.51-1.56,5.48-.99,1.67.48,2.54,1.69,2.8,3.36.06.38.07.77.07,1.15,0,2.96,0,5.91,0,8.87v.46h-4.1c0-.14,0-.27,0-.4,0-2.79,0-5.59,0-8.38,0-.25-.01-.5-.05-.74-.14-.88-.77-1.47-1.65-1.57-1.1-.12-2.09.2-2.98.82-.11.07-.16.29-.16.45,0,3.12,0,6.23,0,9.35,0,.15,0,.29,0,.48Z"/>
      <path d="m128.67,34.78c-1.44.04-2.8-.24-4.04-.98-1.47-.87-2.38-2.17-2.79-3.79-.47-1.86-.48-3.75.2-5.56.86-2.26,2.54-3.58,4.91-4.01,1.44-.26,2.87-.23,4.27.2,2.52.76,3.95,2.52,4.43,5.05.32,1.69.26,3.39-.37,5.02-.89,2.3-2.63,3.57-5.03,3.97-.52.09-1.06.08-1.6.11Zm2.99-7.21c0-.34.02-.61,0-.88-.07-.82-.24-1.62-.71-2.32-.66-.98-1.65-1.23-2.75-1.09-1.08.14-1.8.79-2.15,1.82-.51,1.53-.52,3.09-.07,4.64.4,1.36,1.13,1.97,2.53,2.06,1.23.08,2.18-.36,2.71-1.6.36-.86.5-1.76.44-2.62Z"/>
      <path d="m226.66,27.55c-.04-1.16.1-2.28.55-3.35.78-1.84,2.14-3.06,4.06-3.59,1.86-.51,3.73-.49,5.56.2,1.74.66,2.96,1.86,3.55,3.62.8,2.37.78,4.74-.35,7.01-.75,1.5-1.99,2.5-3.6,2.98-1.76.52-3.57.54-5.33,0-2.47-.76-3.85-2.52-4.32-5.01-.11-.6-.09-1.23-.13-1.85Zm10.14-.01c-.08-.65-.1-1.31-.25-1.94-.43-1.84-1.77-2.64-3.56-2.25-1.2.26-1.77,1.16-2.02,2.28-.27,1.21-.26,2.45-.04,3.66.24,1.31.95,2.42,2.59,2.52,1.2.07,2.18-.3,2.75-1.54.4-.86.47-1.78.52-2.72Z"/>
      <path d="m161.35,34.35v-.44c0-5.8,0-11.6,0-17.4,0-.68.02-.7.68-.7,3.78,0,7.56,0,11.34,0,.58,0,.53-.08.53.55,0,.73-.01,1.47,0,2.2,0,.32-.11.39-.41.39-2.51-.01-5.02,0-7.54-.01-.36,0-.46.11-.45.46.02,1.25,0,2.51,0,3.76v.41h7.09v3.12h-7.08v7.66h-4.19Z"/>
      <path d="m151.58,34.37h-4.06c0-.15-.02-.29-.02-.43,0-2.95,0-5.91-.02-8.86,0-1.03-.82-1.77-1.84-1.81-.98-.04-1.86.22-2.68.73-.23.15-.31.3-.31.57,0,3.12,0,6.23,0,9.35,0,.15,0,.29,0,.46h-4.09c0-.13-.02-.25-.02-.37,0-4.21,0-8.42,0-12.62,0-.61.03-.65.66-.65.8,0,1.59,0,2.39,0,.26,0,.39.1.44.34.08.35.18.69.29,1.11.32-.23.61-.43.9-.63,1.59-1.1,3.32-1.51,5.23-1.1,1.62.35,2.82,1.62,3.06,3.26.06.38.1.76.1,1.15,0,3.05,0,6.11,0,9.16,0,.11,0,.22-.02.37Z"/>
      <path d="m93.74,24.12c-.17-.77-.33-1.5-.49-2.23-.06-.27.14-.38.34-.46,1.14-.47,2.31-.82,3.53-1,1.17-.17,2.35-.22,3.53-.09.89.1,1.76.3,2.55.76,1.25.72,1.91,1.84,1.94,3.23.06,3.3.02,6.61.02,9.91,0,.02-.01.05-.03.13-.22,0-.47,0-.71,0-.7,0-1.39-.02-2.09,0-.32.01-.45-.12-.5-.41-.05-.25-.13-.49-.2-.75-.53.32-.98.67-1.49.9-1.89.87-3.79.97-5.63-.1-1-.58-1.6-1.48-1.65-2.67-.04-.88-.11-1.76.32-2.59.57-1.08,1.51-1.69,2.6-2.1,1.46-.54,2.99-.68,4.54-.74.33-.01.67,0,1,0,.35-1.57-.53-2.71-2.03-2.83-1.75-.14-3.42.27-5.05.86-.14.05-.28.08-.48.14Zm7.64,3.98c-.6.03-1.14.03-1.68.09-.78.09-1.53.28-2.21.71-.73.46-1.01,1.33-.74,2.23.21.68.83,1.07,1.68,1.09,1.05.02,1.95-.39,2.78-.98.08-.06.15-.18.15-.27.01-.93,0-1.86,0-2.86Z"/>
      <path d="m186.86,34.38c-1,0-1.97,0-2.94-.01-.11,0-.25-.17-.3-.29-.1-.26-.15-.54-.23-.85-.09.04-.16.06-.21.1-1.36,1.13-2.93,1.56-4.68,1.43-.99-.07-1.87-.37-2.63-.99-1.03-.83-1.38-1.96-1.35-3.24.06-2.17,1.46-3.36,3.42-3.98,1.36-.43,2.77-.55,4.19-.6.32-.01.64,0,.96,0,.37-1.51-.62-2.78-2.13-2.85-1.75-.08-3.4.29-5.01.9-.31.12-.46.06-.53-.27-.12-.53-.25-1.06-.4-1.58-.11-.38.02-.62.36-.73.91-.29,1.81-.62,2.73-.84,1.42-.34,2.88-.4,4.33-.23,1.35.15,2.6.53,3.53,1.61.55.63.88,1.37.88,2.19.03,3.3.02,6.6.03,9.91,0,.08-.01.17-.02.31Zm-3.72-6.28c-.61.03-1.16.03-1.7.09-.84.11-1.66.29-2.35.82-.61.47-.83,1.33-.56,2.16.2.62.82,1.01,1.61,1.03,1.07.03,1.98-.37,2.83-.97.08-.06.17-.17.17-.26.01-.94,0-1.88,0-2.88Z"/>
      <path d="m115.19,23.56c-.24,0-.38,0-.51,0-2.01,0-4.03,0-6.04,0-.49,0-.56-.07-.57-.56,0-.61,0-1.22,0-1.83,0-.31.14-.46.45-.46,3.68,0,7.36,0,11.04,0,.04,0,.07.02.15.04,0,.87,0,1.75-.01,2.62,0,.11-.13.23-.22.33-1.44,1.54-2.89,3.08-4.34,4.61-.88.93-1.75,1.86-2.63,2.8-.09.1-.17.21-.29.37h7.61v2.86h-12.05c0-.9,0-1.79,0-2.68,0-.11.12-.24.21-.33,2.26-2.44,4.53-4.88,6.8-7.32.12-.12.22-.26.39-.47Z"/>
      <path d="m190.11,30.78c.36.14.7.27,1.03.4,1.05.43,2.14.71,3.28.77.64.03,1.27.03,1.86-.25.44-.21.74-.53.77-1.05.03-.53-.29-.84-.72-1.03-.76-.34-1.54-.61-2.3-.94-.86-.37-1.75-.71-2.57-1.16-1.29-.7-1.98-1.77-1.91-3.3.06-1.43.82-2.39,1.97-3.07,1.32-.78,2.79-.93,4.28-.84,1.45.09,2.83.5,4.15,1.1.3.14.4.29.29.63-.18.55-.31,1.12-.45,1.69-.07.3-.17.38-.49.24-1.29-.6-2.62-1.02-4.06-.83-.44.06-.9.2-1.29.42-.62.37-.61,1.13.03,1.47.74.39,1.54.68,2.31,1.02,1.03.46,2.08.88,3.07,1.4,2.23,1.17,2.03,4.07.74,5.45-1.15,1.23-2.59,1.77-4.25,1.87-2.13.13-4.11-.35-6-1.29-.31-.15-.38-.33-.29-.65.19-.66.35-1.33.54-2.03Z"/>
      <path d="m223.84,34.36h-3.99c0-.16-.02-.29-.02-.42,0-4.26,0-8.51,0-12.77,0-.35.08-.47.45-.46,1.18.02,2.36,0,3.57,0v13.64Z"/>
      <path d="m173.85,45.82c-1.07.07-2.15.14-3.22.22-.16.01-.32.1-.47.09-.18-.01-.35-.1-.52-.16.07-.17.09-.42.22-.5.51-.33,1.03-.66,1.58-.89,2.31-.94,4.69-1.07,7.13-.61.12.02.24.06.36.1.79.27.92.42.94,1.25.05,2.24-.64,4.27-1.79,6.15-.44.72-1.05,1.34-1.6,1.99-.12.14-.32.25-.5.28-.43.08-.53-.06-.37-.5.29-.78.61-1.54.88-2.33.39-1.13.81-2.27.86-3.48.02-.41.07-.88-.31-1.13-.34-.22-.77-.37-1.17-.41-.66-.07-1.34-.02-2.01-.02,0-.02,0-.05,0-.07Z"/>
      <path d="m224.05,16.43c.15,1.22-.99,2.28-2.24,2.26-1.23-.02-2.24-1.06-2.24-2.25,0-1.19,1.07-2.25,2.27-2.27.96-.02,2.35.89,2.21,2.25Z"/>
    </g>
  </g>
</svg>