<?xml version="1.0" encoding="UTF-8"?>
<svg id="Ebene_2" data-name="Ebene 2" xmlns="http://www.w3.org/2000/svg" viewBox="0 0 304.57 66.22">
  <defs>
    <style>
      .cls-1 {
        fill: #fff;
        stroke: #000;
        stroke-miterlimit: 10;
      }
    </style>
  </defs>
  <g id="Ebene_1-2" data-name="Ebene 1">
    <rect class="cls-1" x=".5" y=".5" width="303.57" height="65.22" rx="32.61" ry="32.61"/>
    <g>
      <path d="m121.12,36.7v-17.59h5.03c.07.23.11,26.94.04,29.04-.06-.04-.11-.06-.14-.1-1.82-1.78-3.64-3.56-5.47-5.33-1.93-1.88-3.87-3.74-5.8-5.62-1.76-1.72-3.52-3.44-5.28-5.16-.79-.77-1.58-1.54-2.37-2.3-.03-.03-.06-.05-.13-.1v17.57h-5.03v-29.05c6.39,6.24,12.74,12.45,19.09,18.66.02-.01.03-.02.05-.03Z"/>
      <path d="m233.76,22.51c.44-.44.89-.81,1.36-1.15,1.25-.91,2.61-1.62,4.09-2.1.95-.31,1.93-.5,2.93-.59,1.29-.11,2.56-.05,3.83.2,1.87.37,3.59,1.11,5.16,2.18,2.35,1.61,4.03,3.76,5.15,6.36.52,1.22.87,2.5,1.02,3.82.07.64.06,1.29.07,1.94.03,1.03-.04,2.05-.27,3.05-.34,1.48-.85,2.91-1.62,4.23-1.53,2.61-3.63,4.59-6.38,5.88-1.29.61-2.65,1-4.07,1.17-1.46.17-2.9.14-4.34-.16-1.94-.4-3.72-1.18-5.34-2.33-2.2-1.57-3.79-3.62-4.87-6.08-.51-1.15-.84-2.36-1.03-3.6-.02-.11-.04-.22-.05-.33,0-.02,0-.05,0-.08.19-.06,4.7-.06,4.94,0,.1.59.27,1.17.49,1.73.86,2.23,2.32,3.93,4.43,5.07,1.02.55,2.12.85,3.28.95,2.09.19,4.01-.29,5.74-1.47,1.99-1.35,3.27-3.21,3.89-5.53.23-.85.35-1.71.35-2.58,0-1.28-.25-2.52-.72-3.72-.59-1.48-1.48-2.74-2.7-3.77-1.04-.88-2.21-1.52-3.53-1.86-1.14-.29-2.29-.36-3.46-.19-1.54.21-2.91.79-4.14,1.72-.07.05-.13.11-.2.16-.06.05-.12.09-.19.16-1.27-1.03-2.53-2.06-3.82-3.11Z"/>
      <path d="m219.63,21.98c-1.09,1.23-2.14,2.44-3.21,3.65-.04-.03-.08-.04-.11-.07-1.27-1.04-2.73-1.68-4.35-1.95-.95-.16-1.9-.16-2.86-.03-1.47.2-2.82.7-4.03,1.55-1.82,1.28-3.09,2.97-3.77,5.09-.38,1.18-.48,2.39-.41,3.61.06,1.1.34,2.15.78,3.16.77,1.77,1.98,3.18,3.59,4.23,1.01.66,2.12,1.1,3.31,1.32.7.13,1.41.21,2.12.18,2.1-.1,4-.75,5.64-2.1.55-.46,1.06-.96,1.54-1.53,1.25,1.02,2.5,2.03,3.78,3.07-.08.1-.15.18-.22.26-1.24,1.48-2.71,2.67-4.42,3.56-1.53.79-3.15,1.33-4.86,1.52-4.07.46-7.69-.62-10.86-3.18-1.88-1.51-3.24-3.43-4.19-5.64-.55-1.28-.87-2.62-1.04-3.99-.11-.96-.12-1.93-.03-2.89.09-1.02.3-2.02.6-3,.65-2.09,1.73-3.92,3.2-5.54,1.6-1.75,3.53-3,5.75-3.81,1.15-.42,2.33-.67,3.54-.79,1.41-.13,2.81-.06,4.18.24,2.04.44,3.91,1.27,5.59,2.51.24.18.47.36.73.56Z"/>
      <path d="m160.98,47.11c-1.01,0-1.98,0-2.94,0-.94,0-1.88,0-2.82.02-.16,0-.23-.08-.31-.18-.63-.88-1.26-1.77-1.89-2.64-2.18-3.02-4.36-6.03-6.54-9.05-.06-.09-.13-.18-.19-.26-.03,0-.05,0-.06.01-.67.73-1.33,1.47-2,2.2-.46.51-.92,1.01-1.38,1.51-.13.13-.18.27-.17.46,0,2.58,0,5.15,0,7.73,0,.07,0,.13-.01.22h-4.97c0-.05-.02-.11-.02-.17,0-3.03,0-6.06,0-9.08,0-.15.06-.25.16-.36.75-.82,1.5-1.64,2.25-2.46,1.3-1.43,2.6-2.85,3.9-4.28,1.47-1.62,2.94-3.23,4.41-4.85,1.52-1.67,3.04-3.35,4.56-5.03.49-.54.98-1.07,1.46-1.62.11-.12.23-.18.4-.18,1.82,0,3.64,0,5.47,0,.05,0,.1,0,.21,0-3.62,4.11-7.21,8.18-10.82,12.26,1.25,1.74,2.51,3.49,3.76,5.23,1.26,1.75,2.53,3.5,3.79,5.26,1.25,1.74,2.5,3.49,3.76,5.25Z"/>
      <path d="m52.17,42.59h13.78c.07.22.08,4.3.02,4.52h-18.76c0-9.34,0-18.66,0-27.98.18-.05,4.66-.06,4.96,0v23.46Z"/>
      <path d="m181.12,44.93c-.33.32-.64.62-.96.92-.5.46-1.05.85-1.65,1.17-.97.51-2.01.65-3.08.57-1.33-.1-2.53-.57-3.57-1.41-1.11-.9-1.84-2.04-2.07-3.46-.29-1.81.23-3.39,1.52-4.71.55-.57,1.18-1.07,1.8-1.56.07-.05.13-.11.21-.17-.2-.23-.4-.44-.57-.66-.38-.47-.77-.94-1.11-1.44-.47-.69-.78-1.46-.86-2.3-.14-1.39.2-2.64,1.07-3.74.9-1.14,2.08-1.82,3.53-1.97,2.13-.22,4.15.87,5.14,2.77.63,1.22.74,2.49.37,3.8-.24.83-.68,1.55-1.31,2.14-.59.56-1.22,1.06-1.84,1.59-.03.03-.07.05-.1.08.1.2,3.25,3.74,3.6,4.04.04-.03.09-.07.13-.1.38-.36.76-.72,1.14-1.07.06-.06.16-.1.25-.1,1.31,0,2.61,0,3.99,0-.6.62-1.19,1.18-1.76,1.76-.58.58-1.16,1.16-1.75,1.75,1.28,1.43,2.55,2.85,3.86,4.3-.08,0-.12.01-.16.01-1.19,0-2.38,0-3.57,0-.18,0-.3-.05-.42-.19-.55-.63-1.11-1.25-1.67-1.87-.04-.04-.08-.09-.14-.15Zm-5.84-6.48c-.4.34-.79.64-1.16.97-.26.23-.51.48-.73.75-.8.97-.73,2.26-.02,3.21.8,1.08,2.56,1.57,3.89.74.64-.4,1.19-.92,1.74-1.42.01-.01.01-.03.04-.08-1.24-1.37-2.49-2.76-3.76-4.17Zm.35-4.02c.05-.03.08-.04.1-.05.58-.47,1.17-.92,1.73-1.41.24-.21.45-.48.61-.75.29-.48.4-1.02.24-1.58-.54-1.86-2.65-2.32-3.93-1.31-.51.41-.84.94-.85,1.62-.01.53.18,1,.45,1.45.45.75,1.08,1.36,1.66,2.03Z"/>
      <path d="m88.71,47.13h-5.06c0-.11-.01-.21-.01-.3,0-2.52,0-5.03,0-7.55,0-.22-.05-.41-.18-.59-1.34-2-2.68-4-4.02-6-2.17-3.24-4.34-6.48-6.51-9.73-.79-1.18-1.58-2.37-2.37-3.56-.06-.09-.12-.18-.2-.29.06,0,.09-.01.13-.01,1.76,0,3.52,0,5.29,0,.16,0,.26.05.36.18,1.45,2.12,2.9,4.24,4.35,6.36,2.59,3.78,5.18,7.56,7.77,11.35.11.15.21.31.32.46.11.14.15.3.15.48,0,1.09,0,2.18,0,3.28,0,1.89,0,3.77,0,5.66,0,.08,0,.17-.01.27Z"/>
    </g>
  </g>
</svg>