<?xml version="1.0" encoding="UTF-8"?>
<svg id="Ebene_2" data-name="Ebene 2" xmlns="http://www.w3.org/2000/svg" viewBox="0 0 154.56 154.56">
  <defs>
    <style>
      .cls-1 {
        fill: #1d1d1b;
      }

      .cls-2 {
        fill: #fff;
        stroke: #000;
        stroke-miterlimit: 10;
      }
    </style>
  </defs>
  <g id="Ebene_1-2" data-name="Ebene 1">
    <g>
      <g id="Ebene_1-3" data-name="Ebene 1">
        <circle class="cls-2" cx="77.28" cy="77.28" r="76.78"/>
      </g>
      <path class="cls-1" d="m67.52,77.48c-1.84,0-3.68-.74-5.04-2.2-3.03-3.26-11.42-8.15-16.01-10.47-3.39-1.71-4.74-5.84-3.03-9.23,1.71-3.39,5.84-4.74,9.23-3.03,1.44.73,14.2,7.26,19.88,13.38,2.58,2.78,2.42,7.13-.36,9.71-1.32,1.23-3,1.84-4.67,1.84Z"/>
      <path class="cls-1" d="m84.49,61.23c-1.88,0-3.75-.77-5.11-2.28-3.82-4.25-12.55-9.27-15.59-10.85-3.37-1.75-4.68-5.89-2.94-9.26,1.74-3.37,5.89-4.69,9.26-2.94.13.07,3.3,1.71,7.2,4.16,5.44,3.42,9.58,6.68,12.29,9.71,2.54,2.82,2.31,7.17-.52,9.7-1.31,1.18-2.95,1.76-4.59,1.76Z"/>
      <path class="cls-1" d="m118.27,61.98c-3.55-1.35-7.51.44-8.86,3.99-3.67,9.69-9.07,17.59-16.05,23.48-5.59,4.71-12.24,8.21-19.79,10.39-13.25,3.83-24.78,2.28-24.9,2.26h.02s0,.06,0,.06c-.32-.05-.65-.07-.99-.07-3.78,0-6.85,3.06-6.85,6.85,0,3.57,2.73,6.5,6.22,6.82.98.12,3.79.42,7.81.42,5.55,0,13.4-.57,21.94-2.97,9.51-2.67,17.96-7.05,25.11-13.02,8.92-7.44,15.76-17.31,20.32-29.34,1.34-3.55-.44-7.51-3.99-8.86Z"/>
      <g>
        <polygon class="cls-1" points="130 35.72 127.46 40.37 128.46 41.78 133.76 40.85 129.82 43.67 130.74 44.96 136.3 40.98 134.95 39.1 129.39 40.07 132.06 35.18 132.1 35.12 130.75 33.23 125.19 37.21 126.11 38.5 130 35.72"/>
        <path class="cls-1" d="m131.85,47.1l1.75.06,1.78,3.6-1.02,1.43.8,1.62,4.48-6.36-.81-1.63-7.77-.29.78,1.58Zm4.47,2.35l-1.11-2.25,2.67.08-1.56,2.17Z"/>
        <polygon class="cls-1" points="135.7 55.62 136.23 57.12 141.34 55.3 142.39 58.25 143.72 57.78 141.09 50.38 139.75 50.85 140.8 53.81 135.7 55.62"/>
        <path class="cls-1" d="m140.7,59.57c-2.06.43-3.07,2.47-2.52,5.07.67,3.19,2.69,3.34,3.08,3.34.02,0,.03,0,.04,0h.15s-.36-1.71-.36-1.71h-.09c-.11-.02-1.06-.16-1.41-1.83l-.04-.18c-.34-1.61.26-2.86,1.48-3.12,1.23-.26,2.28.65,2.62,2.25l.04.18c.26,1.22-.1,2.01-.55,2.23l-.09.04.36,1.71.14-.06c.23-.09,2.2-.99,1.5-4.32-.55-2.6-2.3-4.06-4.36-3.62Z"/>
        <polygon class="cls-1" points="139.31 71.21 142.05 71.04 142.32 75.64 139.59 75.81 139.68 77.39 146.51 76.98 146.41 75.4 143.74 75.56 143.46 70.96 146.14 70.8 146.04 69.22 139.22 69.63 139.31 71.21"/>
        <path class="cls-1" d="m139.57,79.81l1.47.96-.35,4-1.61.69-.16,1.8,7.13-3.11.16-1.82-6.49-4.29-.15,1.76Zm2.6,4.33l.22-2.5,2.24,1.46-2.46,1.04Z"/>
        <path class="cls-1" d="m143.56,88.72c-1.27-.28-1.99.3-2.67,2.17l-.55,1.53c-.34.96-.65.89-.81.85-.52-.12-.41-1.1-.23-1.91l.04-.18c.27-1.22.79-1.84,1.45-1.76h.11s.37-1.63.37-1.63l-.13-.02c-1.58-.31-2.66.76-3.21,3.2-.26,1.14-.27,2.06-.04,2.72.23.66.7,1.07,1.38,1.22,1.15.26,1.96-.41,2.57-2.1l.53-1.48c.36-1.03.59-1.07.8-1.03.18.04.3.19.35.44.07.31.04.76-.09,1.34l-.04.18c-.24,1.07-.73,1.72-1.3,1.69h-.1s-.38,1.69-.38,1.69l.13.02c.1.01.21.02.31.02,1.29,0,2.28-1.14,2.74-3.2.24-1.09.24-1.98-.02-2.65-.23-.59-.66-.98-1.22-1.11Z"/>
        <path class="cls-1" d="m140.25,96.6c-1.01-.39-2.02-.28-2.92.31-.84.55-1.53,1.48-1.99,2.68-.45,1.18-.56,2.36-.31,3.31.28,1.04.96,1.79,1.96,2.18.4.15.79.23,1.18.23.6,0,1.19-.18,1.74-.54.83-.54,1.53-1.49,1.99-2.67.46-1.2.57-2.35.31-3.32-.28-1.04-.95-1.8-1.96-2.18Zm.36,4.91l-.07.18c-.28.74-.72,1.34-1.23,1.69-.54.37-1.15.44-1.75.21-.6-.23-1-.69-1.16-1.33-.15-.6-.07-1.33.22-2.08l.07-.18c.42-1.1,1.26-2.04,2.3-2.04.22,0,.44.04.68.13.6.23,1,.69,1.15,1.33.14.6.07,1.34-.22,2.08Z"/>
        <polygon class="cls-1" points="132.49 106.32 136.59 108.76 131.31 108.31 130.43 109.79 133.41 114.27 129.24 111.79 128.43 113.16 134.31 116.65 135.5 114.65 132.37 109.95 137.99 110.44 139.18 108.44 133.3 104.96 132.49 106.32"/>
        <polygon class="cls-1" points="122.78 119.99 123.87 120.89 127.47 116.56 128.54 117.45 125.36 121.27 126.45 122.18 129.63 118.35 130.55 119.12 127.01 123.38 128.1 124.29 132.66 118.81 127.4 114.43 122.78 119.99"/>
        <polygon class="cls-1" points="116.16 126.04 118.94 129.92 114.28 127.39 112.88 128.4 113.81 133.69 110.99 129.76 109.7 130.68 113.69 136.24 115.57 134.88 114.59 129.32 119.55 132.02 121.43 130.67 117.44 125.12 116.16 126.04"/>
        <path class="cls-1" d="m107.51,133.54l-3.6,1.79-1.43-1.01-1.62.81,6.37,4.47,1.63-.81.28-7.77-1.58.79-.05,1.75Zm-2.29,2.72l2.25-1.12-.08,2.67-2.17-1.55Z"/>
        <polygon class="cls-1" points="100.87 140.76 99.04 135.66 97.55 136.19 99.38 141.3 96.43 142.35 96.91 143.69 104.3 141.04 103.82 139.7 100.87 140.76"/>
        <path class="cls-1" d="m90.03,138.16c-3.33.71-3.35,2.88-3.34,3.13v.15s1.71-.36,1.71-.36v-.09c.02-.11.16-1.06,1.83-1.42l.18-.04c1.61-.34,2.86.25,3.12,1.48.13.59-.01,1.14-.4,1.61-.4.49-1.04.84-1.85,1.01l-.18.04c-1.22.26-2.01-.1-2.23-.54l-.04-.09-1.71.37.06.14c.08.19.74,1.65,2.97,1.65.4,0,.84-.05,1.35-.15,2.6-.56,4.05-2.31,3.61-4.36-.44-2.05-2.48-3.06-5.08-2.51Z"/>
        <polygon class="cls-1" points="83.47 139.3 83.64 142.03 79.04 142.32 78.87 139.58 77.29 139.68 77.71 146.51 79.29 146.41 79.13 143.73 83.73 143.45 83.89 146.13 85.47 146.03 85.05 139.2 83.47 139.3"/>
        <path class="cls-1" d="m73.91,141.05l-4-.34-.69-1.61-1.8-.15,3.12,7.13,1.82.15,4.28-6.5-1.76-.15-.96,1.47Zm-.87,1.35l-1.45,2.24-1.05-2.45,2.5.21Z"/>
        <path class="cls-1" d="m63.71,137.97c-2.86-.64-3.72.38-3.94,1.35-.26,1.15.41,1.96,2.11,2.56l1.48.52c1.03.36,1.08.59,1.03.8-.09.4-.74.5-1.77.27l-.18-.04c-1.07-.24-1.72-.73-1.7-1.3v-.1s-1.69-.38-1.69-.38l-.02.13c-.19,1.44.97,2.55,3.18,3.04.56.13,1.04.18,1.45.18,1.81,0,2.21-1.05,2.3-1.43.28-1.27-.31-1.99-2.17-2.66l-1.53-.54c-.96-.34-.89-.64-.86-.81.12-.52,1.1-.42,1.91-.24l.18.04c1.22.27,1.84.78,1.76,1.44v.11s1.63.37,1.63.37l.02-.13c.31-1.58-.77-2.66-3.2-3.2Z"/>
        <path class="cls-1" d="m55.08,135.38c-1.18-.45-2.36-.56-3.31-.3-1.04.28-1.79.96-2.18,1.97-.38,1.01-.28,2.02.32,2.92.54.83,1.49,1.53,2.67,1.98.77.29,1.52.44,2.22.44.39,0,.76-.05,1.1-.14,1.04-.28,1.79-.96,2.18-1.97.38-1.01.28-2.02-.32-2.92-.55-.84-1.48-1.53-2.68-1.98Zm1.5,4.33c-.52,1.35-2.08,1.45-3.41.94l-.18-.07c-1.32-.5-2.42-1.62-1.91-2.97.33-.88,1.11-1.23,1.97-1.23.47,0,.96.1,1.43.28l.18.07c1.32.5,2.43,1.62,1.92,2.97Z"/>
        <polygon class="cls-1" points="48.35 132.54 45.92 136.65 46.36 131.37 44.87 130.49 40.4 133.48 42.86 129.3 41.5 128.5 38.02 134.38 40.02 135.56 44.71 132.43 44.24 138.05 46.23 139.23 49.71 133.35 48.35 132.54"/>
        <polygon class="cls-1" points="34.66 122.86 33.76 123.95 38.1 127.55 37.21 128.61 33.38 125.44 32.47 126.53 36.31 129.71 35.54 130.63 31.27 127.09 30.37 128.18 35.86 132.73 40.22 127.47 34.66 122.86"/>
        <polygon class="cls-1" points="24.72 119.04 27.24 114.37 26.23 112.97 20.94 113.92 24.87 111.08 23.94 109.79 18.39 113.79 19.75 115.68 25.31 114.68 22.62 119.65 23.97 121.53 29.52 117.53 28.59 116.24 24.72 119.04"/>
        <path class="cls-1" d="m22.82,107.66l-1.75-.05-1.8-3.59,1.01-1.43-.81-1.62-4.45,6.38.82,1.63,7.77.26-.79-1.58Zm-4.48-2.34l1.12,2.25-2.67-.07,1.55-2.17Z"/>
        <polygon class="cls-1" points="18.95 99.15 18.41 97.66 13.31 99.5 12.25 96.55 10.91 97.03 13.58 104.42 14.91 103.94 13.85 100.99 18.95 99.15"/>
        <path class="cls-1" d="m13.21,95.3c.24,0,.48-.03.72-.08,2.05-.44,3.06-2.49,2.5-5.08-.72-3.33-2.89-3.34-3.13-3.33h-.15s.37,1.71.37,1.71h.09c.11.02,1.06.16,1.42,1.82l.04.18c.17.81.12,1.53-.16,2.1-.27.54-.72.9-1.31,1.02-.59.13-1.14-.01-1.61-.39-.49-.4-.84-1.04-1.02-1.85l-.04-.18c-.26-1.22.1-2.01.54-2.24l.09-.04-.37-1.71-.14.06c-.23.09-2.2,1-1.48,4.32.49,2.29,1.91,3.68,3.65,3.68Z"/>
        <polygon class="cls-1" points="15.27 83.58 12.54 83.76 12.25 79.16 14.98 78.99 14.88 77.4 8.06 77.84 8.16 79.42 10.84 79.25 11.13 83.85 8.45 84.02 8.55 85.6 15.38 85.17 15.27 83.58"/>
        <path class="cls-1" d="m14.98,74.98l-1.47-.95.33-4.01,1.61-.7.15-1.8-7.12,3.13-.15,1.82,6.51,4.26.15-1.76Zm-2.61-4.32l-.21,2.5-2.24-1.45,2.45-1.05Z"/>
        <path class="cls-1" d="m10.96,66.08c1.27.28,1.99-.31,2.66-2.18l.54-1.53c.34-.96.64-.89.8-.86.17.04.28.17.34.4.08.33.05.84-.1,1.51l-.04.18c-.27,1.22-.78,1.84-1.44,1.76h-.11s-.36,1.63-.36,1.63l.13.02c.17.03.34.05.51.05,1.31,0,2.21-1.09,2.69-3.26.63-2.87-.39-3.72-1.36-3.94-1.15-.25-1.96.42-2.56,2.11l-.52,1.49c-.36,1.03-.59,1.08-.79,1.03-.18-.04-.3-.19-.35-.43-.07-.31-.04-.76.08-1.34l.04-.18c.24-1.07.73-1.72,1.29-1.7h.1s.37-1.69.37-1.69l-.13-.02c-1.44-.19-2.55.97-3.04,3.19-.68,3.07.79,3.65,1.26,3.75Z"/>
        <path class="cls-1" d="m14.25,58.19c.39.15.79.22,1.17.22.61,0,1.2-.18,1.74-.55.84-.55,1.52-1.48,1.98-2.69.96-2.54.29-4.74-1.68-5.49-1.96-.74-3.93.46-4.89,3-.46,1.2-.56,2.35-.3,3.32.28,1.04.96,1.79,1.97,2.18Zm.91-6.78c.34-.23.7-.35,1.07-.35.22,0,.45.04.68.13.6.23,1,.69,1.16,1.32.15.6.07,1.33-.21,2.08l-.07.18c-.5,1.33-1.62,2.43-2.97,1.92-1.35-.51-1.45-2.08-.95-3.41l.07-.18c.28-.74.71-1.34,1.22-1.69Z"/>
        <polygon class="cls-1" points="21.97 48.45 17.86 46.03 23.14 46.46 24.02 44.97 21.02 40.5 25.2 42.96 26 41.59 20.11 38.13 18.93 40.13 22.08 44.81 16.45 44.35 15.27 46.35 21.17 49.81 21.97 48.45"/>
        <polygon class="cls-1" points="31.63 34.74 30.53 33.84 26.95 38.19 25.88 37.31 29.05 33.47 27.95 32.56 24.78 36.4 23.86 35.64 27.39 31.37 26.29 30.46 21.76 35.96 27.03 40.31 31.63 34.74"/>
        <polygon class="cls-1" points="38.23 28.66 35.43 24.8 40.1 27.31 41.5 26.3 40.55 21 43.39 24.93 44.67 24 40.66 18.46 38.78 19.82 39.79 25.38 34.82 22.69 32.94 24.06 36.95 29.59 38.23 28.66"/>
        <path class="cls-1" d="m46.85,21.13l3.59-1.8,1.43,1.01,1.62-.81-6.39-4.44-1.63.82-.25,7.78,1.57-.79.05-1.75Zm2.28-2.73l-2.24,1.13.07-2.67,2.18,1.54Z"/>
        <polygon class="cls-1" points="53.46 13.89 55.31 18.99 56.8 18.45 54.95 13.35 57.9 12.28 57.41 10.95 50.03 13.63 50.51 14.96 53.46 13.89"/>
        <path class="cls-1" d="m60.93,16.18c.57.29,1.24.43,1.98.43.45,0,.92-.05,1.4-.16,3.32-.72,3.33-2.89,3.32-3.14v-.15s-1.71.37-1.71.37v.09c-.02.11-.16,1.06-1.82,1.42l-.18.04c-1.6.35-2.86-.24-3.13-1.47-.27-1.22.63-2.28,2.24-2.63l.18-.04c1.22-.26,2.01.09,2.24.53l.04.09,1.71-.37-.06-.14c-.09-.23-1-2.2-4.33-1.48-1.3.28-2.33.85-2.97,1.66-.63.78-.85,1.73-.63,2.72.22,1,.8,1.76,1.7,2.21Z"/>
        <polygon class="cls-1" points="75.02 8.16 75.19 10.84 70.6 11.14 70.42 8.46 68.84 8.57 69.29 15.39 70.87 15.29 70.69 12.55 75.28 12.25 75.46 14.99 77.05 14.88 76.6 8.06 75.02 8.16"/>
        <path class="cls-1" d="m80.42,13.51l4.01.33.7,1.61,1.8.15-3.15-7.11-1.82-.15-4.25,6.51,1.76.14.95-1.47Zm.87-1.35l1.45-2.25,1.06,2.45-2.5-.2Z"/>
        <path class="cls-1" d="m92.11,9.67c-1.09-.24-1.98-.23-2.65.04-.59.23-.98.67-1.1,1.23-.28,1.27.31,1.99,2.18,2.66l1.53.54c.96.34.89.64.86.8-.04.17-.17.28-.4.34-.33.08-.84.05-1.51-.1l-.18-.04c-1.22-.27-1.84-.78-1.76-1.44v-.11s-1.63-.36-1.63-.36l-.02.13c-.3,1.58.78,2.66,3.22,3.19.59.13,1.12.19,1.58.19.44,0,.82-.06,1.14-.17.66-.23,1.06-.7,1.21-1.39.25-1.15-.42-1.96-2.12-2.56l-1.49-.52c-1.04-.36-1.08-.59-1.03-.79.04-.18.18-.3.43-.35.31-.07.76-.05,1.34.08l.18.04c1.07.23,1.72.73,1.7,1.29v.1s1.69.37,1.69.37l.02-.14c.19-1.44-.98-2.55-3.19-3.03Z"/>
        <path class="cls-1" d="m99.28,19.1c.77.29,1.51.43,2.18.43,1.56,0,2.79-.74,3.3-2.12.74-1.97-.47-3.93-3.01-4.89-1.2-.45-2.35-.55-3.32-.29-1.04.28-1.79.96-2.17,1.97-.38,1.01-.27,2.02.33,2.92.56.84,1.49,1.52,2.69,1.97Zm3.98-2.25c-.23.6-.68,1.01-1.32,1.16-.6.15-1.33.08-2.08-.2h0s-.18-.07-.18-.07c-.74-.28-1.35-.71-1.7-1.22-.38-.54-.45-1.14-.23-1.75.23-.6.68-1,1.32-1.16.6-.15,1.34-.07,2.08.21l.18.07c1.32.5,2.43,1.61,1.92,2.96Z"/>
        <polygon class="cls-1" points="111.51 25.13 112.88 25.94 116.33 20.04 114.33 18.86 109.65 22.02 110.11 16.39 108.1 15.22 104.65 21.12 106.02 21.92 108.43 17.8 108.01 23.08 109.5 23.96 113.96 20.95 111.51 25.13"/>
        <polygon class="cls-1" points="118.83 23.78 123.11 27.3 124.01 26.21 118.5 21.68 114.16 26.96 119.74 31.55 120.64 30.46 116.28 26.88 117.17 25.8 121.01 28.97 121.91 27.87 118.07 24.71 118.83 23.78"/>
      </g>
    </g>
  </g>
</svg>