<?xml version="1.0" encoding="UTF-8"?>
<svg id="Ebene_2" data-name="Ebene 2" xmlns="http://www.w3.org/2000/svg" viewBox="0 0 230.74 65.22">
  <defs>
    <style>
      .cls-1 {
        fill: #fefeff;
      }
    </style>
  </defs>
  <g id="Ebene_1-2" data-name="Ebene 1">
    <rect x="0" y="0" width="230.74" height="65.22" rx="32.61" ry="32.61"/>
    <g id="m3ySlr.tif">
      <g>
        <path class="cls-1" d="m72.43,14.74c-1.25-.12-2.8-.57-3.93,0,.11-.08.22-.15.32-.23-3.59-.04-2.89.84-4.29,3.65-1.91,4.12-3.74,8.37-5.59,12.46,0,.05,0,.1,0,.15-2.77-5.01-4.7-10.78-7.38-15.95-2.28-.32-4.74-.53-6.97.08,3.43,7.83,7.45,15.46,10.67,23.37.05,4.06,0,8.12.02,12.17,1.96.58,4.1.24,6.12.21.74-.06.78-.14.78-.83,0-3.76,0-7.51-.02-11.27,1.65-4.96,4.42-9.63,6.49-14.46-.29-.05-.59-.11-.88-.16.29.05.59.11.88.16.06-.16.12-.32.18-.48-.08.02-.16.03-.25.05.09-.02.17-.03.25-.05,1.32-2.67,2.46-5.41,3.8-8.05.49-.22.26-.73-.2-.81Zm-3.4,2.43s-.01-.06-.03-.06c.02,0,.02.04.03.06,0,0,0,0,0,0Zm.4-.04s-.05-.03-.07-.03c.02,0,.04.02.07.03,0,0,0,0,0,0Zm-15.32,14.3s0,0,0,0c0-.02-.01-.06-.03-.06.02,0,.02.04.03.06Zm2.27-1.33s-.04-.02-.07-.03c.02,0,.04.02.07.03,0,0,0,0,0,0Zm-.83-2.05s.05.03.07.03c-.02,0-.04-.02-.07-.03,0,0,0,0,0,0Zm11.97-3.65c-.05.05-.11.11-.16.16.13-.1.2-.24.24-.4l-.08.24Z"/>
        <path class="cls-1" d="m101.15,48.25h0c-1.36-4.48-2.69-8.97-4.05-13.45h0c-.05-.25-.12-.5-.23-.73h0c-.29-1.01-.6-2-.97-2.98-.1.01-.2.03-.3.05.1-.02.2-.04.3-.05-1.27-4.87-2.92-9.61-4.32-14.42-.31-1.12-.4-2.2-1.85-2-1.91-.14-3.85-.13-5.75.15-1.19,3.42-2.07,6.96-3.23,10.39h0c-.54,1.92-1.18,3.86-1.72,5.8l.16.08-.16-.08c-.26.77-.47,1.56-.71,2.33.35,0,.5.03.53.18-.03-.15-.18-.17-.53-.18-.44,1.52-.96,3.05-1.41,4.59h0c-.4,1.19-.73,2.45-1.07,3.66-.02.01-.02.03-.01.05-.79,1.92-1.08,4.04-1.89,5.96.05-.05.09-.11.14-.16h0c-.42.68-.46,1.58-.73,2.34-.26.18-.17.4-.08.63,2.34.28,4.83.43,7.05-.47.41-1.35.7-2.74,1.03-4.11h0c.2-1,.49-1.99.73-2.98,3.39-.48,6.97,0,10.43-.17.82.06.55,1.39.86,1.98.58,1.79.64,3.89,1.54,5.5,2.23.57,4.52.76,6.8.33-.17-.75-.29-1.52-.57-2.25Zm-21.82-14.72s-.01-.06-.03-.06c.02,0,.02.04.03.06,0,0,0,0,0,0Zm16.24-1.63h0c-.01.07-.03.14-.04.21.01-.07.03-.14.04-.21Zm.59,3.61c.05-.09.15-.15.22-.23-.24.34-.78.34-.4.78-.22-.32-.2-.37.18-.55Zm.02-1.24c-.02.13-.04.26-.07.39.04-.19.06-.39.1-.58h0c-.01.06-.02.13-.03.19Zm-12-16.89s-.04-.02-.07-.03c.02,0,.04.02.07.03,0,0,0,0,0,0Zm6.42,15.36s0,0,0,0c.06-.1.12-.19.18-.29-.05.1-.12.19-.18.29Zm-4.19-8.26s0-.03,0-.04c0,.01,0,.03,0,.04Zm.14.24c-.04-.07-.1-.14-.13-.2.03.06.09.14.13.2Zm.08-.85s.04.02.06.03c-.02,0-.04-.02-.06-.03Zm4.35-5.05s-.07,0-.1.01c.19-.02.42-.08.1-.01Zm-5.38,9.79c.06-.22.12-.44.19-.66-.05-.08-.12-.15-.16-.23.04.08.11.15.16.23.29-1.06.54-2.12.78-3.19.09-.27.17-.55.24-.82-.04,0-.08-.02-.11-.03.03.01.07.02.11.03.12-.4.25-.8.32-1.21.08-.35.27-.69.23-1.05-.14.14-.25.24-.32.32.15-.24.51-.35.76-.52-.08.06-.13.1-.18.14,0,.07,0,.14.01.22.11.04.23-.04.34-.05-.09.01-.19.06-.27.07.1.54.22,1.12.41,1.61.06-.01.11-.01.15,0-.04,0-.09,0-.15,0,.02.52.3.97.29,1.5.04.01.07.03.11.04,0,0,0,0,0,0,.17.69.32,1.39.51,2.08.07.02.13.04.2.07-.07-.02-.13-.04-.2-.07,0,.08.01.15.02.23.02,0,.04,0,.06,0,.23,1.35.67,2.68.98,4.03.02,0,.04,0,.06,0,.11.42.21.85.26,1.29.07.04.14.08.21.12,0,0,0,0,0,0t0,0c-.04.19.03.4.02.6h0c.03.17.05.33.08.5.02,0,.04,0,.05,0,.08.32.17.64.25.95,0,0,0,0,0,0,.08.46.17.91.29,1.36.09-.02.17-.03.25-.03-.08,0-.16,0-.25.03l.06.12h.02s-.02.02-.02.02c.07.3.09.64.26.9h.07-.07c-.17.34-.5.08-.74.19-2.49-.05-4.97-.03-7.46-.01,0-.17,0-.33,0-.5-.11,0-.21,0-.32,0,.11,0,.21,0,.32,0,.81-2.75,1.48-5.52,2.2-8.29Zm-2.42-7.93s0,0,0,0c0-.02.03-.05.03-.07,0,.02-.02.04-.03.07Zm1.3-4.19s0,0,0,0c0-.02.03-.05.03-.07,0,.02-.02.04-.03.07Zm-2.07,6.34s-.03.05-.03.07c0-.02.02-.04.03-.07Z"/>
        <path class="cls-1" d="m186.15,32.38c-.03-.86-.09-1.72-.12-2.58-.05,0-.1,0-.15,0,.05,0,.1,0,.15,0,0-.96-.3-1.88-.48-2.82-.13.08-.27.16-.4.24.13-.08.27-.16.4-.24-.18-1.24-.53-2.45-.97-3.62-.02,0-.04,0-.06,0h0s0-.07,0-.11h-.03s.02-.04.02-.04c-.74-1.67-1.67-3.32-2.99-4.61h0c-.19-.19-.38-.38-.58-.57.06.3.15.54.26.84-.33-1.47-1.95-2.22-3.26-2.7-.59-.45-1.6-.94-2.37-.87-.06-.43-.42-.17-.62-.28,0,0,0,0,0,0-3.55-.74-7.36-.62-10.71.85.05.04.09.09.14.13-.05-.04-.09-.09-.14-.13-.97.48-1.92.98-2.76,1.68.11.06.22.11.33.17-.11-.06-.22-.11-.33-.17-.69.47-1.2,1.14-1.75,1.75-.48.3-.67.94-1.01,1.39h0c-.23.43-.65.8-.73,1.29.03.03.06.07.09.1-.03-.03-.06-.07-.09-.1-.72,1.59-1.52,3.3-1.71,5.08-.02,0-.04,0-.06,0-.01.71-.21,1.4-.31,2.1.12.13.29.24.41.38-.11-.14-.28-.24-.41-.38-.28,1.87-.24,3.84-.09,5.72h0c.03.32.06.64.08.97.04,0,.07,0,.1,0-.03,0-.07,0-.1,0,.21,1.49.39,2.98.8,4.43.02,0,.04,0,.06,0,.14.67.46,1.28.71,1.93,1.27,2.84,3.54,5.61,6.45,6.84h0c.06.05.13.1.19.16.86.29,1.72.78,2.65.82-.06,0-.11,0-.17,0,.44.09.94.31,1.38.16,2.23.8,4.62.26,6.89,0h0c.06-.07.11-.15.17-.22.83.06,1.64-.23,2.36-.64.13-.06.27-.12.4-.18-.08-.08-.12-.22-.19-.31.07.09.11.23.19.31,1.71-.73,3.1-1.97,4.37-3.31-.06-.01-.11-.03-.16-.05.04.02.09.04.16.05.44-.54.84-1.1,1.22-1.69-.16-.11-.33-.22-.49-.33.16.11.33.22.49.33.59-1.04,1.08-2.12,1.52-3.23h0c.86-2.77,1.32-5.64,1.26-8.54Zm-11.19,11.48c-.43.31-.93.52-1.4.77h0c-.14-.03-.33-.19-.33.14l-.4.11c-.06.1-.12.2-.18.3.06-.1.12-.2.18-.3-.95.24-1.95.21-2.93.18l-.02-.02h-.02s.02,0,.02,0c.01-.02.02-.04.02-.07-.02.02-.03.04-.05.07-.49-.11-.99-.2-1.47-.34,0-.02,0-.04-.01-.06-.13-.03-.25-.06-.38-.1,0,0,0,0,0,0,0-.02-.01-.05-.02-.07-.41-.21-.85-.37-1.22-.64h0c-.08-.06-.16-.12-.23-.18-.72-.71-1.46-1.45-1.89-2.38h0c-.05-.04-.1-.07-.15-.1,0-.11-.05-.22-.11-.31-.02,0-.04,0-.06,0-.08.11-.1.18-.07.24-.03-.05,0-.13.07-.24-.37-1.06-.7-2.26-1.3-3.12-.01.19.13.27.32.38-.07-.21.18-.49-.15-.64-.09-.67-.26-1.33-.32-2.01-.1.1-.25.2-.33.3.54-.32.28-.91.24-1.43-.13.13-.26.26-.42.43.94-1.06.25-2.86.42-4.22h0c.07-.32.13-.64.11-.96.02,0,.04,0,.06-.01.07-.92.33-1.82.48-2.73h0c.31-.8.47-1.67.91-2.41,0,0,0,0,0,0,.29-.56.6-1.1.98-1.61.45-.36.82-.8,1.21-1.21h0c.19-.11.38-.21.57-.32,1.26-.86,3.1-1.03,4.62-.99,1.29.19,2.54.71,3.55,1.55,0,0,0,0,0,0,.35.34.68.69.91,1.12h0c3.87,5.34,4.29,16.51-1.2,20.91Zm-15.89-21.9s.03-.05.03-.07c0,.02-.02.04-.03.07h0Zm-.06-.03s.02-.04.03-.07h0s-.03.05-.03.07Zm-2.12,15.49s.03-.06.05-.11c-.02.04-.04.07-.05.11h0Zm12.21,7.81c-.05.03-.12.09-.17.13.06-.04.12-.1.17-.13Zm-1.27-.62s.02,0,.03-.01c-.01,0-.02.01-.03.01Zm-5.15-3.94c-.04-.06-.07-.12-.11-.18.04.06.07.13.11.18h0Zm9.09-20.76c0-.1-.04-.19-.12-.26.07.08.11.16.12.26Zm12.36,9.64c-.02.09-.01.19-.03.28.02-.09.02-.19.03-.28Zm.79.1s-.02-.09-.02-.13c0,.04.02.09.02.13h0Zm.41.89h0c.03.18.06.36.09.55-.03-.18-.06-.36-.09-.55Zm-.89-7.11s.03-.02.04-.03c-.01,0-.03.02-.04.03Zm-.24.6c-.03.15-.05.31-.08.46.09.04.19.07.26.13-.07-.06-.17-.09-.26-.13.03-.15.05-.31.08-.46Zm-4.26-5.82s0,0,0,0h-.06c.12.01-.06-.08-.06-.16.03.05.05.11.12.16Zm-5.11-2.93c-.02.07,0,.14.07.2-.07-.07-.09-.13-.07-.2Zm7.04,30.25c0,.05,0,.1.02.14-.02-.04-.03-.09-.02-.14Z"/>
        <path class="cls-1" d="m148.19,49.29c-.1-11.49.11-23-.07-34.48-2.23-.28-4.69-.35-6.91.01.01,11.78.09,23.57.07,35.35,1.21.83,5.53.55,6.92.08-.02-.32-.03-.64,0-.97Zm-2.8-.78s0,0,0,0c0-.02-.01-.06-.03-.06.02,0,.02.04.03.06Zm-2.11.08s0,0,0,0c0-.02-.01-.06-.03-.06.02,0,.02.04.03.06Z"/>
        <path class="cls-1" d="m91.2,15.06c-.08-.08-.17-.15-.25-.23.08.1.15.21.23.31,0-.03.01-.05.02-.08Z"/>
        <path class="cls-1" d="m132.05,44.38c-4.58-.43-9.49,0-14.18-.16h0c1.13-2.46,2.49-4.92,3.64-7.41-.05-.06-.09-.12-.14-.18.05.06.09.12.14.18.4-1.25,1.51-2.3,1.59-3.61.79-.88,1.14-2.1,1.74-3.15-.04-.01-.09-.03-.13-.04.04.01.09.03.13.04.31-.61.62-1.23.92-1.84,0,0,0,0,0,0,2.2-4.34,4.4-8.58,6.52-12.97-8.22-.02-16.44-.02-24.66,0-.75.6-.32,2.66-.35,3.61.07,0,.15,0,.22,0-.07,0-.15,0-.22,0,.01.39-.03.86.16,1.21.13,0,.25,0,.38,0-.13,0-.25,0-.38,0-.13.49.31.49.62.52,4.56-.11,9.15.03,13.7-.04h0c.05.03.11.06.16.1-.82,1.64-1.6,3.27-2.44,4.9.06.14.11.27.17.41-.03.03-.05.05-.08.08.03-.03.05-.05.08-.08-.06-.14-.11-.27-.17-.41-1.69,3.22-3.36,6.56-5,9.75.04-.03.08-.05.11-.08-1.02,1.51-1.69,3.38-2.56,5-1.49,2.88-2.94,6.07-4.53,9.02h0c-.05.09-.1.19-.16.3,8.15.05,16.32.02,24.47,0,.02-.13,0-.21-.06-.26.06.05.08.13.06.26.08,0,.16,0,.24,0,.44-1.69.14-3.42.01-5.14Zm-12.37-16.58s.02-.04.03-.07c0,0,0,0,0,0-.01.02-.03.05-.03.07Zm.23-9.32s.04-.06.06-.09c-.03.04-.05.07-.06.09-.01-.02-.03-.03-.04-.05.01.02.03.03.04.05Zm2.79.74s-.04-.02-.07-.03c.02,0,.04.02.07.03h0Zm-.03.07s0,0,0,0c0,0,0,0,0,0-.01,0-.03,0-.04-.01.01,0,.03,0,.04.01Zm1.49-1.76s-.05-.03-.07-.03c.02,0,.04.02.07.03,0,0,0,0,0,0Zm3.56,0s-.04-.02-.07-.03c.02,0,.04.02.07.03,0,0,0,0,0,0Zm-4.83,3.81c.08-.02.17-.04.22-.09-.05.06-.14.08-.22.09h0Zm.29-3s-.05-.03-.07-.03c.02,0,.04.02.07.03h0Zm1.66,6.62c-.46-.55.22-1.02-.31-1.18.43.12.11.44.15.72.03.18.09.31.16.47Zm2.4-3.66s0,0,0,0c0,.02-.02.04-.03.07,0-.02.02-.04.03-.07Zm-11.52,24.64s-.01-.06-.03-.06c.02,0,.02.04.03.06,0,0,0,0,0,0Zm-.97-.04s-.05-.03-.07-.03c.02,0,.04.02.07.03,0,0,0,0,0,0Zm-1.3-1.81s-.01-.06-.03-.06c.02,0,.02.04.03.06t0,0Zm3.89-7.09s-.01-.06-.03-.06c.02,0,.02.04.03.06h0Zm2.11-.48s-.01-.06-.03-.06c.02,0,.02.04.03.06,0,0,0,0,0,0Zm-.16-5.76s-.05-.03-.07-.03c.02,0,.04.02.07.03,0,0,0,0,0,0Zm-1.3,4.67s-.05-.03-.07-.03c.02,0,.04.02.07.03,0,0,0,0,0,0Zm.55,2.14s.02-.04.03-.07c0,0,0,0,0,0,0,.02-.02.04-.03.07Zm1.4-2.62s-.04-.02-.07-.03c.02,0,.04.02.07.03,0,0,0,0,0,0Zm-7.13,10.4s-.02.04-.03.07c0,0,0,0,0,0,0-.02.03-.05.03-.07Zm-3.29,2.11h0c.19-.02.33-.07.42-.17-.08.1-.23.15-.42.17Zm2.68-4.19c.12.04.25.09.38.14-.22-.09-.4-.18-.62-.06.08-.03.16-.05.24-.08Zm-4.46-26.74h0c-.08-.05-.16-.11-.24-.16.08.05.16.11.24.16Zm14.19,6.12s0,0,0,0c-.22.19-.43.38-.65.56.22-.19.43-.38.65-.56Zm-9.88,18.81c-.12.11-.18.19-.17.25-.01-.06.05-.14.17-.25Z"/>
        <path class="cls-1" d="m112.06,40.03c.1-.16.19-.32.29-.47-.27.05-.32.24-.29.47Z"/>
        <path class="cls-1" d="m90.58,32.78s.01-.02.02-.03c0,0-.01,0-.01,0v.03Z"/>
      </g>
    </g>
  </g>
</svg>