<?xml version="1.0" encoding="UTF-8"?>
<svg id="Ebene_2" data-name="Ebene 2" xmlns="http://www.w3.org/2000/svg" viewBox="0 0 304.57 66.22">
  <defs>
    <style>
      .cls-1 {
        fill: #010101;
      }

      .cls-2 {
        fill: #fff;
        stroke: #000;
        stroke-miterlimit: 10;
      }
    </style>
  </defs>
  <g id="Ebene_1-2" data-name="Ebene 1">
    <rect class="cls-2" x=".5" y=".5" width="303.57" height="65.22" rx="32.61" ry="32.61"/>
    <path class="cls-1" d="m187.53,49.08c0,.2.17.37.37.37h9.17c.2,0,.37-.17.37-.37v-31.83c0-.2-.17-.37-.37-.37h-9.17c-.2,0-.37.17-.37.37v31.83h0Zm-42.82-.39l-13.51-31.27c-.08-.19-.31-.34-.52-.34h-13.59c-.2,0-.44.15-.52.34l-13.51,31.27c-.08.19.02.34.22.34h9.56c.2,0,.43-.15.51-.34l1.95-4.83c.08-.19.31-.34.51-.34h16.16c.2,0,.43.16.5.35l1.83,4.83c.07.19.3.35.5.35h9.66c.2,0,.3-.15.22-.34h0Zm-26.71-11.97l4.46-11.62c.53-1.17,1.04-1.33,1.51-1.33.5,0,1.09.48,1.41,1.38l4.4,11.57h-11.78Zm109.93-20.03h-10.47c-12.66.19-14.6,4.22-14.6,16.02,0,2,0,4,.1,6.01.34,7.86,4.64,10.3,11.82,10.84,2.25.15,7.48.24,7.7.23,0,0,5.9-.09,8.14-.23,7.18-.54,11.48-2.98,11.82-10.84.1-2,.1-4,.1-6.01,0-11.8-1.94-15.83-14.6-16.02Zm4.59,17.38c0,5.37-.34,7.47-6.25,7.62-1.54.09-5.6.09-7.15,0-5.91-.15-6.25-2.25-6.25-7.62v-1.32c0-1.27,0-2.54.15-3.81.59-4.49,3.96-4.25,7.28-4.35,1.22-.02,3.58-.02,4.8,0,3.32.1,6.69-.15,7.28,4.35.15,1.27.15,2.54.15,3.81v1.32h0,0Zm-140.9,2.8c-.27,3.32-1.43,4.7-6.17,4.81-1.54.09-5.6.09-7.15,0-5.91-.15-6.25-2.25-6.25-7.62v-1.32c0-1.27,0-2.54.15-3.81.59-4.49,3.96-4.25,7.28-4.35,1.22-.02,3.58-.02,4.8,0,3.17.09,6.38-.12,7.18,3.76h10.13c-.59-8.46-3.51-11.51-14.47-11.67h-10.47c-12.66.19-14.6,4.22-14.6,16.02,0,2,0,4,.1,6.01.34,7.86,4.64,10.3,11.82,10.84,2.25.15,7.48.24,7.7.23,0,0,5.9-.09,8.14-.23,7.18-.54,11.48-2.98,11.82-10.84.03-.61.05-1.22.06-1.83h-10.06Zm78.74-7.49c-2.2-.02-4.35-.08-6.54-.1l-2.71-.12c-2.25-.11-5.64.7-5.64-2.97,0-2.38,2.3-2.43,4.06-2.52,2.54-.08,2.16-.12,4.7-.1,1.56.01,1.69.01,3.3.07,2.2.11,3.66.66,3.79,3.1l9.72.07c-.03-2.05.13-3.66-.93-5.57-2.32-3.88-6.91-4.59-10.91-4.67l-4.7-.13c-3.76-.03-9.12-.02-12.59.88-5.19,1.28-6.09,4.59-6.13,9.43-.02,2.63.59,4.63,1.69,6.07,1.45,1.9,3.75,2.84,6.6,2.99,5.42.29,6.64.39,12.06.43h1.77c2.15.03,4.59.72,4.57,3.35-.02,2.78-2.22,2.92-4.42,2.96-1.08.02-2.37.02-4.57,0-1.56-.01-1.11-.08-2.67-.07-2.65.02-5.13-.15-5.1-3.12l-9.77-.07v1.48c-.07,7.37,4.78,8.29,10.18,8.67,2.2.16,4.44.18,6.64.2,4.25.03,4.2-.07,8.45-.28,7.52-.53,11.05-1.97,11.11-9.98.06-8.45-4.37-9.95-11.94-10h0Z"/>
  </g>
</svg>