<?xml version="1.0" encoding="UTF-8"?>
<svg id="Ebene_2" data-name="Ebene 2" xmlns="http://www.w3.org/2000/svg" viewBox="0 0 242.66 63.98">
  <defs>
    <style>
      .cls-1 {
        fill: none;
      }

      .cls-2 {
        fill: #fff;
        stroke: #1d1d1b;
        stroke-miterlimit: 10;
      }
    </style>
  </defs>
  <g id="Ebene_1-2" data-name="Ebene 1">
    <rect class="cls-2" x=".5" y=".5" width="241.66" height="62.98" rx="31.49" ry="31.49"/>
    <g>
      <path d="m66.65,40.57c-.06,1.87-.25,3.66-1.06,5.32-1.17,2.41-3.1,3.68-5.78,3.89-1.91.15-3.64-.25-5.07-1.58-1.18-1.09-1.88-2.46-2.28-3.99-.7-2.73-.7-5.45.39-8.09.7-1.69,1.77-3.08,3.49-3.86,3.86-1.75,8.3.21,9.68,4.25.46,1.34.56,2.73.62,4.07Zm-2.57.04s.06,0,.1-.01c-.15-1.04-.22-2.1-.46-3.12-.32-1.34-1-2.48-2.31-3.13-.86-.42-1.77-.52-2.7-.47-.86.05-1.62.34-2.26.91-.75.67-1.18,1.54-1.46,2.48-.46,1.48-.52,3.01-.39,4.54.1,1.26.42,2.47,1.03,3.59.53.98,1.26,1.76,2.38,2.07,1.62.45,4.01.03,5.17-2.28.73-1.45.93-3,.92-4.59Z"/>
      <path d="m48.11,49.53c-.87,0-1.68.02-2.48-.02-.16,0-.37-.19-.47-.34-1.28-2.04-2.55-4.08-3.82-6.12-.22-.35-.38-.81-.7-1.01-.3-.18-.78-.08-1.18-.09-.31-.01-.62,0-.93-.02-.29-.02-.37.08-.36.36.02,1.19.01,2.37.02,3.56,0,1.1,0,2.21.02,3.31,0,.32-.1.4-.41.39-.67-.02-1.35,0-2.06,0v-17.56c2.36.01,4.72-.43,7.06.14,1.46.35,2.68,1.06,3.26,2.53.84,2.12.46,4.47-1.41,6-.38.31-.85.51-1.3.71-.25.11-.27.18-.13.4,1.58,2.49,3.16,4.98,4.74,7.48.05.08.08.16.14.3Zm-9.92-12.56h0c0,.84,0,1.68,0,2.52,0,.19,0,.37.26.36.92,0,1.85.05,2.77-.02.82-.06,1.61-.3,2.16-1.01.42-.53.5-1.16.56-1.8.11-1.29-.54-2.27-1.77-2.66-1.2-.38-2.44-.33-3.67-.25-.23.02-.32.11-.31.36.02.83,0,1.66,0,2.49Z"/>
      <path d="m119.65,40.64c-.04,1.83-.27,3.6-1.08,5.26-1.17,2.37-3.07,3.66-5.72,3.87-1.55.12-3.02-.09-4.33-.96-1.26-.84-2.14-2.02-2.66-3.43-1.19-3.23-1.26-6.48.18-9.65.79-1.74,2.01-3.16,3.92-3.69,2.65-.73,5.15-.43,7.24,1.52,1.33,1.24,1.96,2.86,2.22,4.63.12.82.16,1.65.23,2.47Zm-12.06-.1c0,.32,0,.64,0,.96.04,1.62.48,3.13,1.38,4.49.41.62.96,1.07,1.66,1.35,1.92.77,4.21,0,5.32-1.79.72-1.16.99-2.45,1.09-3.79.13-1.67.05-3.32-.51-4.91-.94-2.67-3.41-3.36-5.63-2.84-1.43.34-2.21,1.41-2.72,2.69-.49,1.23-.65,2.52-.58,3.83Z"/>
      <path d="m160.53,41.48c1.7,2.69,3.38,5.34,5.09,8.05-.93,0-1.76,0-2.6-.01-.11,0-.26-.12-.32-.23-1.47-2.35-2.94-4.7-4.4-7.06-.12-.19-.23-.28-.47-.27-.59.01-1.19,0-1.78-.04-.33-.02-.43.08-.42.41.02,2.22.02,4.43.03,6.65,0,.55,0,.55-.54.55-.55,0-1.09,0-1.64,0-.2,0-.3-.05-.3-.28.02-5.24.03-10.48.04-15.72,0-.41,0-.83-.02-1.24,0-.19.04-.32.27-.32,1.87-.02,3.75-.11,5.62-.05.78.03,1.6.28,2.32.59,1.57.68,2.32,1.97,2.49,3.65.22,2.22-.89,4.28-2.79,5.09-.17.07-.35.13-.58.22Zm-4.89-7.32c0,.4,0,.75,0,1.1,0,1.41,0,2.82,0,4.23,0,.18-.03.37.25.37.94,0,1.88.06,2.8-.02,1.58-.15,2.4-.88,2.64-2.23.06-.35.06-.71.05-1.06-.04-.98-.52-1.69-1.43-2.06-1.39-.56-2.83-.46-4.31-.34Z"/>
      <path d="m71.84,31.96c.44,0,.87,0,1.29,0,1.19-.02,2.38-.09,3.56-.06,3.96.11,6.83,2.73,7.31,6.66.25,2.09.08,4.14-.63,6.13-.88,2.45-2.64,3.93-5.15,4.48-1.05.23-2.14.29-3.21.35-.96.06-1.92,0-2.89.02-.26,0-.32-.09-.32-.33,0-5.65.01-11.29.02-16.94,0-.09.01-.18.03-.32Zm2.4,2.21v13.09c.69.02,1.36.07,2.04.07,2-.02,3.5-.93,4.37-2.72,1.1-2.24,1.18-4.61.57-7-.48-1.88-1.74-3-3.63-3.4-1.1-.23-2.22-.13-3.35-.04Z"/>
      <path d="m135.14,31.96c.48,0,.91,0,1.34,0,1.19-.02,2.38-.09,3.56-.05,3.95.11,6.82,2.76,7.29,6.68.24,1.96.09,3.88-.51,5.76-.87,2.74-2.77,4.36-5.57,4.9-.97.19-1.98.24-2.97.28-.94.05-1.88,0-2.82.02-.28,0-.34-.1-.34-.35.02-.7.02-1.4.02-2.1,0-4.91,0-9.82,0-14.73,0-.12,0-.23,0-.41Zm2.42,15.3c.7.02,1.37.07,2.05.07,2-.02,3.52-.93,4.37-2.72,1.19-2.51,1.26-5.13.31-7.73-.49-1.33-1.54-2.13-2.88-2.55-.81-.25-1.64-.26-2.47-.23-.46.02-.91.05-1.37.08v13.09Z"/>
      <path d="m121.16,24.56c0-.39,0-.75,0-1.12,0-.32-.09-.75.07-.92.16-.17.6-.09.91-.08.31.01.39-.08.39-.4-.02-2.29-.01-4.58-.01-6.87,0-.27,0-.54,0-.85h-1.36c0-.44,0-.84,0-1.23q0-.91.9-.9c1.28,0,2.57,0,3.85,0,.27,0,.36.08.36.34-.01.5-.01,1,0,1.49,0,.2-.05.3-.28.3-.26,0-.62-.04-.76.11-.13.14-.04.49-.04.75,0,.49,0,.97,0,1.46,0,.22.04.33.29.32.75-.01,1.5,0,2.25-.01.09,0,.25-.12.25-.18.02-.8.01-1.61.01-2.44h-1.07c0-.67,0-1.3.01-1.94,0-.07.15-.19.23-.19,1.52-.01,3.04-.01,4.56,0,.08,0,.23.14.23.22.02.56.02,1.11,0,1.67,0,.08-.17.21-.27.22-.32.03-.64.01-.97.01v8.12c.32,0,.62.02.93,0,.26-.02.33.09.33.33,0,.51,0,1.02,0,1.53,0,.09-.12.26-.19.26-1.59.01-3.18.01-4.84.01,0-.67,0-1.31,0-1.94,0-.06.1-.13.17-.18.03-.02.09,0,.14,0,.76,0,.76,0,.76-.76,0-.83,0-1.65,0-2.53-.9,0-1.76,0-2.63,0-.07,0-.18.12-.19.19,0,.96,0,1.92.01,2.88,0,.07.16.18.25.2.26.05.63-.03.76.11.14.17.06.52.06.79,0,.32.02.64-.01.96,0,.1-.15.26-.23.26-1.6.02-3.21.01-4.87.01Z"/>
      <path d="m198.89,41.07v6.21c.73,0,1.44,0,2.15,0,1.79,0,3.59,0,5.38,0,.27,0,.39.06.37.36-.02.53-.01,1.07,0,1.6,0,.23-.08.31-.31.31-3.26,0-6.51,0-9.77,0-.22,0-.32-.06-.32-.3,0-5.69.01-11.39.02-17.08,0-.05.01-.09.02-.16h10.49c0,.66,0,1.32-.01,1.98,0,.06-.15.17-.24.18-.38.02-.76.02-1.14.02-2.2,0-4.4,0-6.62,0v4.8c.14,0,.28,0,.42,0,1.64,0,3.28,0,4.92-.02.35,0,.42.12.4.44-.03.55,0,1.11,0,1.69h-5.75Z"/>
      <path d="m100.75,31.99c0,.63-.01,1.23,0,1.84,0,.28-.1.33-.36.33-2.44,0-4.87,0-7.31,0-.12,0-.23,0-.41,0,0,.16,0,.3,0,.43,0,1.33.01,2.66,0,3.98,0,.3.1.38.38.38,1.68,0,3.35,0,5.03,0,.11,0,.23,0,.36,0v2.12h-.37c-1.68,0-3.35,0-5.03,0-.28,0-.39.05-.39.37.02,1.83.03,3.65.02,5.48,0,.29.08.36.36.36,2.41,0,4.82,0,7.24,0,.31,0,.42.08.41.4-.02.52-.01,1.04,0,1.57,0,.23-.09.3-.32.3-3.24,0-6.49,0-9.73,0-.26,0-.35-.07-.35-.34,0-5.59.01-11.17.01-16.76,0-.14,0-.28,0-.45h10.46Z"/>
      <path d="m110.46,24.56v-2.12c.33,0,.66-.01.99,0,.21,0,.3-.03.3-.27,0-2.55,0-5.1-.01-7.65,0-.06-.01-.11-.02-.21h-1.27c0-.66,0-1.29,0-1.91,0-.27.2-.22.36-.22,1.29,0,2.59,0,3.88,0,.68,0,1.35.03,2.03.05,1.78.06,2.57,1.32,2.78,2.59.13.81.05,1.6-.43,2.28-.24.34-.58.6-.87.89.17.11.38.23.58.39,1.22.97,1.39,2.26,1.02,3.66-.35,1.35-1.25,2.15-2.64,2.35-.63.09-1.28.14-1.91.15-1.58.02-3.16,0-4.78,0Zm4.01-2.12c.29,0,.52,0,.75,0,1.55,0,2-.48,1.86-2.03-.05-.6-.32-.99-.91-1.12-.44-.1-.91-.09-1.37-.13-.24-.02-.34.08-.33.33,0,.96,0,1.91,0,2.94Zm.02-5.38c.55-.04,1.05-.04,1.53-.12.48-.08.72-.42.77-.98.05-.55.06-1.1-.48-1.46-.06-.04-.13-.07-.2-.08-.53-.05-1.07-.1-1.62-.15v2.79Z"/>
      <path d="m177.46,31.97c.85,0,1.67,0,2.48.01.09,0,.21.13.25.23,1.12,3.18,2.23,6.37,3.34,9.55.34.98.69,1.96,1.06,3.03.07-.18.12-.27.15-.38,1.34-3.97,2.68-7.94,4.02-11.9.21-.61.06-.54.75-.54.65,0,1.3,0,2.02,0-.15.43-.27.82-.41,1.2-1.89,5.28-3.78,10.56-5.67,15.85-.27.76-.27.74-1.08.75-.32,0-.46-.12-.57-.41-2.1-5.71-4.21-11.42-6.31-17.12-.03-.07-.03-.16-.05-.26Z"/>
      <path d="m170.24,31.98h2.41c0,.26,0,.51,0,.75,0,5.47.02,10.94.04,16.4,0,.33-.1.41-.4.4-.59-.02-1.19-.01-1.78,0-.25,0-.3-.1-.3-.32,0-5.67.01-11.34.02-17.01,0-.07.01-.14.02-.23Z"/>
      <path d="m151.74,18.12c.52.52,1.04,1.04,1.56,1.56-.5.49-1.01,1-1.54,1.53-.36-.34-.74-.67-1.09-1.04-.22-.22-.45-.31-.76-.31-4.68,0-9.36,0-14.04,0-.18,0-.43.07-.39-.24.01-.09.12-.22.21-.24.16-.04.33,0,.5,0,4.62,0,9.24,0,13.86,0,.22,0,.47-.13.65-.28.38-.3.71-.66,1.04-.96Z"/>
      <path d="m91.56,21.29c-.54-.55-1.03-1.02-1.49-1.51-.06-.06-.05-.28.02-.35.4-.43.82-.82,1.22-1.24.15-.15.24-.09.35.03.29.3.59.58.88.88.2.21.44.29.73.29,4.54-.01,9.08-.01,13.61-.02.12,0,.25-.03.35.01.11.04.19.16.28.24-.09.08-.17.21-.27.23-.22.03-.45,0-.68,0-4.31,0-8.62,0-12.94,0-.5,0-.9.12-1.22.51-.25.31-.54.59-.86.93Z"/>
      <path d="m87.53,21.93c.52-.5,1.01-.98,1.51-1.45.05-.04.21-.03.26.02.5.47.99.95,1.56,1.5-.54.51-1.03.98-1.54,1.43-.05.04-.23.01-.29-.04-.49-.46-.97-.94-1.5-1.46Z"/>
      <path d="m85.3,19.61c.49-.51,1-1.03,1.47-1.51.55.55,1.09,1.07,1.59,1.57-.48.48-.99,1-1.5,1.52-.51-.51-1.03-1.04-1.56-1.57Z"/>
      <path d="m154.09,18.96c-.52-.54-1-1.02-1.46-1.51-.05-.05-.06-.21-.02-.26.45-.51.91-1,1.4-1.53.6.57,1.1,1.05,1.6,1.54.04.04.02.19-.02.24-.47.5-.96.98-1.49,1.52Z"/>
      <path d="m90.74,17.35c-.06.08-.11.14-.16.2-.39.4-.79.78-1.18,1.19-.15.16-.25.15-.4-.01-.38-.41-.78-.8-1.18-1.19-.18-.17-.22-.29,0-.48.4-.35.77-.74,1.14-1.13.17-.18.28-.15.43,0,.4.41.81.81,1.21,1.21.06.06.09.13.15.21Z"/>
      <path d="m154.87,19.66c.52-.52,1.04-1.03,1.53-1.5.49.49,1.01,1.01,1.51,1.51-.49.48-1,.98-1.53,1.5-.48-.48-.99-.99-1.51-1.5Z"/>
      <path d="m152.56,21.92c.47-.48.97-.99,1.48-1.51.52.55,1.02,1.07,1.51,1.59-.45.44-.97.95-1.48,1.46-.47-.48-.98-1-1.5-1.53Z"/>
    </g>
    <rect class="cls-1" x="30.35" y="3.46" width="177.12" height="54.85"/>
  </g>
</svg>