<?xml version="1.0" encoding="UTF-8"?>
<svg id="Ebene_2" data-name="Ebene 2" xmlns="http://www.w3.org/2000/svg" viewBox="0 0 304.57 66.22">
  <defs>
    <style>
      .cls-1 {
        fill: #fff;
        stroke: #000;
        stroke-miterlimit: 10;
      }
    </style>
  </defs>
  <g id="Ebene_1-2" data-name="Ebene 1">
    <rect class="cls-1" x=".5" y=".5" width="303.57" height="65.22" rx="32.61" ry="32.61"/>
    <g>
      <path d="m51.92,23.79c.03.07.06.13.12.26.02-.12.03-.18.03-.25.02-.5.11-.98.24-1.46.17-.62.81-1.24,1.61-1.19.67.04,1.35.09,2.02.13,1.45.08,2.9.16,4.35.22,3.09.14,6.18.14,9.27.09,1.35-.02,2.7-.09,4.04-.14.87-.04,1.74-.08,2.61-.13.65-.04,1.31-.09,1.96-.14.35-.02.69-.07,1.03.04.57.18.96.56,1.1,1.13.38,1.55.44,3.1.06,4.66,0,.02,0,.04-.01.05-.16.59-.34.71-.95.61-.37-.06-.73-.05-1.08.06-.84.26-1.68.52-2.51.8-.95.32-1.92.56-2.93.61-1.03.06-2.06-.02-3.06-.29-.68-.18-1.38-.28-2.07-.35-.41-.04-.82-.09-1.23-.09-.43,0-.86.02-1.29.06-.97.08-1.92.26-2.88.49-1.21.28-2.43.28-3.66.08-.86-.14-1.69-.42-2.51-.7-.62-.21-1.25-.4-1.87-.6-.41-.13-.83-.14-1.25-.05-.41.09-.65-.06-.76-.45-.13-.43-.22-.87-.22-1.32,0-.07,0-.14-.04-.21-.04.11-.08.22-.12.33,0-.75,0-1.5,0-2.24Z"/>
      <path d="m51.92,32.04s.07.1.12.17c.04-.35.06-.67.11-.99.04-.27.09-.54.16-.8.22-.74.95-1.16,1.7-.96.74.21,1.47.45,2.19.7.8.27,1.61.49,2.45.62.28.04.56.06.84.07,1.38.08,2.72-.07,4.07-.39,1.49-.36,3-.45,4.52-.18.58.1,1.15.25,1.73.35.56.1,1.13.19,1.7.22.8.05,1.61.05,2.41-.07.82-.12,1.61-.33,2.4-.59.72-.24,1.44-.48,2.16-.7.21-.06.45-.11.66-.07.61.09,1.02.46,1.18,1.05.19.72.28,1.45.3,2.19.02.83-.02,1.66-.24,2.48-.03.12-.06.24-.11.35-.11.25-.38.4-.64.34-.54-.13-1.06-.06-1.58.1-.87.27-1.73.56-2.59.84-1.47.48-2.97.61-4.49.42-.51-.07-1.01-.19-1.51-.29-1.42-.3-2.85-.45-4.3-.31-.82.08-1.64.2-2.44.4-2,.49-3.95.36-5.89-.32-.81-.29-1.64-.53-2.46-.78-.44-.14-.88-.16-1.33-.07-.36.07-.61-.07-.72-.41-.13-.41-.23-.83-.24-1.26,0-.11,0-.22-.05-.33-.04.1-.07.2-.11.3,0-.69,0-1.38,0-2.08Z"/>
      <path d="m51.92,40.12c.04.05.07.1.13.19.01-.06.03-.1.03-.13-.01-.49.08-.97.19-1.44.21-.92.99-1.38,1.89-1.11.68.21,1.35.44,2.03.66.97.33,1.96.59,2.98.68.92.08,1.84.08,2.75-.06.66-.1,1.32-.27,1.98-.39,1.35-.25,2.71-.35,4.08-.11.75.13,1.49.29,2.23.42,1.7.29,3.4.27,5.07-.2.83-.23,1.64-.52,2.46-.78.28-.09.55-.19.83-.25.85-.2,1.56.24,1.77,1.08.23.91.31,1.84.28,2.78-.02.68-.09,1.34-.29,1.99-.13.44-.34.57-.79.49-.46-.08-.92-.06-1.36.09-.8.25-1.61.5-2.4.78-1.48.52-3,.7-4.56.55-.68-.07-1.34-.24-2.01-.38-1.09-.22-2.18-.35-3.29-.3-1.11.05-2.19.22-3.28.47-1.63.38-3.27.39-4.89-.07-.86-.24-1.71-.55-2.57-.82-.21-.07-.43-.14-.64-.2-.49-.15-.99-.2-1.5-.1-.38.08-.61-.07-.72-.44-.13-.43-.23-.87-.22-1.32,0-.09,0-.18-.03-.27-.04.11-.08.22-.13.33,0-.71,0-1.42,0-2.13Z"/>
      <path d="m231.56,12.46s.06.09.1.1c1.53.25,2.65,1.52,2.85,2.93.29,2.03-1.15,3.76-3.09,3.99-1.48.18-3.36-.69-3.83-2.79-.37-1.69.67-3.75,2.79-4.13.06-.01.2.05.16-.11.34,0,.67,0,1.01,0Z"/>
      <path d="m128.12,33.03c0-.1.01-.17.01-.25,0-.44,0-.88,0-1.32,0-.49-.07-.97-.25-1.43-.46-1.16-1.35-1.81-2.53-2.08-.36-.08-.74-.11-1.11-.11-3.65,0-7.29,0-10.94-.01-.36,0-.73,0-1.12,0,0,.12-.01.22-.01.31,0,1.24,0,2.49,0,3.73,0,3.82,0,7.63,0,11.45,0,1.12-.81,2-1.92,2.11-1.03.1-2.05-.71-2.19-1.73-.02-.17-.04-.34-.04-.5,0-4.42,0-8.85,0-13.27,0-.61,0-1.22,0-1.82,0-.08,0-.16-.02-.29-.27,0-.53,0-.79,0-.31,0-.59-.06-.87-.2-1.02-.49-1.29-1.88-.53-2.71.37-.41.82-.61,1.37-.61.27,0,.54,0,.84,0,0-.28,0-.52,0-.76,0-1.77,0-3.54,0-5.3,0-.39.06-.76.23-1.12.68-1.4,2.56-1.56,3.48-.37.3.38.45.81.45,1.3,0,1.96,0,3.93,0,5.89,0,.1,0,.2,0,.34.13,0,.25.02.37.02,2.24,0,4.48,0,6.72.01,1.72,0,3.43-.01,5.15,0,2.42.03,4.48.91,6.1,2.71,1.03,1.14,1.64,2.47,1.78,4.01.01.13.01.26.01.39,0,3.97,0,7.93,0,11.9,0,.48-.13.91-.42,1.28-.52.68-1.22.97-2.05.79-.85-.18-1.4-.73-1.62-1.57-.03-.13-.05-.26-.08-.42-.08.06-.14.1-.2.16-1.13,1.05-2.49,1.63-4,1.8-1.41.17-2.81.1-4.18-.32-1.4-.43-2.5-1.26-3.23-2.54-.92-1.64-1.12-3.38-.6-5.18.43-1.46,1.39-2.52,2.74-3.23.9-.47,1.86-.75,2.87-.84.63-.06,1.27-.09,1.91-.11,1.5-.05,3-.08,4.5-.12.05,0,.11,0,.2-.02Zm0,3.5c-.17,0-.31,0-.45,0-1.53.04-3.05.08-4.58.13-.67.02-1.33.09-1.96.32-1.02.36-1.64,1.05-1.74,2.15-.09,1.05.32,1.93,1.29,2.41.18.09.36.16.55.22.97.29,1.96.34,2.95.16,1.62-.29,2.78-1.2,3.45-2.71.37-.83.46-1.73.5-2.67Z"/>
      <path d="m202.23,24.3c0-.3,0-.57,0-.84,0-1.77,0-3.54-.02-5.3-.01-.95.64-1.77,1.34-2.02,1.53-.56,2.81.69,2.81,1.92,0,1.98,0,3.97,0,5.95,0,.09,0,.18,0,.31.14,0,.26,0,.38,0,.29,0,.59-.01.87.04.78.14,1.34.81,1.41,1.61.06.78-.4,1.52-1.15,1.77-.25.08-.53.09-.8.11-.22.02-.44,0-.7,0,0,.15,0,.27,0,.39,0,4.95,0,9.9,0,14.84,0,.27,0,.55-.06.81-.29,1.3-2.02,2.07-3.23,1.13-.55-.43-.85-.98-.85-1.69,0-1.79,0-3.57,0-5.36,0-2.75,0-5.5,0-8.25,0-.61,0-1.21,0-1.84-.09,0-.16-.02-.23-.02-2.14,0-4.27,0-6.41,0-1.16,0-2.32,0-3.49.02-.59,0-1.18.02-1.77.06-.49.03-.96.16-1.41.36-.26.12-.52.27-.74.45-.83.71-1,1.63-.64,2.62.24.64.77,1,1.41,1.19.53.16,1.08.21,1.63.26,1.04.1,2.09.18,3.13.29,1.12.12,2.22.37,3.23.9,1.54.81,2.37,2.1,2.61,3.79.12.86.12,1.72-.08,2.57-.36,1.56-1.26,2.75-2.6,3.62-.8.52-1.69.83-2.61,1.07-1.37.35-2.77.42-4.18.36-1.2-.06-2.36-.25-3.5-.63-.95-.32-1.82-.8-2.63-1.37-.77-.54-.95-1.59-.43-2.37.51-.78,1.54-1.03,2.35-.56.28.16.54.34.81.5.9.53,1.86.93,2.89,1.12,1.34.24,2.67.18,3.96-.3.82-.31,1.47-.83,1.84-1.64.33-.72.33-1.45.04-2.18-.17-.42-.5-.7-.87-.92-.4-.24-.84-.36-1.3-.41-.81-.09-1.62-.15-2.43-.24-1-.11-2-.14-2.98-.38-.71-.17-1.38-.42-2.01-.77-1.18-.66-1.92-1.66-2.25-2.95-.38-1.48-.27-2.93.44-4.31.44-.86,1.09-1.53,1.88-2.08,1-.69,2.11-1.14,3.3-1.35.65-.11,1.32-.2,1.98-.21,2.49-.03,4.99-.03,7.48-.04,1.12,0,2.25,0,3.37,0,.05,0,.11,0,.21-.01Z"/>
      <path d="m138.93,43.35c0,.14,0,.23,0,.32,0,2.67,0,5.33,0,8,0,1.26-1.08,2.22-2.3,2.09-1.04-.11-1.88-1.01-1.9-2.07,0-.77.01-1.53.01-2.3-.01-3.19-.03-6.38-.05-9.57,0-1.69-.03-3.38-.01-5.08.03-2.55.9-4.79,2.56-6.73,1.71-2,3.89-3.19,6.49-3.59,1.81-.28,3.59-.09,5.3.57,1.39.53,2.62,1.31,3.68,2.37,1.75,1.74,2.78,3.84,3.08,6.28.24,1.95-.06,3.82-.88,5.61-.77,1.67-1.89,3.08-3.39,4.15-1.44,1.03-3.03,1.69-4.8,1.93-2.13.29-4.16-.05-6.09-.98-.49-.24-.94-.54-1.4-.82-.09-.05-.17-.11-.29-.19Zm12.98-8.4c.11-3.62-2.71-6.63-6.36-6.76-3.7-.13-6.67,2.71-6.84,6.25-.18,3.73,2.69,6.74,6.26,6.91,3.67.18,6.81-2.59,6.93-6.4Z"/>
      <path d="m95.52,45.48c-2.3-.03-4.49-.48-6.55-1.51-.51-.25-1.02-.52-1.5-.82-1.16-.72-1.24-2.41-.18-3.23.77-.6,1.69-.55,2.38-.09,1.08.73,2.26,1.24,3.55,1.5,1.02.2,2.05.23,3.08.19.79-.03,1.57-.15,2.32-.39.46-.14.89-.35,1.29-.61,1.06-.7,1.59-1.71,1.73-2.94.08-.68.02-1.36-.16-2.03-.22-.81-.72-1.41-1.41-1.86-.61-.39-1.28-.63-1.98-.75-.73-.12-1.46-.23-2.19-.34-1.36-.2-2.73-.33-4.06-.73-1.12-.34-2.14-.86-3.05-1.57-1.17-.91-1.9-2.11-2.24-3.54-.37-1.57-.39-3.16.04-4.72.46-1.68,1.35-3.1,2.77-4.14,1.1-.81,2.33-1.35,3.67-1.64,1.51-.33,3.03-.36,4.56-.24,1.4.11,2.73.46,4,1.05.44.21.89.4,1.31.63.73.4,1.11,1.17,1,2.01-.09.78-.69,1.46-1.47,1.67-.55.14-1.07.07-1.56-.23-.97-.61-2.01-1.03-3.15-1.21-1.28-.2-2.56-.23-3.82.08-1.15.28-2.07.89-2.71,1.9-.32.51-.49,1.07-.57,1.66-.09.69-.07,1.38.13,2.06.15.53.45.96.85,1.33.65.58,1.39.98,2.25,1.14.76.14,1.53.27,2.3.39,1.23.21,2.46.38,3.68.63,1.13.22,2.2.63,3.15,1.3,1.41.99,2.22,2.35,2.56,4.01.26,1.3.33,2.62.12,3.93-.36,2.28-1.47,4.09-3.44,5.35-1.35.87-2.83,1.35-4.41,1.56-.75.1-1.51.14-2.27.2Z"/>
      <path d="m213.47,36.08c0,.54.03,1.03.11,1.52.11.66.34,1.28.65,1.87.66,1.22,1.68,1.97,3.02,2.27,1.31.29,2.61.22,3.88-.22.64-.22,1.22-.57,1.74-1.01.98-.84,2.34-.46,2.85.63.32.69.15,1.53-.43,2.06-.99.89-2.11,1.55-3.41,1.87-1.32.32-2.66.44-4.01.36-.99-.06-1.95-.23-2.89-.55-1.59-.55-2.88-1.49-3.83-2.89-.8-1.18-1.27-2.49-1.52-3.89-.23-1.27-.31-2.54-.27-3.83.05-1.54.29-3.05.83-4.5.46-1.21,1.12-2.31,2.05-3.22,1.04-1.01,2.27-1.67,3.69-1.98,1.86-.41,3.71-.35,5.5.33,2.01.76,3.46,2.15,4.38,4.09.61,1.27.94,2.62,1.02,4.02.03.44.05.88,0,1.31-.13,1.12-.76,1.69-1.89,1.75-.22.01-.45,0-.67,0-3.48,0-6.95,0-10.43,0-.11,0-.22,0-.37,0Zm9.31-3.09c-.02-.24-.04-.46-.05-.68-.07-.96-.32-1.86-.82-2.68-.52-.85-1.25-1.45-2.2-1.79-.66-.23-1.34-.28-2.02-.23-.99.07-1.88.41-2.62,1.09-.56.51-.94,1.13-1.21,1.83-.3.79-.36,1.61-.38,2.46h9.3Z"/>
      <path d="m161.14,36.08c-.02.96.12,1.85.44,2.71.21.58.52,1.09.93,1.56.67.75,1.5,1.19,2.47,1.4,1.46.32,2.89.17,4.26-.41.47-.2.89-.47,1.27-.82,1.02-.91,2.65-.42,2.97.91.15.63.02,1.22-.45,1.68-.71.71-1.55,1.24-2.48,1.61-1.01.41-2.06.6-3.14.68-1.02.08-2.04.04-3.05-.12-2.14-.33-3.96-1.24-5.31-2.97-.8-1.02-1.28-2.19-1.59-3.44-.34-1.35-.46-2.73-.45-4.11.01-1.44.16-2.87.59-4.26.36-1.16.85-2.26,1.61-3.22,1.24-1.55,2.86-2.48,4.81-2.82,1.43-.25,2.86-.22,4.26.16,1.19.32,2.26.88,3.2,1.69,1.21,1.04,1.96,2.37,2.47,3.85.41,1.19.59,2.41.58,3.67,0,.31-.04.64-.12.94-.18.7-.75,1.16-1.47,1.24-.31.03-.62.06-.93.06-3.55,0-7.1,0-10.66,0-.06,0-.13,0-.22,0Zm9.29-3.04c-.03-1.09-.2-2.11-.69-3.07-.47-.92-1.18-1.59-2.13-1.99-.91-.39-1.87-.45-2.84-.25-1.35.27-2.35,1.02-2.99,2.23-.41.77-.61,1.6-.64,2.47,0,.2,0,.4,0,.6h9.28Z"/>
      <path d="m235.86,37.63c0-1.55.02-3.11,0-4.66-.03-2.18.68-4.09,2.07-5.76.46-.56,1.01-1.03,1.61-1.44,1.14-.77,2.4-1.27,3.78-1.41,2.31-.24,4.39.36,6.19,1.83,1.78,1.44,2.79,3.32,3.08,5.58.05.36.06.73.06,1.09,0,3.47,0,6.94,0,10.41,0,.49-.11.94-.39,1.35-.49.69-1.37,1.01-2.21.79-.83-.22-1.42-.92-1.5-1.77-.02-.24-.03-.49-.04-.73,0-3.39-.02-6.77,0-10.16.02-1.99-1.4-3.8-3.37-4.22-1.36-.29-2.59.02-3.65.92-.8.68-1.28,1.55-1.47,2.58-.04.23-.04.47-.04.7,0,3.48,0,6.96,0,10.44,0,1.1-.73,1.98-1.78,2.12-1.42.18-2.36-.96-2.35-2.12.01-1.79,0-3.57,0-5.36,0-.07,0-.13,0-.2h0Z"/>
      <path d="m180.96,30.75c0,4.11,0,8.23,0,12.34,0,.22,0,.45-.04.67-.17.92-1.03,1.64-1.96,1.68-.96.04-1.85-.61-2.09-1.55-.05-.21-.07-.43-.07-.64,0-8.32,0-16.65,0-24.97,0-.45.06-.87.3-1.27.81-1.34,2.72-1.35,3.56,0,.19.3.3.62.31.98,0,.1,0,.21,0,.31,0,4.15,0,8.3,0,12.46Z"/>
      <path d="m233.16,34.88c0,2.74,0,5.48,0,8.22,0,.28,0,.57-.08.83-.25.94-1.18,1.58-2.14,1.51-1-.08-1.79-.83-1.91-1.83-.02-.14-.03-.28-.03-.42,0-5.52,0-11.04,0-16.55,0-.48.06-.93.32-1.34.47-.74,1.38-1.13,2.21-.92.95.24,1.56.95,1.61,1.88,0,.16,0,.32,0,.48,0,2.71,0,5.42,0,8.14Z"/>
      <path d="m55.02,19.52c.06-.15.08-.24.12-.32.36-.82.98-1.37,1.78-1.75.84-.39,1.73-.62,2.62-.84,1.03-.26,2.08-.39,3.13-.51,1.44-.16,2.88-.1,4.33-.12,1.35-.02,2.7.05,4.04.24,1.48.21,2.93.54,4.33,1.07.49.18.93.44,1.32.79.42.37.71.84.93,1.4-1.9.17-3.77.26-5.65.31-1.87.05-3.75.08-5.62.08-1.88,0-3.77-.02-5.65-.08-1.87-.06-3.74-.18-5.68-.28Z"/>
    </g>
  </g>
</svg>