<?xml version="1.0" encoding="UTF-8"?>
<svg id="Ebene_2" data-name="Ebene 2" xmlns="http://www.w3.org/2000/svg" viewBox="0 0 242.13 66.22">
  <defs>
    <style>
      .cls-1 {
        fill: #010101;
      }

      .cls-2 {
        fill: #fff;
        stroke: #000;
        stroke-miterlimit: 10;
      }
    </style>
  </defs>
  <g id="Ebene_1-2" data-name="Ebene 1">
    <rect class="cls-2" x=".5" y=".5" width="241.13" height="65.22" rx="32.61" ry="32.61"/>
    <g>
      <path class="cls-1" d="m98.2,20.23c.61,1.42.92,2.97,1.06,4.58h-4.47c-.19-2.66-1.61-5.39-4.22-6.5-3.64-1.47-8.75-1.28-11.91,1.08-1.8,1.42-2.58,3.44-2.28,5.75.19,1.39,1.11,2.72,2.42,3.39,1.44.78,3.1,1.06,4.76,1.22v4.55c-4.03-.61-8.65-1.08-10.62-5.33-1.83-3.61-1-8.47,1.56-11.47,3.33-3.61,8.08-4.08,12.94-3.92,4.39.28,8.97,2.28,10.77,6.64Zm-55.98-6.03h27.35v4.39h-27.35v-4.39Zm59.84,0h4.55v37.38h-4.55V14.21Zm17.22.03c3.71,0,7.75,1.92,9.05,5.69,1.44,3.78,1.03,8.78-1.86,11.75-2.78,2.86-6.75,2.83-10.72,2.83h-5.03v-4.37h8.44c1.81,0,3.86-.68,4.78-2.57.81-2.03.86-4.94-.25-6.86-1.28-1.8-3.28-2.11-5.39-2.11h-7.58v-4.39l8.55.03Zm11.52-.03h4.5v37.38h-4.5V14.21Zm21.38.03c3.5,0,7.08,1.5,8.72,4.94,1.72,3.5,1.5,8.66-.89,11.77-2.14,2.75-5.3,3.55-8.58,3.55h-11.52v-4.37h12.13c1.76,0,3.86-.71,4.78-2.54.92-2.39,1.03-5.94-1.08-7.8-1.83-1.36-4.15-1.19-6.69-1.19h-9.14v-4.39l12.27.03Zm12.58-.03h4.53v37.38h-4.53V14.21Zm6.86,0h30.3v4.39h-30.3v-4.39Zm12.38,8.11h4.53v29.27h-4.53v-29.27Zm-141.79,7.8h27.35v4.39h-27.35v-4.39Z"/>
      <path class="cls-1" d="m99,35.98c1.83,3.53,1.33,8.64-1.14,11.69-4.53,5.36-12.55,5.97-18.86,3.86-4.11-1.28-7.83-5.5-8.08-9.86-.08-.75-.17-1.53-.2-2.28h4.72c-.03,2.92.69,5.75,3.33,7.39,3.92,2.5,10.33,2.8,14.16-.11,2.22-1.72,3.05-4.3,2.64-7.05-.22-1.83-1.86-3.5-3.58-4.03-1.36-.44-2.81-.67-4.3-.78v-4.55c4.31.61,9.19,1.19,11.3,5.72h0Zm64.73,15.61h-5.11l-8.36-13.27h5.22l8.25,13.27Zm-121.52-4.39h27.35v4.39h-27.35v-4.39Z"/>
    </g>
  </g>
</svg>