<?xml version="1.0" encoding="UTF-8"?>
<svg id="Ebene_2" data-name="Ebene 2" xmlns="http://www.w3.org/2000/svg" viewBox="0 0 218.98 63.98">
  <defs>
    <style>
      .cls-1 {
        fill: #1d1d1b;
      }

      .cls-2 {
        fill: #fff;
        stroke: #1d1d1b;
        stroke-miterlimit: 10;
      }
    </style>
  </defs>
  <g id="Ebene_1-2" data-name="Ebene 1">
    <rect class="cls-2" x=".5" y=".5" width="217.98" height="62.98" rx="31.49" ry="31.49"/>
    <g>
      <g>
        <path class="cls-1" d="m53.17,32.05c-.91,2.08-2.72,6.12-4.22,11.87-.54-.09-1-.27-1.86-.27s-1.41.18-1.99.27c4.03-8.78,10.74-23.56,13.95-31.72.37.05.64.14,1.14.14.4,0,.64-.05,1-.14,3.49,9.52,13.5,31.54,13.59,31.72-.77-.14-1.54-.27-2.68-.27s-2.04.13-2.9.27c-1.59-5.43-3.44-9.37-4.58-11.87h-11.46Zm5.67-13.51l-4.76,11.24h9.66l-4.89-11.24Z"/>
        <path class="cls-1" d="m82.07,32.91c0,1.27,0,3.85,1.22,5.93,2.09,3.41,5.03,3.54,6.34,3.54,4.44,0,6.52-2.71,7.21-3.66l.55.13c-.28,1.27-.28,2-.32,2.72-1.99,1.91-4.76,2.95-8.43,2.95-6.89,0-11.1-4.35-11.1-11.33,0-6.25,3.44-11.51,10.88-11.51,10.1,0,9.96,8.79,9.92,11.24h-16.27Zm11.74-1.91c0-1.49,0-7.52-5.44-7.52-3.94,0-5.85,2.99-6.26,7.52h11.69Z"/>
        <path class="cls-1" d="m115.6,26.92c-.18-.67-.45-1.81-1.76-2.71-.95-.68-2.22-.77-2.94-.77-2.76,0-4.21,1.45-4.21,3.4,0,2.63,2.68,3.58,4.26,3.99,4.03,1.04,7.3,1.91,7.3,6.44,0,3.44-2.41,7.29-8.7,7.29-3.67,0-6.2-1.54-6.7-1.9.59-1.1.95-3.04,1.04-3.63l.54-.14c.32.77.77,1.99,2.45,2.99,1.13.68,2.31.86,3.31.86,2.36,0,4.58-1.13,4.58-3.71s-1.54-3.08-6.3-4.62c-1.95-.64-5.17-2.04-5.17-6.03,0-2.58,1.59-6.75,7.84-6.75,3.13,0,4.93.95,5.98,1.49-.45,1.18-.77,2.27-.91,3.81h-.59Z"/>
        <path class="cls-1" d="m146.19,32.81c0,7.21-4.98,11.74-11.87,11.74-4.81,0-11.52-2.18-11.52-11.47,0-7.06,4.71-11.46,11.52-11.46,8.6,0,11.87,5.66,11.87,11.19Zm-18.76.14c0,6.3,2.76,9.79,6.93,9.79s7.21-3.76,7.21-9.74c0-3.53-1.09-9.56-6.98-9.56-7.16,0-7.16,8.15-7.16,9.52Z"/>
        <path class="cls-1" d="m163.55,44.6c-4.26,0-6.66-2.35-7.39-4.21,0,7.11-.05,11.24.23,15.4-.68-.18-1.27-.27-2.36-.27s-1.72.09-2.44.27c.36-5.89.5-11.82.5-17.71,0-4.12-.09-9.7-.23-16.27.63.14,1.36.27,2.22.27.81,0,1.59-.13,2.22-.27-.18,2.49-.18,3.17-.18,4.12.73-1.18,2.67-4.35,7.7-4.35,4.53,0,10.07,3.31,10.07,11.37,0,7.16-4.4,11.64-10.33,11.64Zm-5.62-18.4c-.91,1.13-1.86,2.76-1.86,7.25,0,3.99.91,5.49,1.86,6.61,1.17,1.41,2.72,2.22,4.8,2.22,6.48,0,6.48-7.66,6.48-9.11,0-6.84-3.26-9.33-6.21-9.33-2.45,0-4.03,1.04-5.07,2.35Z"/>
      </g>
      <polygon class="cls-1" points="94.87 17.42 82.34 17.42 82.34 16.01 94.87 16.01 94.87 17.42 94.87 17.42"/>
    </g>
  </g>
</svg>