<?xml version="1.0" encoding="UTF-8"?>
<svg id="Ebene_2" data-name="Ebene 2" xmlns="http://www.w3.org/2000/svg" viewBox="0 0 304.57 66.22">
  <defs>
    <style>
      .cls-1 {
        fill: #010101;
      }

      .cls-2 {
        fill: #fff;
        stroke: #000;
        stroke-miterlimit: 10;
      }
    </style>
  </defs>
  <g id="Ebene_1-2" data-name="Ebene 1">
    <rect class="cls-2" x=".5" y=".5" width="303.57" height="65.22" rx="32.61" ry="32.61"/>
    <path class="cls-1" d="m254.22,33.24c0-9.62-8.74-17.09-19.46-17.09s-19.51,7.12-19.51,16.56c0,8.91,7.17,16.05,16.82,17.18v-5.39c-6.31-1.04-11.09-5.76-11.09-11.43,0-6.44,6.14-11.66,13.71-11.66s13.71,5.23,13.71,11.66c0,5.63-4.7,10.32-10.94,11.41v5.4c9.27-1.13,16.77-8,16.77-16.64m-61.84,11.59c-5.95,0-11.03-3.22-12.91-7.74h-6.1c2.02,7.78,9.94,12.97,19.35,12.97,2.18,0,4.7-.21,6.78-.74,4.71-1.16,9.86-4.23,9.86-9.06v-8.58h-17.04l-.02,5.4h11.61v2.45c0,2.71-4.04,4.27-6.52,4.82-1.33.3-3.04.47-4.42.47h-.59m11.54-18.8c-2.58-2.68-6.57-4.4-11.04-4.4-7.13,0-13.03,4.38-13.97,10.06h-5.97c.78-8.82,9.81-15.32,20.02-15.32,6.08,0,11.53,2.26,15.2,5.9l-4.24,3.76m-64.11-8.95h-5.52v32.26h5.43v-24.11l22.24,24.11h4.04v-3.92l-26.19-28.34m26.19,0h-5.43v15.67l5.43,5.45v-21.11m-47.66,22.26l5.01,10h6.53l-16.37-32.26h-5.89s8.2,17.12,8.2,17.12h-10.89l2.85-5.58-2.96-6.06-13.8,26.78h6.1l5.16-10h16.08m-62.53-22.26h-5.47v32.26h5.42v-22.18l12.32,19.69,3.14-5.02-15.41-24.75m15.18,15.14l3.12,4.95,6.28-10.01v22.18h5.41V17.08h-5.52l-9.29,15.14"/>
  </g>
</svg>