<?xml version="1.0" encoding="UTF-8"?>
<svg id="Ebene_2" data-name="Ebene 2" xmlns="http://www.w3.org/2000/svg" viewBox="0 0 303.57 65.22">
  <defs>
    <style>
      .cls-1 {
        fill: #fff;
      }
    </style>
  </defs>
  <g id="Ebene_1-2" data-name="Ebene 1">
    <rect x="0" y="0" width="303.57" height="65.22" rx="32.61" ry="32.61"/>
    <g>
      <path id="path2844" class="cls-1" d="m80.43,43.97l-4.08,4.13h-17.21l-4.05-4.08v-22.88l4.02-4.11h17.24l4.05,4.14v5.77h-7.57v-2.18h-10.2v15.63h10.2v-4.05h-4.32v-7.3h11.92v14.93"/>
      <path id="path2846" class="cls-1" d="m131.93,48.19v-.08h-.06l.06.08"/>
      <path id="path2848" class="cls-1" d="m157.25,17.04h-7.54v11.97h-10.2v-11.97h-7.6l.06,31.07h7.57v-11.79h10.2v11.78h7.57l-.06-31.06"/>
      <path id="path2850" class="cls-1" d="m239.59,17.04h8.84l-11.14,15.57,11.19,15.49h-8.96l-8.81-12.24v12.24h-7.57l-.06-31.07h7.6v12.38l8.92-12.37"/>
      <path id="path2852" class="cls-1" d="m104.81,36.3l13.77.03v4.05h-10.19v-2.22h-7.57v5.85l4.05,4.08h17.21l4.08-4.14v-10.9l-4-4.05h-13.74l-.03-4.24h10.2v2.18h7.57v-5.77l-4.08-4.11h-17.24l-4.02,4.11v11.03l3.99,4.11"/>
      <path id="path2854" class="cls-1" d="m218.25,38.17v5.8l-4.08,4.14h-17.21l-4.05-4.08v-22.88l4.02-4.11h17.24l4.05,4.14v5.7h-7.57v-2.12h-10.2v15.63h10.2v-2.22h7.6"/>
      <path id="path2856" class="cls-1" d="m180.02,40.38h-10.2v-15.63h10.2v15.63Zm7.57-19.2l-4.05-4.14h-17.24l-4.02,4.11v22.88l4.05,4.08h17.21l4.08-4.14v-22.79"/>
      <path id="path2858" class="cls-1" d="m85.03,36.03h11.47v-7.09h-11.47v7.09Z"/>
    </g>
  </g>
</svg>