<?xml version="1.0" encoding="UTF-8"?>
<svg id="Ebene_2" data-name="Ebene 2" xmlns="http://www.w3.org/2000/svg" viewBox="0 0 304.57 66.22">
  <defs>
    <style>
      .cls-1 {
        fill: #fff;
        stroke: #000;
        stroke-miterlimit: 10;
      }
    </style>
  </defs>
  <g id="Ebene_1-2" data-name="Ebene 1">
    <rect class="cls-1" x=".5" y=".5" width="303.57" height="65.22" rx="32.61" ry="32.61"/>
    <g>
      <path d="m158.22,20.24c.39.2.76.42,1.16.59.34.15.75.18,1.06.38.4.26.5.09.61-.25.19-.55.35-1.14.64-1.64.48-.81,1.28-1.25,2.18-1.47.46-.11.66.15.65.59,0,.21.14.43.26.77-.2.17-.51.43-.86.72.24.14.45.26.67.39-.05.07-.1.13-.15.2h-1.12c.1.15.13.24.19.29.27.2.38.44.26.76-.11.28-.02.47.31.43,1.26-.16,2.27.57,3.39.9.08.02.16.06.21.12.49.59,1.02.43,1.64.2.34-.12.76-.06,1.14-.03.97.08,1.94.13,2.89.31.75.15,1.47.48,2.2.73-.01.08-.03.16-.04.23-.49.05-.98.1-1.47.15,0,.03,0,.05-.01.08.26.02.54.12.77.05.72-.23,1.33-.06,1.96.3.48.28,1.19.1,1.61-.32-.47-.18-.97-.31-1.39-.57-.44-.27-.8-.67-1.22-1.04.25-.21.47-.39.69-.58,0-.05-.01-.1-.02-.15-.9-.12-1.81-.2-2.54-.86.31-.06.57-.1.83-.15.01-.07.02-.14.03-.21-.84-.12-1.66-.28-2.16-1.03.41-.57.96-.63,1.6-.44,1.19.36,2.2,1.02,3.1,1.85.24.22.5.41.76.61.59.47,1.18.94,1.75,1.43.08.07.04.27.1.4.1.21.2.46.38.58.11.07.37-.05.55-.13.74-.34,1.48-.5,2.28-.19.24.09.48.16.77.26,0-.44,0-.8,0-1.15,0-.8,0-1.6-.02-2.4,0-.16-.13-.33-.19-.49-.08.16-.2.31-.23.47-.05.35-.01.73-.09,1.07-.05.26-.19.52-.35.73-.21.27-.48.25-.71-.02-.19-.24-.38-.48-.63-.8-.25.64-.77.57-1.23.61-.32.03-.49-.04-.39-.45.06-.23-.09-.52-.14-.78-.05,0-.1,0-.15,0-.24.3-.47.6-.68.87-.33-.26-.56-.46-.82-.62-.46-.29-.53-.81-.12-1.18.16-.14.37-.22.5-.39-.76-.48-1.42-.3-2.07-.11-.4-.85-1.22-.88-2.09-1.03.42-.4.89-.46,1.33-.58.35-.1.7-.16.61-.61,1.16-.3,2.15,0,3.2.39,1.32.5,2.75.75,4.13,1.1.02-.05.04-.1.06-.15-.58-.24-1.16-.45-1.73-.71-.86-.4-1.76-.75-2.53-1.28-.37-.26-.65-.5-1.13-.56-.37-.05-.7-.37-.82-.8.7-.23,1.3.47,1.95.14,0-.05.01-.1.02-.16-.31-.04-.62-.08-.92-.13-.25-.04-.51-.09-.76-.16-.35-.1-.7-.25-1.05-.32-.31-.06-.33-.23-.37-.48-.02-.15-.16-.35-.29-.39-.63-.18-.69-.26-.49-1,1.05.31,2.1.62,3.15.93.49.15.98.29,1.46.45.12.04.32.17.31.24-.05.41.25.52.51.7.76.52,1.52,1.05,2.37,1.51-.03-.09-.05-.19-.11-.27-.28-.41-.33-.84-.17-1.31.05-.14.13-.28.12-.41,0-.2-.13-.56-.1-.57.38-.16.77-.29,1.18-.36.26-.04.54.05.84-.03-.14-.07-.27-.15-.41-.19-.15-.05-.32-.07-.48-.1-.02-.05-.04-.09-.06-.14.2-.11.39-.29.61-.32.69-.11,1.33-.25,1.51-1.07.01-.06.12-.14.17-.13.1.02.25.07.28.14.17.4.32.81.44,1.22.02.07-.14.22-.25.28-.13.07-.3.08-.57.15.22.19.34.31.48.41.47.36.48.4.05.83.44.25.87.5,1.31.74,0,.05-.01.09-.02.14-1.04-.05-2.08-.11-3.12-.16,0,.02,0,.04-.01.06.46.13.96.18,1.37.41.41.22.73.61,1.14.98-.56.17-1.06.33-1.52.47.22.49.43.95.69,1.52.19-.06.51-.12.79-.25.44-.2.86-.21,1.34-.07,1.25.38,2.47.79,3.52,1.61.55.43,1.1.85,1.65,1.27-.25.28-.45.51-.7.79-.25-.22-.5-.46-.77-.66-.12-.09-.33-.19-.42-.14-.38.19-.65.02-.95-.18-.35-.23-.74-.43-1.11-.63-.1-.06-.23-.07-.38-.05.46.25.95.46,1.07,1.06-.56.26-.8-.41-1.38-.44.2.23.34.4.57.68-.24,0-.44.06-.52-.01-.44-.4-.97-.55-1.54-.65-.28-.05-.52-.27-.78-.4-.11-.05-.24-.08-.36-.11-.04.05-.07.09-.11.14,1.03.94,2.06,1.87,3.08,2.81-.01.04-.03.07-.04.11-.53-.22-1.05-.46-1.59-.66-.45-.17-.91-.3-1.38-.42-.15-.04-.32.03-.51.06-.03-.19-.02-.37-.09-.5-.08-.13-.23-.3-.36-.31-.14-.01-.4.14-.41.23-.04.65-.03,1.3,0,1.95,0,.09.21.2.34.24.29.1.61.15.89.27.14.06.23.23.34.35-.14.11-.28.3-.42.3-.32.02-.65-.06-.98-.1-.6-.07-1.2-.13-1.79-.19-.45-.04-.9-.08-1.38-.03.07.05.13.14.21.14.56.06,1.12.09,1.68.16.45.05.9.15,1.36.19.31.03.62-.01.93,0,.44.02.88.03,1.31.12.22.05.44.23.6.41.33.37.61.77.94,1.19-.2-.04-.45-.04-.65-.14-.42-.19-.81-.44-1.22-.65-.32-.16-.64-.26-1.01.03.11.16.21.31.39.59-.53-.18-.94-.31-1.33-.44-.05.5-.13.98-.13,1.46,0,.13.22.3.38.38.64.35,1.3.65,1.68,1.31.08.14.13.31.23.56-.43-.06-.75-.1-1.06-.15-.55-.08-.63,0-.51.53.08.34.18.67.21,1.01.03.23-.04.48-.07.84.53.54.71,1.41,1,2.24.06.17.25.36.42.41.46.12.93.17,1.4.24.74.11,1.49.22,2.23.34,1.15.18,2.3.37,3.45.54,1.22.18,2.45.31,3.65.55,1.24.24,2.45.6,3.68.89.38.09.8.07,1.15.22.44.18.83.47,1.24.71l-.06.17c-.13,0-.26.02-.39,0-2.35-.37-4.7-.79-7.06-1.12-3.06-.43-6.12-.83-9.18-1.18-3.28-.38-6.57-.69-9.86-1.01-.88-.08-1.8.05-2.65-.14-1.09-.25-2.15-.07-3.22-.07-1.75,0-3.51-.13-5.26-.19-.47-.02-.94.01-1.42,0-1.61-.03-3.21-.04-4.82-.11-2.3-.1-4.59-.31-6.89-.36-2.28-.05-4.57.04-6.86.07-.12,0-.24-.01-.34.02-1.87.59-3.82.3-5.73.52-.95.11-1.94-.07-2.91-.04-1.51.04-3.02.14-4.54.23-2.82.18-5.64.36-8.46.55-.16.01-.34,0-.49.06-1.23.52-2.52.38-3.8.43-.73.03-1.46.18-2.19.27-.21.03-.43.12-.63.09-.7-.11-1.32.16-1.97.31-.65.15-1.32.22-1.99.28-1.47.14-2.95.19-4.41.4-1.88.26-3.73.75-5.66.72-.39,0-.78.09-1.17.1-.15,0-.3-.12-.46-.19.09-.18.15-.46.28-.51.38-.13.79-.17,1.19-.23.21-.03.47.06.62-.04.83-.51,1.8-.45,2.7-.64,1.06-.22,2.17-.19,3.24-.35.7-.11,1.38-.37,2.06-.56.29-.08.59-.21.87-.18.62.08,1.21.14,1.75-.27.1-.08.28-.07.42-.08.76-.07,1.54-.08,2.29-.2.86-.13,1.72-.35,2.63-.54,0-.38-.02-.88,0-1.38.04-1.13-.03-2.28.21-3.36.11-.52.16-1.05.28-1.56.1-.42.31-.82.53-1.21-.13-.23-.23-.48.11-.71.05-.04.11-.17.08-.21-.31-.6.11-.98.41-1.41.03-.05.04-.11.06-.18-.36.09-.72.29-1.02.22-.3-.07-.53-.4-.84-.64-.29.43-.62.84-.88,1.3-.28.5-.38.56-.86.27-.22-.13-.43-.28-.7-.46-.04.24-.07.41-.11.58-.09.43-.4.68-.79.68-.2,0-.42-.27-.59-.46-.14-.15-.22-.35-.41-.66-.09.37-.15.61-.19.85-.05.29-.17.45-.5.36-.27-.07-.55-.09-.82-.17-.46-.14-.62-.52-.36-.91.23-.35.54-.64.86-1.02-.32.09-.6.16-.86.25-.26.09-.51.2-.74.29-.17-.3-.32-.56-.46-.81.92-.23,1.83-.46,2.73-.7.42-.12.83-.28,1.25-.42.66-.23,1.33-.45,2.09-.71-.25-.14-.47-.22-.64-.36-.59-.48-1.2-.68-2-.52-.73.14-.78.01-.83-.76-.01-.14-.03-.29-.05-.54-.31.14-.55.24-.79.35-.25.12-.43.1-.66-.11-.21-.19-.53-.26-.81-.39,0-.37.01-.8,0-1.23-.01-.32.14-.49.44-.41.55.15,1.08.34,1.62.54.32.12.63.34.95.37.62.07,1.07.42,1.58.73.77.46,1.62.8,2.44,1.19.06-.44.16-.76.13-1.06-.03-.32-.19-.62-.28-.93-.04-.16-.07-.33-.08-.49-.01-.23,0-.46,0-.84.15-.13.38-.38.04-.76-.05-.06.02-.25.08-.36.22-.4.45-.8.68-1.19.12-.2.34-.37.13-.65-.03-.04.05-.21.12-.28.1-.1.24-.17.36-.25.7-.43,1-.33,1.26.42.03.08.06.15.09.22.89.02,1.24.32,1.41,1.16.06.32.38.66-.14.9-.04.02,0,.21.01.32.06.42-.05.53-.48.47-.3-.04-.6-.09-.89-.13l-.05.13c.09.08.17.16.26.22.26.2.53.38.79.59.23.18.3.39.13.68-.08.14-.11.43-.02.52.1.1.36.09.54.07.17-.02.34-.15.51-.16.38-.04.78-.12,1.15-.04.77.15,1.52.38,2.28.59.16.04.34.08.45.19.18.17.3.39.45.59-.2.11-.38.28-.59.32-.33.06-.57.11-.52.53.03.28-.15.39-.41.3-.38-.13-.75-.27-.82.34,0,.07-.2.13-.32.15-.24.04-.49.04-.73.08-.34.06-.47.26-.34.66.94-.57,1.73-.23,2.6.49.03-.38.1-.65.08-.9-.07-.65.35-1.39.99-1.37.97.04,2.03-.11,2.85.65.06.05.1.12.13.15-.49.28-.98.53-1.43.82-.12.08-.15.31-.22.47.16.02.33.09.47.06.72-.15,1.43-.33,2.14-.5.06-.02.13-.03.18-.06.18-.11.4-.35.53-.31.48.15.97.34,1.38.63.3.21.14.6-.24.68-.13.03-.26.03-.45.05.17.28.31.51.51.84-1.42.11-2.72-.13-4.04-.18,1.06.3,2.13.6,3.3.93-.25.3-.39.46-.55.65.12.16.22.3.33.45l-.09.15c-.2-.11-.45-.17-.59-.33-.57-.6-1.36-.69-2.08-.92-.05-.02-.11.02-.33.07.73.31,1.5.33,1.78,1.09-.57.88-1.33.44-2.05.22-.02.06-.03.11-.05.17.31.13.62.3.94.38,1.14.29,2.18.71,2.87,1.86-.18,0-.33.04-.46,0-1.18-.45-2.42-.38-3.64-.34-.47.02-.31-.3-.39-.53-.06.01-.12.03-.18.04-1.09.1-1.34.84-1.32,1.76.02,1.01.04,2.03.06,3.04,0,.3.14.38.45.32.69-.14,1.38-.3,2.08-.34.88-.05,1.78,0,2.66,0,.31,0,.62-.02.93-.05.67-.05,1.34-.15,2.01-.16.4,0,.54-.16.54-.52,0-.43-.03-.85-.01-1.28,0-.27.06-.54.1-.85-.4-.02-.33-.39-.4-.74-.15-.75-.47-1.47-.55-2.22-.16-1.41-.25-2.83-.26-4.25,0-.48-.14-.63-.53-.76-.31-.1-.68-.14-.69-.63,0-.33.07-.49.4-.55.14-.02.27-.13.4-.19-.02-.05-.04-.1-.07-.15-.19.08-.39.15-.58.24-.59.27-.82.18-1.07-.42-.16-.37-.45-.26-.63-.06-.23.24-.42.23-.69.12-.67-.27-1.34-.53-2.02-.74-.38-.11-.79-.11-1.19-.16-.13-.02-.27,0-.37-.07-.12-.08-.21-.21-.31-.32.13-.07.26-.18.4-.19.47-.02.93,0,1.41-.08-.32-.42-.7-.62-1.19-.57-.38.04-.75.1-1.13.12-.18,0-.36-.07-.55-.11-.02-.06-.05-.12-.07-.18.24-.18.45-.46.73-.53.38-.11.84-.18,1.21-.08,1.33.37,2.68.22,4.05.14-.38-.15-.75-.31-1.14-.43-.48-.16-.83-.41-.76-1-.41-.06-.78-.1-1.15-.16-.13-.02-.29-.09-.35-.19-.21-.34-.39-.7-.58-1.07.1-.07.29-.21.48-.34-.23-.13-.45-.27-.68-.4-.12-.07-.24-.15-.36-.22,0-.04.02-.09.02-.13.2-.01.4-.05.59-.03.26.03.53.18.77.14.65-.11,1.16.16,1.71.41.58.26,1.11.51,1.37,1.16.1.25.37.47.62.61.98.54,1.98,1.05,3.04,1.52-.23-.18-.45-.37-.65-.52.23-.51.45-.94.62-1.4.14-.37.32-.63.77-.61.12,0,.24-.08.4-.13-.07-.11-.1-.2-.16-.26-.3-.26-.27-.54,0-.75.59-.47,1.17-.96,1.82-1.34.83-.48,1.83-.04,2.23.96-.6,0-1.16.01-1.73,0-.32-.01-.57-.02-.64.41-.03.18-.23.35-.38.5-.5.51-1.09.99-.41,1.79.05-.12.2-.28.18-.42-.08-.59.32-.89.67-1.24.13-.13.25-.26.35-.41.2-.29.45-.42.83-.39.35.03.71-.12,1.07-.12.35,0,.71.08,1.06.12,0,.06,0,.12.01.18-.14.1-.26.24-.41.3-.58.2-.58.19-.27.79-.35.07-.7.11-1.02.22-.32.11-.62.28-.97.44.12.07.28.15.43.25.45.28.49.65.09.97-.29.22-.4.45-.26.8.04.1.03.22.06.45-.47-.09-.87-.18-1.34-.27.17.34.28.6.44.83.07.1.29.18.41.14,1.36-.42,2.72-.34,4.05.06,1.3.38,2.57.89,3.84,1.38.32.12.6.37.9.56,0,.06,0,.12,0,.19-.21.05-.43.18-.63.15-.36-.06-.64-.09-1,.15-.66.45-1.01.34-1.53-.28-.07-.09-.15-.17-.29-.32-.36.75-.89.42-1.42.29-.37-.09-.65-.07-1,.31-.27.29-.99.17-1.51.2-.14,0-.29-.1-.56-.19.13.23.19.35.29.52-.2.08-.4.15-.63.24.05.07.08.14.14.18.85.61,1.71,1.22,2.57,1.83.1.07.23.14.36.15.12.01.24-.04.36-.07-.03-.12-.02-.26-.08-.35-.33-.43-.69-.83-1.03-1.25-.1-.12-.19-.25-.35-.47.3-.05.52-.13.73-.12.38.02.75.09,1.12.16.1.02.28.11.28.15-.03.48.4.52.65.75.54.5,1.05,1.04,1.54,1.58.06.07,0,.26-.02.39-.01.2-.02.41-.03.61.1.06.19.12.29.18.08-.16.13-.35.24-.49.73-.9,1.72-1.13,2.79-.71.13.05.33-.09.5-.16.15-.06.31-.11.45-.19.19-.11.45-.21.54-.39.33-.66.41-1.36.3-2.1-.07-.5-.05-1.01-.11-1.51-.02-.19-.22-.37-.22-.56,0-.42.03-.86.14-1.27.07-.26.44-.5.42-.72-.03-.33-.28-.64-.47-.94-.07-.1-.25-.16-.4-.18-.4-.06-.55-.26-.57-.66-.03-.52-.15-.58-.83-.43.2.13.35.23.5.33-.4.63-1.13.74-1.47.2-.1.42-.2.8-.3,1.19-.38-.11-.71-.21-1.05-.31-.06.09-.12.18-.18.26.16.09.33.18.49.27v.11c-.18,0-.36.03-.53,0-.42-.09-.59.03-.51.48.03.16-.04.33-.06.49l-.16.08c-.37-.39-.73-.79-1.08-1.15.22-.38.39-.71.59-1.02.05-.09.17-.18.27-.19.78-.14,1.03-.83,1.48-1.31-.03-.04-.05-.08-.08-.12-.19.1-.38.18-.55.31-.43.32-.83.66-1.27.97-.27.2-.46.35-.46.77,0,.5-.52.59-.89.75-.32-.44-.61-.84-.91-1.25.56-.39,1.1-.76,1.69-1.17-.31-.21-.53-.36-.77-.52.17-.16.2-.21.24-.22.54-.1,1.14-.44,1.55-.8.24-.21.53-.4.83-.5.82-.27,1.66-.49,2.52-.74-.27-.22-.52-.43-.87-.71-.15.06-.41.14-.66.25-.4.17-.73.12-1.01-.23-.09-.11-.23-.2-.3-.32-.21-.34-.46-.37-.83-.24-.76.26-1.29-.08-1.42-.85-.91-.12-1.71-.66-2.27-1.59,1.94.6,3.8,1.18,5.66,1.77.03-.08.06-.16.08-.25-.32-.11-.63-.23-.95-.33-1.6-.52-3.25-.9-4.74-1.72-.2-.11-.38-.27-.56-.41.02-.05.03-.1.05-.15.15-.01.31-.07.44-.04.61.17,1.22.37,1.83.56.36.11.71.23,1.08.31.87.17,1.75.28,2.42.95.1.1.25.17.39.21,1.11.32,2.22.64,3.33.96.24-.74.51-1.55.78-2.37.31-.95.74-1.78,1.78-2.13.13-.04.28-.15.34-.26.46-.8,1.28-.78,2.03-.85.25-.02.54.18.79.33.23.14.28.36.06.57-.32.3-.21.53.1.76.18.13.35.29.64.53-.7.31-1.31.62-1.94.84-.21.07-.49-.1-.74-.15-.47-.11-.94-.22-1.41-.33-.02.06-.04.12-.06.18.16.08.31.2.48.23.62.11,1.25.2,1.87.26.59.06.97.67.75,1.22-.48-.11-.95-.21-1.43-.32-.05.05-.11.09-.16.14.76.66,1.31,1.35.28,2.32.57.08.97.2,1.36.18,1.24-.07,2.34.43,3.47.79.58.18,1.15.41,1.67.71.48.27.89.65,1.32.98-.27.34-.46.61-.68.86-.2.22-.87-.02-.98-.36-.04-.12-.06-.25-.1-.46-.11.14-.22.21-.24.3-.1.49-.37.46-.65.18-.32-.31-.56-.39-.79.14-.43-.19-.83-.37-1.24-.54.03.36-.27.52-.66.43-.32-.08-.62-.26-1.01-.44.02.27.03.48.06.85-.69-.27-1.31-.52-1.93-.77-.02.04-.05.07-.07.11.11.11.22.22.34.32.7.63,1.41,1.26,2.11,1.9.23.21.49.41.66.66.24.35.52.73.6,1.13.07.37-.37.23-.6.28-.23-.49-.74-.42-1.13-.58-.15-.06-.3-.16-.43-.26-.2-.17-.34-.41-.56-.52-.35-.17-.75-.25-1.12-.38-.13-.05-.29-.12-.34-.23-.3-.61-.47-.72-1.2-.67-.03.63-.07,1.26-.08,1.89,0,.92.01,1.83.02,2.75,0,.48.11.86.71.91.29.03.56.19.97.34-.31.13-.46.2-.7.3.75,0,1.39.01,2.02-.02.09,0,.19-.21.24-.34.11-.35.11-.77.3-1.07.33-.52.14-.85-.3-1.06-.82-.37-1.14-1.09-1.48-1.9,1.05.28,2.07.55,3.08.81Zm8.31,8.79c0,.22-.03.33,0,.41.21.53-.01.78-.53.88-.37.07-.36.38-.34.66.05.6.1,1.2.18,1.8.13.96.14.93,1.1,1.07,2.05.29,4.1.43,6.17.46,1.26.02,2.53.06,3.79.09.09,0,.18-.03.29-.06.12-.78.24-1.53.35-2.29.05-.34,0-.72.14-1.01.19-.42.33-.77-.13-1.07.4-.38.39-.52-.04-.75-.21-.11-.44-.21-.66-.31-.19.95-.37,1.04-1.26.68-.14-.06-.33,0-.5,0,.07.15.14.29.24.49-.21-.04-.42-.07-.63-.12-.38-.09-.69-.11-.73.42,0,.09-.28.27-.35.24-.45-.21-.87-.47-1.26-.68.2-.31.35-.54.52-.82-.85-.06-.93.01-.88.7,0,.11.01.23.01.34,0,.35-.11.48-.52.37-.82-.22-1.62-.61-2.53-.39-.17-.37-.43-.45-.83-.33-.18.05-.43-.06-.62-.16-.32-.17-.62-.39-1-.62Zm-26.12-3.29c.16-.2.32-.33.3-.4-.03-.11-.19-.24-.3-.25-.15-.01-.42.05-.45.14-.13.36-.37.26-.54.13-.21-.16-.43-.36-.53-.6-.13-.32-.28-.33-.56-.22-.34.13-.72.18-1.06.33-.17.07-.4.3-.39.44.07,1.16.08,2.33.32,3.46.31,1.43.9,2.8.93,4.3,0,.45.29.74.72.81.53.08,1.08.15,1.61.15,1.69.01,3.38-.01,5.07,0,.37,0,.42-.19.41-.46-.04-.83-.1-1.66-.12-2.5-.01-.52-.28-.64-.73-.56-.36.06-.71.05-.94-.25.11-.26.21-.49.3-.71-.05-.03-.09-.07-.14-.1-.15.13-.31.25-.44.4-.3.34-.62.52-1.08.31-.42-.2-.85-.38-1.28-.57-.26-.11-.52-.34-.75.06-.23.39-.54.47-.79.1-.3-.45-.65-.42-1.07-.35-.34.05-.45-.15-.27-.4.3-.39.28-.73-.06-1.08.08-.04.12-.08.16-.09.66-.1,1.3.11,2-.26.58-.3,1.44-.16,2.16-.08.63.07,1.23.32,1.86.48.12.03.34,0,.39-.07.09-.14.16-.4.09-.5-.24-.34-.55-.64-.86-.98-.08.13-.14.19-.16.26-.22.6-.38.64-.88.21-.11-.09-.25-.2-.38-.19-1,.04-1.65-.7-2.52-.97Zm-16.95,1.69s-.02-.1-.03-.14c.2-.09.39-.21.59-.28.32-.1.37-.35.28-.58-.08-.21-.27-.43-.47-.53-.11-.05-.37.11-.51.24-.12.1-.16.28-.25.42-.81,1.26-.97,2.74-1.22,4.14-.22,1.25-.05,2.57.02,3.86.03.55.49.84,1.03.76,1.04-.16,2.07-.38,3.11-.52.48-.06.62-.22.61-.71-.04-1.55-.13-3.11.44-4.61.07-.18.03-.39.06-.58.04-.3-.09-.4-.39-.4-.42,0-.84-.08-1.26-.1-.14,0-.28.05-.42.07-.3.03-.62.14-.88.05-.11-.04-.07-.48-.11-.75,0-.03-.02-.06-.04-.12-.17-.07-.36-.14-.56-.22Zm59.16,4.74c.04.27.08.42.07.56,0,.28-.16.42-.45.35-.65-.15-.83-.41-.77-1.08,0-.09,0-.19,0-.32-.14.05-.25.08-.34.13-.54.27-.81.18-.78-.4.03-.66-.23-.86-.83-1-.42-.09-.54,0-.58.36-.1,1.07-.18,2.15-.29,3.22-.04.38.09.52.49.54,1.44.07,2.87.24,4.28.61.67.17,1.43.03,2.05.03-.25-1.41-.53-2.81-.75-4.23-.13-.83-.15-.9-1.02-.95-.06,0-.13-.02-.18-.03-.19-.86-.66-1.38-1.3-1.39.03.13.04.26.1.36q.37.77-.46.91s-.03.05-.06.09c.21.2.43.39.64.6.48.51,1.07.94,1.15,1.71.02.14-.09.43-.14.43-.19,0-.4-.07-.58-.15-.07-.03-.1-.15-.23-.34Zm-13.39-5.92c-.35.18-.62.34-.91.45-.49.19-.98.59-1.54.14-.05-.04-.15-.03-.23-.05.11.31.18.61.31.87.06.11.25.2.38.2.73.02,1.45,0,2.18,0,.12.14.24.37.42.45.33.14.69.24,1.04.27.24.03.5-.07.74-.11-.14-.19-.27-.37-.41-.56-.02-.02-.02-.06-.05-.15.16,0,.31-.03.43,0,.56.18,1.02,0,1.48-.3.57-.37,1.19-.61,1.89-.63.16,0,.33-.05.48-.1.08-.03.17-.13.17-.19,0-.07-.1-.19-.17-.2-.34-.02-.7-.09-1.01,0-.37.1-.62.07-.78-.26-.13-.27-.34-.27-.6-.29-.51-.05-1.02-.16-1.53-.28-.12-.03-.2-.18-.3-.27.02-.04.05-.09.07-.13.77.56,1.6.46,2.43.26-.34-.08-.7-.07-1.04-.13-.36-.06-.79-.08-1.04-.29-.28-.23-.5-.32-.83-.24-.29.07-.59.1-.88.14-.08-.33.37-.66-.14-.82-.42-.13-.83-.27-1.26-.36-.15-.03-.33.1-.5.16.09.13.15.3.27.39.34.23.7.42,1.06.63-.24.1-.45.06-.64.09-.16.02-.31.12-.46.19.07.14.11.31.21.41.24.25.52.48.74.68Zm-13.96,2.42c-.46.23-1.14-.19-1.16.69-.21-.14-.34-.27-.5-.33-.19-.07-.44-.15-.59-.08-.14.07-.23.33-.26.52-.03.17.05.35.08.53.04.31.13.62.1.92-.06.69-.18,1.39-.29,2.08-.04.29.05.42.36.43.82.03,1.64.1,2.46.12.12,0,.31-.14.37-.26.15-.35-.01-.83.47-1.05.03-.01.03-.12.03-.18.08-.75.14-1.5.24-2.25.02-.13.21-.27.35-.34.52-.23,1.06-.43,1.59-.64l-.05-.12c-.3.11-.6.26-.91.33-.44.1-.8.27-1.16.57-.29.25-.76.3-1.1.42-.22-.36-.38-.61-.59-.94.32-.11.63-.21.94-.32.19-.18.42-.31.64-.45.16-.11.46-.28.44-.35-.11-.41.09-.58.41-.67-.61-.76-1.26-.63-1.93-.12-.13.1-.29.16-.44.22-.31.11-.32.29-.14.52.19.24.4.47.62.73Zm5.99.49c-.38.05-.91-.04-1.12.18-.47.49-1.08.38-1.58.48-.65.12-.85.43-.96.97-.16.8-.32,1.6-.5,2.39-.07.33.1.43.36.44.95.07,1.89.15,2.84.19.71.03.73,0,.77-.73.07-1.3.13-2.6.19-3.92Zm-11.56.44c-.1.2-.25.41-.21.47.23.3.46.63.78.81.27.15.41.29.41.58,0,.23.02.46-.01.69-.02.16-.11.32-.17.48-.16-.1-.39-.16-.45-.3-.24-.5-.68-.61-1.16-.72-.18-.04-.32-.24-.48-.36-.38-.3-.74-.63-1.15-.87-.25-.14-.44.01-.38.34.13.8.3,1.6.38,2.41.04.45.24.49.6.47.74-.04,1.48-.05,2.22-.05.32,0,.77.16.94.01.21-.19.17-.63.26-.96.09-.33.28-.66.31-.99.04-.54-.02-1.09-.03-1.63,0-.62.15-1.29-.65-1.58-.09-.03-.14-.15-.22-.19-.19-.08-.39-.14-.59-.21-.02.04-.04.08-.05.13.11.09.23.18.38.3-.42.33-.8.64-1.22.97.23.1.37.16.51.22Zm15.12,4.13c-.11-1.14-.18-2.29-.33-3.43-.07-.52-.79-.87-1.28-.7-.43.16-.57-.1-.68-.41-.07-.18-.11-.37-.17-.55-.06,0-.13.02-.19.02,0,.3-.02.59,0,.89.04.52.13,1.03.16,1.55.04.78.06,1.57.07,2.35,0,.3.12.4.42.38.67-.05,1.33-.07,2-.1Zm.2-7.34c-1.12-.9-2.45-1.59-2.85-1.45.18.19.33.35.51.54-.74.49-.54,1.21-.43,1.84.05.25.48.48.78.61.25.11.57.08.85.08.17,0,.34-.04.51-.06-.05-.16-.08-.33-.16-.47-.31-.52-.22-.75.36-.94.12-.04.24-.09.42-.16Zm.2-.93c.27-.29.66-.62.94-1.02.2-.29.36-.34.67-.24.21.07.46.03.76.05-.07-.16-.08-.19-.09-.19-1.07-.06-2.14-.45-3.21.02-.07.03-.18-.02-.28-.05-.14-.04-.29-.09-.36-.12.47.47.96.96,1.56,1.56Zm-3.92,2.02c-.08-.64-.15-1.15-.22-1.75-.63-.22-1.3.12-1.95.21.55.6,1.09,1.21,1.66,1.83.17-.1.4-.23.51-.29Zm-34.04-1.31c-.77-.58-1.41-1.07-2.13-1.61-.06.58-.13,1.19-.2,1.83-.06.01-.22.05-.39.08.35.11.69.14,1.03.17.36.04.72.09.65-.47h1.04Zm28.48-1.33c-.13-.06-.19-.11-.25-.1-.53.04-1.03,0-1.5-.32-.1-.07-.44.07-.54.21-.17.21-.27.49-.32.76-.04.2.05.43.09.64.22-.06.51-.06.64-.2.38-.42.83-.67,1.38-.8.15-.03.29-.11.5-.19Zm3.77-1.79c.07-.11.12-.16.13-.22.01-.18,0-.35,0-.53-.19.04-.42.02-.57.12-.37.26-.69.57-.23,1.04.09.09.09.31.08.47-.03.31.13.37.38.33.15-.03.3-.08.52-.14-.74-.66.48-.46.3-.9-.17-.05-.36-.11-.6-.18Zm-7.69,4.66s.05-.1.08-.14c-.28-.17-.53-.4-.83-.51-.92-.33-1.8.11-2.69.24-.13.02-.22.37-.33.56.2,0,.41.03.58-.03.38-.14.73-.42,1.11-.47.56-.07,1.16-.18,1.68.24.1.08.26.07.4.11Zm30.78-.8c-.03.06-.05.12-.08.18.54.33,1.08.67,1.62,1,.07-.06.14-.12.21-.18-.11-.26-.15-.63-.35-.75-.41-.25-.9-.4-1.4-.26Zm5.92-6.55s.05-.09.07-.14c-1.01-.36-2.03-.73-3.04-1.09-.03.09-.06.18-.1.26.95.52,2.04.63,3.06.97Zm-30.61,6.24c-.4.39.07.78.26.93.36.3.84.09,1.36-.14-.57-.28-1.06-.52-1.62-.79Zm-35.7-6.46c-.44.27-.41.64-.28.91.12.26.41.45.63.67.03-.04.05-.07.08-.11-.14-.48-.27-.96-.42-1.47Zm23.27,5.89c.07.35.07.55.14.72.11.27.25.52.41.76.04.06.2.05.3.04.03,0,.07-.17.04-.24-.11-.27-.23-.54-.39-.78-.1-.16-.27-.27-.51-.5Zm9.86-11.64c.69.06,1.38.11,2.07.17,0-.08.01-.15.02-.23-.68-.35-1.39-.07-2.09.05Zm.64-2.72c-.9-.4-1.59.26-2.38.24.01.08.02.15.04.23.75-.15,1.5-.3,2.34-.47Zm17.29,17.3c.66.14,1.56-.23,1.92-.88-.68.31-1.29.59-1.92.88Zm-13.13-14.43v-.24h-2.04s0,.07,0,.1c.68.05,1.37.09,2.05.14Zm8.52,14.27c-.02.05-.04.11-.06.16.44.15.89.31,1.33.46l.07-.19c-.45-.14-.89-.29-1.34-.43Zm-40.17-3.64s.09.1.14.14c.13-.08.32-.13.36-.24.05-.13-.04-.31-.07-.47-.06,0-.12,0-.18,0-.08.19-.17.38-.25.57Zm-2.21-3.68s-.02-.06-.03-.09c-.54.16-1.08.32-1.62.47.01.04.02.08.04.12l1.61-.5Zm28.24,5.04c.05.06.1.12.15.18.23-.16.46-.33.69-.49-.05-.06-.09-.13-.14-.19-.23.17-.46.33-.69.5Z"/>
      <path d="m182.5,47.04c0,1.42-.02,2.78.02,4.14,0,.18.25.38.41.53.14.13.33.21.5.31-.01.05-.03.1-.04.15h-8.64l-.04-.14c.18-.06.36-.14.55-.19.35-.08.54-.24.36-.62-.18-.38-.31-.79-.53-1.15-.3-.48-.48-.48-.97-.2-.64.37-1.26.78-1.94,1.05-.72.28-1.5.42-2.25.63-.03-.07-.06-.13-.09-.2.71-.4,1.43-.79,2.14-1.19.71-.4,1.42-.81,2.22-1.27-.5-.54-.96-1.05-1.45-1.55-.05-.05-.29-.02-.38.06-1.23,1.01-2.3,2.15-3.02,3.59-.07.15-.15.31-.16.46-.02.6-.39.72-.89.72-.33,0-.66.01-.99-.01-.16-.01-.32-.1-.55-.18.15-.12.22-.24.29-.23.53.05.71-.31.9-.69.81-1.63,1.79-3.13,3.37-4.14.05-.03.08-.09.14-.16-.24-.11-.45-.21-.81-.38.26-.09.38-.17.5-.17,1.07.03,2.14.07,3.2.13.77.04,1.4.4,1.84,1.01.83,1.14,1.63,2.29,2.39,3.47.32.49.7.86,1.22,1.09.65.29,1.11.13,1.38-.53.09-.22.11-.48.12-.72.02-1.05,0-2.1.04-3.14.02-.53-.16-.84-.67-.98-.11-.03-.2-.08-.45-.19.35-.11.57-.23.79-.23,1.43.02,2.86.06,4.29.14.27.01.55.2.79.37,1.09.76,2.17,1.54,3.26,2.31.09.06.19.11.4.23.02-.33.05-.59.06-.86,0-.23,0-.46,0-.69-.01-.8-.04-.84-.79-1.08-.12-.04-.23-.11-.33-.27h3.06s-.02.09-.04.09c-.72.13-.85.61-.84,1.25.03,1.32.01,2.65,0,3.98,0,.55-.19.7-.71.5-.41-.15-.8-.38-1.16-.63-1.98-1.36-3.94-2.73-5.91-4.09-.18-.12-.39-.2-.62-.32Z"/>
      <path d="m120.04,49.32c-.87-.12-1.75-.22-2.62-.35-.74-.1-.81-.08-.84.65-.02.52,0,1.05.04,1.57.04.59.31,1.02.91,1.21.17.05.33.14.49.29h-5.13l-.03-.07c.21-.08.42-.18.65-.22.32-.06.5-.23.51-.55.03-.95.06-1.9.05-2.84,0-.11-.28-.32-.43-.32-1.41-.05-2.82-.08-4.24-.1-.48,0-.95.04-1.43.07-.26.01-.43.09-.44.4-.02.77-.1,1.54-.09,2.3,0,.74.14.89.84,1.13.12.04.24.09.36.22h-5.07s-.01-.08-.02-.12c.26-.08.55-.11.77-.25.23-.14.55-.38.55-.58.02-.91-.05-1.82-.09-2.78-1.18.15-2.33.29-3.47.43-.02-.05-.04-.1-.06-.15.34-.14.68-.31,1.03-.41.66-.19,1.34-.34,2.01-.49.41-.09.63-.29.61-.74-.02-.6.01-1.21,0-1.82-.02-.58-.25-.77-.84-.8-.26-.01-.52-.05-.88-.09.38-.3,5.01-.38,5.64-.15-.2.05-.33.09-.46.12-.72.13-.72.13-.72.88,0,.54,0,1.08-.02,1.62,0,.28.1.39.38.35,1.9-.26,3.8-.22,5.71.03.26.03.41-.04.4-.34-.02-.62,0-1.24-.07-1.86-.02-.16-.24-.35-.41-.44-.21-.11-.46-.14-.69-.27,1.76-.31,3.51-.17,5.27-.18,0,.07.02.13.03.2-.22.05-.44.12-.66.14-.79.08-.85.14-.86.93,0,.65,0,1.31,0,1.96,0,.31.12.47.45.51.67.09,1.33.2,1.99.35.33.07.64.25.96.38-.02.07-.05.13-.07.2Z"/>
      <path d="m47.22,52.69h-4.5s-.03-.08-.04-.13c.18-.08.34-.19.53-.23.36-.08.55-.28.55-.65,0-2.06,0-4.12-.02-6.19,0-.38-.27-.49-.59-.52-.18-.02-.36-.06-.54-.09,0-.05,0-.09-.01-.14.1-.04.21-.11.31-.11,2.29,0,4.57-.04,6.86,0,1.12.02,2.22.25,3.23.77.53.27,1,.61.99,1.28,0,.69-.36,1.18-.95,1.49-.42.22-.86.38-1.35.59.1.09.18.16.26.22,1.06.65,1.98,1.47,2.73,2.45.4.52.82.91,1.54.9.27,0,.55.13.82.2l-.02.14c-.12.02-.24.06-.36.06-1.09,0-2.17.01-3.26,0-.51,0-.83-.31-1.15-.67-.92-1.04-1.87-2.05-3.24-2.49-.65-.21-1.34-.29-2.02-.42-.36-.07-.5.12-.52.47-.02.67-.06,1.34-.11,2.01-.03.39.06.67.51.73.13.02.25.11.38.16,0,.05-.02.1-.03.15Zm-1.02-5.56c0,.26,0,.52,0,.78,0,.56.16.74.73.73.69,0,1.38-.03,2.06-.12.43-.06.87-.21,1.26-.4.74-.36,1.07-1.3.62-1.84-.29-.35-.7-.72-1.12-.82-.8-.19-1.65-.24-2.48-.25-.63,0-1.05.53-1.06,1.17,0,.25,0,.49,0,.74Z"/>
      <path d="m128.91,46.37h5.02c-.36.18-.59.3-.88.45.29.51.5,1.01.82,1.43.49.63,1.03,1.23,1.59,1.81.33.35.56.28.95-.12.28-.29.29-.5-.01-.82-.4-.42-.72-.93-1.09-1.39-.36-.45-.74-.89-1.1-1.32,1.4-.09,2.89-.23,4.37.02,0,.12,0,.17-.01.18-.15.11-.44.26-.42.32.08.29.22.58.4.82.06.08.36.09.46.02.33-.25.62-.56.93-.85-.21-.16-.34-.26-.56-.44.94-.27,1.76-.14,2.62-.05-1.39.21-1.89,1.44-2.82,2.29.54.41,1.05.85,1.61,1.2.18.12.54.13.74.03,1.3-.63,2.01-1.76,2.57-3.06-.34-.16-.63-.29-.92-.43,0-.03.02-.05.02-.08h3c-.04.1-.05.16-.06.16-.79.1-1.09.69-1.44,1.3-.95,1.71-2.31,3.04-3.92,4.14-.48.33-.9.23-1.32-.06-.56-.38-1.11-.77-1.63-1.19-.38-.31-.69-.29-1.06-.01-.54.4-1.1.78-1.64,1.17-.39.28-.73.26-1.12-.02-1.46-1.04-2.57-2.38-3.47-3.91-.14-.24-.25-.52-.44-.7-.25-.23-.57-.4-.87-.58-.11-.07-.24-.11-.37-.16,0-.04.02-.09.03-.13Z"/>
      <path d="m157.01,46.27h9.43s.01.09.02.13c-.13.06-.25.15-.38.17-.51.07-.6.38-.58.84.03.98,0,1.96,0,2.95,0,.68-.13,1.42.85,1.69-.04.04-.07.09-.11.13h-4.18s0,0,0,0c.85-.59.88-1.46.83-2.37-.05-.88-.09-1.76-.13-2.64-.02-.4-.25-.61-.63-.71-.87-.23-1.58.28-1.58,1.17,0,1.06.01,2.13.02,3.19,0,.46.07.88.57,1.09.09.04.14.16.26.3h-4.39c.12-.11.2-.24.32-.29.42-.17.55-.51.56-.9,0-1.21-.01-2.42-.02-3.63,0-.45-.11-.81-.65-.88-.08-.01-.16-.09-.24-.13,0-.03.01-.07.02-.1Z"/>
      <path d="m210.62,52.34c-.18.11-.35.28-.55.33-3,.87-6,1.21-8.96-.12-1.35-.61-2.38-1.54-2.62-3.09-.24-1.57.56-2.88,2.13-3.67,2.57-1.29,5.2-1.49,7.94-.62.53.17,1.08.3,1.6.49.46.18.89.18,1.33-.04.18-.09.39-.12.7-.21-.11.17-.13.25-.18.29-.55.44-1.1.89-1.67,1.29-.13.09-.48.13-.53.06-.6-.9-1.56-1.17-2.52-1.41-1.47-.36-2.92-.26-4.25.49-2.13,1.19-2.35,3.63-.52,5.23,1.38,1.2,3.03,1.52,4.79,1.34.83-.09,1.64-.32,2.46-.48.26-.05.52-.07.78-.1.02.07.05.14.07.22Z"/>
      <path d="m254.86,52.24h-3.76c0-.06,0-.11.02-.11.65-.21.69-.69.66-1.28-.05-1.03-.01-2.06-.02-3.09q0-.95-.76-1.46c.34,0,.69,0,1.03,0,.9-.02,1.81-.05,2.71-.07,1.45-.05,2.89.06,4.3.45.17.05.34.12.5.2.88.46.94,1.4.1,1.95-.27.18-.59.28-.94.45.08.11.14.21.22.28.59.56,1.22,1.09,1.78,1.69.38.41.75.71,1.34.67.11,0,.23.11.35.17-.11.06-.23.17-.34.18-.77.02-1.55.05-2.32-.01-.37-.03-.75-.23-1.07-.43-.3-.19-.53-.48-.78-.75-.86-.94-1.98-1.3-3.2-1.44-.25-.03-.37.06-.38.31,0,.29,0,.59-.04.88-.08.52-.24,1.05.51,1.22.03,0,.03.08.08.2Zm-.54-4.23c0,.18,0,.36,0,.54-.01.46.19.74.67.67.64-.1,1.29-.2,1.91-.38.41-.12.71-.43.67-.91-.04-.49-.34-.82-.79-.96-.39-.11-.8-.18-1.2-.19-1.25-.03-1.25-.01-1.26,1.24Z"/>
      <path d="m60.74,52.15c-1.01.07-2.07-.07-3.06-.49-.59-.25-1.18-.62-1.6-1.09-.98-1.07-.76-2.62.52-3.31.88-.47,1.87-.79,2.85-1.02,1.9-.44,3.79-.3,5.61.42.9.36,1.68.88,1.79,1.95.12,1.14-.43,1.96-1.38,2.51-1.44.83-3.02,1.06-4.73,1.02Zm.48-5.45c-.45.08-.92.11-1.34.26-.95.33-1.56,1.03-1.59,2.03-.03.95.51,1.64,1.37,2.03.94.43,1.92.42,2.88.07.75-.27,1.35-.75,1.73-1.46.36-.65.25-1.25-.24-1.8-.75-.84-1.71-1.11-2.81-1.14Z"/>
      <path d="m142.74,51.95c.14-.11.22-.22.29-.22.61.05.74-.4.96-.81.78-1.49,1.69-2.88,3.11-3.88.11-.08.21-.19.32-.29-.24-.13-.43-.23-.71-.38.18-.1.27-.19.36-.19,1.12.04,2.23.09,3.35.16.77.05,1.38.46,1.82,1.06.8,1.08,1.58,2.17,2.3,3.3.36.57.77,1,1.41,1.22.08.03.14.08.21.13.02.02.02.06.05.11h-5.47s-.03-.09-.04-.14c.32-.12.65-.24,1.06-.39-.21-.49-.38-.94-.59-1.37-.33-.67-.55-.69-1.2-.34-.8.44-1.62.87-2.46,1.22-.52.21-1.11.27-1.66.39-.02-.05-.04-.09-.07-.14.15-.1.28-.22.44-.3,1.2-.65,2.39-1.3,3.59-1.94.28-.15.32-.3.12-.53-.37-.4-.74-.79-1.1-1.19-.18-.2-.34-.18-.54,0-1.13.97-2.14,2.04-2.84,3.36-.14.27-.27.57-.32.87-.06.32-.22.46-.52.47-.48.02-.95.03-1.43.02-.12,0-.24-.11-.42-.19Z"/>
      <path d="m119.29,51.91c.09-.07.13-.12.17-.12.6,0,.83-.41,1.08-.88.83-1.61,1.84-3.09,3.51-4.15-.21-.1-.31-.17-.41-.21-.12-.05-.24-.08-.38-.22.16-.04.32-.12.47-.12,1.08.04,2.17.07,3.25.15.8.06,1.44.46,1.9,1.11.76,1.08,1.51,2.18,2.24,3.28.35.53.73,1.01,1.36,1.22.1.03.18.1.4.23h-5.66s-.03-.07-.04-.1c.24-.09.47-.21.72-.27.36-.09.47-.27.3-.6-.22-.43-.45-.87-.67-1.3-.18-.37-.43-.31-.72-.14-.54.32-1.07.64-1.63.92-.85.43-1.76.68-2.71.79-.03-.06-.06-.11-.09-.17.7-.38,1.41-.76,2.11-1.15.72-.39,1.43-.8,2.24-1.25-.46-.53-.91-1.07-1.39-1.59-.05-.06-.3-.02-.38.05-1.33,1.15-2.64,2.33-3.21,4.08-.16.48-.37.82-.97.71-.47-.09-.99.14-1.46-.26Z"/>
      <path d="m88.54,52.21h-5.53s-.03-.06-.04-.09c.24-.09.48-.2.73-.27.31-.1.44-.24.27-.57-.23-.43-.43-.88-.66-1.31-.15-.29-.36-.31-.65-.15-.78.42-1.55.87-2.36,1.21-.64.26-1.34.37-2.05.46.28-.55.88-.53,1.3-.82.46-.32.95-.59,1.43-.86.47-.26.96-.49,1.53-.79-.44-.53-.87-1.08-1.34-1.59-.07-.08-.39-.03-.51.06-1.3,1.05-2.46,2.22-3.09,3.81-.33.84-.31.85-1.21.85-.37,0-.74,0-1.27,0,.19-.17.28-.25.36-.32.27-.24.63-.43.79-.73.88-1.67,1.91-3.2,3.61-4.33-.33-.13-.55-.21-.82-.32,1.48-.5,3.94-.48,5.21.76.97.95,1.77,2.02,2.42,3.21.39.71.8,1.35,1.63,1.6.05.02.09.07.22.18Z"/>
      <path d="m223.19,47.11c0,.64,0,1.14,0,1.64,0,.65.01,1.31,0,1.96-.02.58.13,1.03.74,1.23.13.04.24.15.45.29h-3.18c.14-.13.22-.25.32-.27.54-.13.6-.52.6-.98,0-1.16.03-2.32.04-3.48,0-.43-.1-.77-.6-.85-.08-.01-.15-.11-.34-.27.37-.07.63-.15.88-.15,1.18,0,2.37.01,3.55.08.4.02.84.17,1.18.38,1.1.72,2.16,1.5,3.24,2.25.12.08.24.15.43.27.04-.16.09-.27.09-.39,0-.52-.03-1.05-.03-1.57,0-.36-.16-.53-.51-.59-.22-.03-.43-.12-.64-.19,0-.04.02-.09.02-.13h3.18c-.03.07-.03.1-.04.1-.92.15-.93.83-.93,1.55,0,1.23-.01,2.46-.02,3.68,0,.61-.15.72-.71.5-.39-.16-.76-.38-1.11-.62-1.96-1.36-3.9-2.73-5.86-4.09-.19-.13-.42-.21-.74-.36Z"/>
      <path d="m65.5,46.12h5.37c.01.07.03.14.04.21-.19.04-.38.07-.57.13-.18.05-.44.09-.49.21-.06.12.04.37.15.51.94,1.32,3.05,1.63,4.33.63.42-.32.79-.71,1.17-1.05-.32-.55-1.07,0-1.25-.63h3.44c.01.07.02.14.04.2-.15.04-.31.12-.46.1-.43-.05-.72.1-.93.48-.6,1.03-1.53,1.69-2.54,2.26-.3.17-.41.39-.38.72.02.28.01.56.02.83.01.71.14.87.83,1.07.12.04.25.08.37.13.02,0,.02.06.07.16h-5.43s-.02-.08-.03-.13c.34-.12.67-.26,1.02-.36.3-.08.42-.25.43-.56.06-1.27.07-1.28-1.08-1.81-1.11-.51-2.09-1.19-2.74-2.24-.33-.52-.84-.63-1.37-.74,0-.05.02-.09.03-.14Z"/>
      <path d="m211.67,47.07c.33-.4.66-.78,1.25-.78,2.16,0,4.31,0,6.47.01.8,0,1.16.32,1.4,1.2-.19-.07-.36-.09-.47-.18-.43-.36-.91-.4-1.44-.37-.53.03-1.05.01-1.58.02-.47,0-.78.18-.77.73,0,.5-.04,1-.07,1.57.53-.15.99-.26,1.44-.4.45-.14.89-.31,1.48-.52-.18.23-.26.44-.41.52-.65.34-1.31.65-1.97.96-.22.11-.59.08-.5.47.09.41-.14,1.06.5,1.13.91.1,1.84.08,2.75.03.32-.02.63-.28,1-.46-.11.72-.65,1.25-1.36,1.26-2.29.03-4.57.01-6.86.01-.02-.05-.04-.09-.06-.14.14-.08.27-.2.42-.23.82-.18.94-.31.94-1.15,0-1.06,0-2.13-.02-3.19,0-.57-.13-.71-.7-.68-.31.01-.61.12-.91.19-.15.04-.3.09-.46.13-.02-.04-.05-.08-.07-.13Z"/>
      <path d="m246.29,49.27c1.06-.31,1.95-.57,2.84-.82.03.05.06.1.09.15-.47.31-.92.63-1.4.91-.27.15-.59.21-.88.3-.53.16-.65.33-.59.89.06.53.3.78.82.8.49.02.99,0,1.48.02.58.01,1.16.05,1.6-.43.05-.05.14-.05.22-.08.13.49-.19.99-.73,1.13-.28.08-.58.13-.88.13-2.07.01-4.15,0-6.22,0-.08,0-.16-.02-.26-.03-.06-.39.25-.4.46-.4.52,0,.76-.24.77-.74.01-1.21.06-2.41.02-3.62-.02-.61-.18-.7-.8-.61-.43.07-.85.2-1.28.31.07-.44.59-.9,1.03-.9,2.29,0,4.58,0,6.86.02.72,0,1.11.48,1.07,1.17-.03,0-.07.02-.09.01-1.11-.86-2.38-.52-3.6-.43-.14.01-.38.18-.4.29-.07.6-.09,1.21-.13,1.92Z"/>
      <path d="m97.03,50.86c.01.63-.3,1.07-.83,1.2-.27.07-.55.08-.83.09-2.04.01-4.08.02-6.12.02-.09,0-.18-.03-.27-.04-.01-.05-.02-.1-.04-.15.27-.1.56-.17.81-.3.18-.09.43-.28.43-.42.03-1.32.02-2.64,0-3.96,0-.46-.28-.66-.71-.72-.22-.03-.44-.12-.63-.3h5.22s0,.09.01.14c-.27.05-.53.11-.8.15-.28.04-.39.17-.38.46.01,1.24,0,2.49.02,3.73,0,.54.11.64.68.66.41.02.82.03,1.23.08.64.07,1.24,0,1.78-.4.11-.08.25-.14.43-.23Z"/>
      <path d="m239.06,52.21h-4.52c-.01-.06-.02-.11-.03-.17.2-.05.39-.12.59-.13.32,0,.51-.14.52-.46.04-1.32.08-2.65.1-3.97,0-.38-.24-.56-.62-.53-.79.07-1.57.16-2.35.23.01-.42.49-.89,1.04-.9.92-.01,1.84,0,2.76,0,1.48,0,2.96,0,4.44,0,.14,0,.28.09.42.14-.1.12-.18.25-.29.35-.35.31-.71.58-1.21.28-.02-.01-.06,0-.1,0q-1.59-.09-1.59,1.49c0,.83.01,1.67,0,2.5,0,.46.14.76.61.87.11.03.2.13.3.2-.02.03-.04.06-.06.09Z"/>
    </g>
  </g>
</svg>