<?xml version="1.0" encoding="UTF-8"?>
<svg id="Ebene_2" data-name="Ebene 2" xmlns="http://www.w3.org/2000/svg" viewBox="0 0 154.56 154.56">
  <defs>
    <style>
      .cls-1 {
        fill: #fff;
        stroke: #1d1d1b;
        stroke-miterlimit: 10;
      }
    </style>
  </defs>
  <g id="Ebene_1-2" data-name="Ebene 1">
    <circle class="cls-1" cx="77.28" cy="77.28" r="76.78"/>
    <g>
      <path d="m45.12,124.58c.79-1.7,1.57-3.4,2.37-5.09.14-.29.14-.52,0-.81-2.45-5.23-4.88-10.46-7.32-15.69-.07-.16-.14-.32-.23-.52.14-.02.24-.05.35-.05.58,0,1.17.01,1.75,0,.3-.01.43.1.56.36,1.27,2.75,2.55,5.49,3.83,8.23.76,1.63,1.52,3.26,2.28,4.89.06.13.13.26.23.45.09-.19.16-.32.23-.46,2.02-4.33,4.04-8.66,6.06-12.99.04-.09.07-.2.14-.27.07-.08.17-.18.26-.18.76-.01,1.51,0,2.33,0-.08.19-.13.32-.19.45-3.17,6.81-6.34,13.62-9.5,20.43-.13.28-.29.43-.59.51-.66.18-1.32.39-1.97.6-.13.04-.26.11-.39.17h-.18Z"/>
      <path d="m77.06,37.85c-.1-.58-.32-1.09-.81-1.41-.57-.38-.77-.92-.78-1.57,0-.56.11-1.05.66-1.36-.3-.26-.61-.26-.93-.16-.38.11-.68.34-.88.69-.38.66-.94,1.01-1.68,1.12-.67.1-1.33.25-1.86.77.03-.08.06-.16.1-.23.29-.41.7-.66,1.18-.79.15-.04.31-.07.47-.1.73-.15.9-.57.45-1.22-.04.13-.08.25-.12.37-.11.35-.34.57-.7.65-.91.2-1.7.62-2.32,1.33-.02.02-.05.03-.12.06.09-.35.25-.63.48-.84.24-.21.52-.38.78-.55.12-.08.27-.12.39-.19.15-.09.32-.19.3-.4-.02-.2-.21-.27-.38-.33-.08-.03-.17-.04-.26-.06.12-.41.25-.81.35-1.22.18-.8.08-1.54-.52-2.15-.23-.24-.33-.55-.37-.87-.02-.13-.02-.25-.04-.46-.11.12-.18.19-.23.27-.41.65-.57,1.37-.61,2.13-.05.84.08,1.66.28,2.47.02.1.04.2.06.31-.22.11-.42.23-.63.32-1.82.82-3.2,2.12-4.17,3.87-.45.82-.94,1.62-1.45,2.4-.65,1-1.46,1.87-2.45,2.55-.2.14-.43.25-.66.31-.45.13-.79.39-.99.8-.16.33-.3.67-.43,1.01-.24.6-.6,1.1-1.17,1.43-.38.23-.63.59-.76.99-.2.59-.38,1.2-.48,1.81-.18,1.03-.19,2.07.04,3.1.06.25.16.5.27.73.12.23.37.33.59.27.24-.05.34-.24.36-.45.04-.45.05-.9.06-1.35.01-.51,0-1.02.03-1.53,0-.2.06-.41.12-.6.24-.73,1.01-1.09,1.74-.83.24.09.36.27.31.56-.05.26-.14.51-.21.76-.2.69-.46,1.36-.59,2.06-.25,1.35,0,2.61.78,3.8.53-.76,1.19-1.28,2.1-1.4.92-.12,1.76.12,2.66.58-.45.04-.81.05-1.15.12-.4.08-.8.19-1.17.35-.68.3-1.11.83-1.34,1.54-.36,1.08-.99,1.99-1.85,2.72-.66.56-1.43.83-2.31.76-.85-.08-1.66.04-2.43.43-.46.23-.87.54-1.18.96-.23.31-.39.65-.43,1.04-.05.45.13.8.49,1.05.26.19.52.19.76-.04.19-.18.34-.4.5-.61.26-.34.48-.7.76-1.02.45-.51,1.02-.77,1.72-.62.42.09.83,0,1.19-.2.51-.28,1.01-.59,1.49-.92.21-.15.39-.2.64-.18.71.07,1.43.15,2.14.15.91,0,1.81-.08,2.7-.54.06.6.02,1.15.03,1.69.01.54,0,1.08.04,1.62.03.55.09,1.1.15,1.72-1.74-.67-3.37-1.44-4.87-2.53-.11.1-.22.2-.33.29-.84.79-1.81,1.33-2.95,1.53-.43.08-.77.28-1.01.64-.23.35-.48.71-.61,1.11-.11.33-.12.73-.06,1.08.16.85.37,1.68.59,2.51.05.2.18.4.31.57.54.75,1.24,1.32,2.06,1.73.13.06.25.13.42.21-.46.3-.87-.08-1.29-.01.37.61,1,.61,1.84.03.12.52.03.68-.72,1.24.03.2.19.28.36.31.35.06.61.26.83.53.21.26.43.51.65.77-.25.05-.47-.07-.69-.24-.2-.14-.41-.27-.64-.36-.08-.03-.26.02-.29.09-.04.07.02.23.08.3.1.1.23.17.37.22.15.06.31.07.47.11.69.16,1.18.55,1.51,1.28-.7-.38-1.31-.83-2.15-.67.09.12.15.21.22.29.26.28.5.57.79.83.32.28.45.61.47,1.03.04.93-.01,1.85-.34,2.72-.32.87-.89,1.51-1.82,1.74-.15.04-.31.04-.49.07-.07-.19-.14-.35-.19-.51-.34-.98-.66-1.97-1.01-2.94-.11-.3-.27-.58-.44-.85-.27-.4-.56-.79-.85-1.17-.36-.48-.52-1-.34-1.6.18-.58.08-1.16-.02-1.74-.42-2.44-1.24-4.74-2.42-6.92-.15-.27-.32-.53-.46-.8-.87-1.66-.71-3.27.24-4.83.29-.47.8-.62,1.3-.75.79-.21,1.58-.41,2.37-.64.69-.2,1.33-.52,1.98-.88-.26-.27-.49-.35-.85-.19-1.19.52-2.4,1.04-3.69,1.22-.99.14-1.85.52-2.67,1.03-.21.13-.41.29-.58.46-.33.33-.28.57.13.78.2.1.39.2.58.3.06.03.12.08.19.13-.02.26-.04.52-.05.78-.05.95.16,1.82.68,2.63,1,1.55,1.53,3.31,2.18,5.01.03.09.03.19.06.32-.56.01-.99-.1-1.21-.66-.44-1.1-.9-2.19-1.37-3.28-.13-.29-.27-.6-.49-.81-.59-.57-1.2-1.11-1.85-1.61-.7-.55-1.43-1.07-2.19-1.54-.86-.54-1.16-1.31-1.14-2.26,0-.28.05-.55.09-.83.08-.6.39-1.08.88-1.4.36-.24.76-.44,1.15-.63.28-.13.57-.23.86-.32,1.68-.47,3.05-1.44,4.31-2.61.58-.54,1.19-1.04,1.78-1.56.12-.11.24-.22.37-.3.41-.25.46-.58.4-1.04-.15-1.21-.19-2.42.02-3.63.16-.91.51-1.7,1.14-2.38.19-.2.38-.41.57-.61.21-.22.35-.46.36-.83-.06.05-.1.08-.13.11-.38.59-.9,1.04-1.48,1.42-.18.12-.37.24-.55.36-1.11.68-1.99,1.57-2.63,2.7-.04.07-.09.14-.16.19.28-1.29.87-2.42,1.84-3.36-.27-.11-.46-.03-.63.07-.21.13-.42.27-.6.43-.21.18-.41.37-.6.58-.49.54-.77.48-1.06-.22-.17-.42-.33-.84-.5-1.26-.23-.57-.49-1.13-.92-1.59-.25-.27-.56-.5-.88-.79.93.12,1.7.44,2.3,1.12.12.13.22.28.33.41.23.27.31.29.54.13.29-.2.39-.46.24-.7-.06-.1-.14-.2-.23-.25-.54-.3-.85-.79-1.13-1.31-.03-.06-.08-.12-.13-.2-1.3.11-2.49-.15-3.46-1.11.92.19,1.84.37,2.79.05-.2-.45-.61-.67-.98-.99.69.03,1.22.27,1.71.72.32-.17.64-.34.95-.51.52-.29,1.05-.51,1.65-.54.27-.01.55.02.84.03,0-.48-.26-.78-.66-.9-.45-.15-.93-.22-1.4-.32-.43-.09-.86-.15-1.29-.25-.29-.07-.54-.21-.79-.51.16.03.25.04.34.05.95.21,1.89.1,2.82-.11.41-.09.83-.17,1.25-.23.51-.06.97.09,1.41.38.29.19.62.34.95.44.73.21,1.41-.07,1.9-.76-.13.05-.22.08-.31.12-.48.23-.96.23-1.44.02-.27-.12-.53-.25-.79-.38-.73-.38-1.49-.55-2.33-.45-.85.09-1.7.03-2.51-.24-.58-.19-1.09-.48-1.48-1.07.13.04.21.04.28.07.9.45,1.84.55,2.82.37.98-.19,1.94-.22,2.91.05.19.05.41.03.6-.02.26-.06.38-.27.38-.52,0-.24-.11-.39-.38-.47-.19-.05-.4-.06-.6-.09-.39-.05-.79-.07-1.17-.17-.82-.22-1.17-.79-1.02-1.63.14-.82.56-1.52,1.11-2.16-.07.26-.15.51-.2.77-.07.4-.15.81-.15,1.21,0,.52.28.73.8.67.1-.01.2-.03.3-.07.56-.2,1.11-.21,1.68-.02.05.02.11.01.17.02-.14-.56-.28-1.11-.43-1.69-.4-.04-.82-.09-1.31-.14.44-.25.87-.25,1.33-.33.12-1.65.72-3.12,1.73-4.43-.5,1.42-.76,2.87-.63,4.42,1.19.12,2.32.42,3.38.88-.04-.58-.08-1.14-.12-1.66-.53-.29-1.07-.57-1.6-.87-.12-.07-.2-.21-.3-.32-.03-.04-.04-.09-.09-.23.68.44,1.35.66,2.09.82.11-.62-.09-1.19-.25-1.85.13.13.21.18.25.26.28.5.57.99.8,1.51.11.23.24.35.48.37.35.03.7.08,1.04.1.21.01.41-.03.64-.26-.07-.02-.13-.03-.17-.06-.81-.51-1.1-1.26-.99-2.18.09-.75.38-1.42.84-2.03-.03.33-.07.66-.1.98-.05.51-.03,1.02.13,1.52.17.54.45.73,1.01.72,1.05,0,1.41.09,2.35.66,0-.35-.15-.6-.35-.83-.43-.49-1.02-.66-1.64-.73-.17-.02-.34-.02-.54-.04.76-.55,1.68-.44,3.15.35.52-.97,1.14-1.83,2.4-1.9-.13.39-.29.74-.35,1.11-.1.64-.02,1.26.46,1.76.34.36.56.75.43,1.28.83.19,1.47.62,2.04,1.3-.16-.58-.38-.83-1.02-1.2-.02-.53-.28-.95-.76-1.33.51.03.84.29,1.28.51-.4-.92-.39-1.76.11-2.57.27-.43.64-.69,1.17-.82,0,.23,0,.46,0,.69,0,.65.18,1.25.61,1.75.54.63.7,1.33.46,2.12-.01.04-.02.09-.03.13,0,.03,0,.06,0,.15.59-.27,1.2-.36,1.91-.29-.29.2-.54.36-.77.54-.22.18-.42.4-.41.74.64-.04,1.26-.07,1.88-.13.41-.04.78-.22,1.12-.46.55-.39,1.15-.68,1.81-.85.42-.1.84-.27,1.22-.47.48-.25.98-.39,1.51-.42.52-.03.95-.2,1.32-.59.16-.17.4-.29.63-.39.48-.21.98-.37,1.52-.39.39-.01.74-.17,1.06-.38.65-.42,1.35-.67,2.11-.8.57-.1,1.13-.3,1.68-.49,1.71-.59,3.41-1.21,5.13-1.8.42-.14.88-.2,1.32-.29.01.03.02.06.04.09-.12.06-.23.12-.35.18-1.5.7-3,1.39-4.49,2.09-.36.17-.68.39-1.04.56-.22.11-.46.22-.7.24-.37.03-.65.17-.87.44-.2.23-.45.34-.74.42-.35.1-.68.24-1.02.38-.31.12-.62.24-.93.38-.18.08-.37.18-.53.3-.68.5-1.47.81-2.26,1.03-.46.12-.85.27-1.19.57-.18.15-.39.2-.61.19-.7-.05-1.29.21-1.8.67-.33.29-.67.49-1.13.49-.2,0-.4.14-.58.26-.17.11-.29.3-.46.4-.65.41-1.33.76-2.03,1.05-.24.1-.5.15-.75.22.14.46.26.9.38,1.33.09.33.06.66-.01,1-.05.24-.07.49-.03.73.17,1.07.58,2.02,1.41,2.75.03.03.04.07.11.18-1.07-.36-1.71-1.1-2.28-1.96-.23.94-.32,1.89-.24,2.84.08.94.23,1.88.35,2.84-.07.01-.18.03-.29.06-.46.13-.73.51-.59.96.08.28-.03.42-.22.55-.43.29-.91.35-1.38.15-.57-.24-1.11-.26-1.7-.07-.81.27-1.56.09-2.15-.6-.13.33-.08.62.04.88.2.44.44.86.68,1.27.17.29.37.56.59.89-.35.08-.64.14-.93.2-1.16.24-2.29.57-3.38,1.06-.14.06-.32.11-.46.08-.95-.19-1.83.02-2.69.38-.43.18-.84.41-1.33.66.08-.15.13-.25.19-.35.51-.85,1.05-1.69,1.54-2.55.32-.57.56-1.18.68-1.84.08-.45.03-.87-.07-1.3-.11-.47-.23-.94-.33-1.41-.33-1.64.22-2.94,1.56-3.9.3-.22.4-.43.38-.79-.04-1.17.28-2.25.86-3.27.03-.05.06-.1.1-.14.02-.02.05-.03.08-.04-.06.53-.15,1.07-.18,1.6-.02.36,0,.73.05,1.09.09.64.36,1.2.85,1.64.41.38.82.74,1.23,1.12.2.19.41.38.58.6.25.31.33.67.25,1.07-.07.34-.11.69-.11,1.04,0,.23.07.46.15.68.19.45.56.62,1.03.52.06-.01.11-.03.17-.05.21-.05.42-.13.64-.16.2-.02.4.01.64.02-.05-.14-.1-.27-.14-.4-.23-.75.35-1.51.96-1.43.04,0,.08.02.15.05-.02.08-.04.16-.06.24-.08.33.04.63.31.8.25.16.59.13.82-.07.25-.21.3-.5.18-.84-.11-.31-.24-.63-.29-.96-.15-.87-.15-1.75.03-2.62.11-.55.02-1.06-.24-1.52-.22-.39-.5-.75-.81-1.08-.65-.68-.9-1.48-.87-2.4,0-.08.03-.17.05-.26.04.02.07.03.08.04.17.72.63,1.2,1.27,1.54.6.32,1.19.68,1.82,1.04Zm-17.69-4.76c.1.59.23,1.09.54,1.52.21.3.52.42.88.38.42-.04.66-.47.46-.84-.1-.18-.27-.35-.44-.48-.4-.3-.87-.46-1.44-.59Z"/>
      <path d="m66.26,58.59c0-1.7,0-3.39,0-5.09,0-.3.09-.53.3-.74.48-.48,1.06-.83,1.67-1.12,1.21-.57,2.5-.9,3.81-1.15,1.85-.34,3.71-.46,5.59-.35,2.18.13,4.33.48,6.36,1.32.73.3,1.42.68,2,1.23.26.25.37.52.37.89-.01,3.03-.03,6.05,0,9.08.03,3.42-1.17,6.34-3.51,8.81-1.79,1.88-3.92,3.27-6.28,4.33-.17.08-.32.1-.5.02-2.82-1.28-5.33-2.97-7.25-5.45-1.71-2.2-2.57-4.69-2.55-7.49,0-1.43,0-2.87,0-4.3Zm7.35,13c.19-.04.29-.06.38-.09.5-.15,1-.32,1.51-.45.28-.07.44-.23.56-.49,2.5-5.38,5-10.76,7.51-16.13.06-.13.11-.26.18-.43h-1.95c-.57,1.22-1.14,2.45-1.72,3.68-.58,1.24-1.16,2.49-1.74,3.73-.57,1.22-1.12,2.45-1.75,3.72-.11-.23-.18-.37-.25-.52-1.52-3.26-3.04-6.51-4.56-9.77-.13-.28-.21-.66-.43-.79-.24-.15-.62-.07-.94-.08-.31,0-.63,0-.99.01.09.21.15.35.22.5,1.93,4.13,3.85,8.26,5.78,12.39.13.27.15.5,0,.78-.33.67-.63,1.35-.95,2.02-.28.61-.56,1.22-.88,1.91Z"/>
      <path d="m98.09,93.07c-.42-.08-.65-.39-.9-.66-.28.08-.22.29-.2.46.09.65.2,1.3.29,1.95.06.39.11.78.16,1.19-1.32.83-2.67,1.38-4.24.9-.39-.12-.76-.3-1.09-.62.05-.13.1-.26.16-.39.37-.8.72-1.6,1.12-2.38.23-.44.23-.86.14-1.32-.04-.17-.09-.34-.13-.51-.16-.55-.17-1.08.02-1.63.23-.64.11-1.31.01-1.96-.21-1.42-.61-2.8-1.03-4.17-.36-1.19-1.09-2.08-2.11-2.76-1.08-.72-2.23-1.29-3.42-1.77-2.64-1.08-4.29-3.06-5.2-5.71-.01-.04-.03-.08-.04-.13,0-.01,0-.03,0-.08.37-.33.76-.68,1.19-1.05.04.11.09.2.11.29.55,2.8,2.34,4.56,4.8,5.76.43.21.89.36,1.33.56.59.26,1.17.15,1.76.02.05-.01.09-.06.15-.1-.09-.23-.29-.3-.46-.39-.59-.3-1.19-.56-1.77-.88-.63-.34-1.24-.71-1.84-1.11-.63-.42-1.12-.98-1.46-1.67-.11-.22-.19-.46-.26-.69-.11-.36,0-.67.25-.92.15-.15.32-.3.5-.42.9-.63,1.21-1.49,1.07-2.56-.06-.46-.05-.94,0-1.4.09-.96.5-1.79,1.16-2.5.28-.3.56-.59.84-.89.53-.57.64-1.22.38-1.95-.38-1.09-1.04-1.96-2.09-2.48-.25-.12-.33-.28-.32-.54.02-.36,0-.73,0-1.13.15.02.27,0,.37.05.56.22,1.13.41,1.66.68,1.21.63,2.01,1.63,2.43,2.93.09.29.24.5.46.71.3.29.57.63.76,1,.28.54.47,1.13.7,1.7.29.73.56,1.48.89,2.19.48,1.05,1.23,1.86,2.18,2.53,1.2.84,2.52,1.41,3.94,1.75.14.03.28.07.41.11,0,.03,0,.06-.01.08-.55-.07-1.1-.13-1.65-.2,0,.02-.02.04-.02.05.1.07.2.15.3.22.78.59,1.56,1.19,2.36,1.75.44.31.9.59,1.38.85.15.08.37.09.55.09,1.27-.02,2.5.17,3.72.54.11.03.22.07.31.14-.99-.09-1.99-.18-2.98-.27,0,.03-.02.06-.02.1.22.21.53.24.79.37.26.13.53.23.78.42-.11,0-.23.02-.34,0-.91-.19-1.83-.39-2.74-.6-.19-.04-.36-.12-.59.07,1.5.58,3,.95,4.57.92,1.55-.02,3.06-.34,4.56-.75-1.54.96-3.25,1.33-5.04,1.4,1.33.17,2.62-.01,3.88-.45-.48.45-1.09.63-1.74.91.23.03.36.04.5.06v.06c-.7.14-1.41.28-2.12.42,1.01.18,1.94-.31,3.02-.23-.43.17-.78.31-1.16.46.41.19.77.36,1.14.53,0,.02-.02.05-.03.07-.38-.08-.76-.16-1.14-.25-.39-.09-.74-.06-1.09.17-.33.22-.69.38-1.01.62-.72.53-1.52.62-2.34.43-.61-.14-1.2-.37-1.79-.58-.99-.35-1.88-.87-2.64-1.6-.27-.26-.61-.45-.92-.67-.06-.05-.15-.06-.29-.12.06.1.07.14.1.16.67.53,1.24,1.15,1.79,1.8.46.55.77.72,1.34.83-.29.11-.44.13-.75-.04-.4-.23-.79-.5-1.16-.77-.19-.13-.35-.3-.6-.41.04.09.08.18.13.26.4.6.8,1.19,1.19,1.79.16.25.28.53.36.83-.43-.48-.85-.98-1.3-1.45-.44-.47-.93-.88-1.55-1.25.04.34.3.49.41.73-.05,0-.08.01-.1,0-.98-.66-2-1.27-2.94-1.99-1.78-1.36-2.69-3.22-2.96-5.43-.15-1.28-.33-2.55-.53-3.82-.09-.55-.27-1.09-.41-1.64-.04,0-.07,0-.11.01-.02.46-.08.91-.07,1.37.04,1.32-.2,2.59-.58,3.84-.34,1.14-.22,2.23.32,3.27.76,1.44,1.87,2.53,3.38,3.18.75.32,1.32.8,1.5,1.64.12.57.04,1.14-.04,1.7-.01.09-.02.18-.05.26-.23.64.02,1.18.41,1.66.18.23.38.45.61.62.58.44,1.07.95,1.48,1.55.04.06.09.11.16.19.1-.12.19-.23.32-.38,0,.1.02.16,0,.2-.2.36-.09.66.17.95.14.15.25.32.32.54-.26-.19-.52-.38-.81-.59-.09.15-.18.29-.28.44.24.46.48.92.73,1.38-.03.01-.05.03-.08.04-.27-.37-.55-.74-.84-1.13-.19.1-.36.2-.57.32.64.6,1.23,1.21,1.44,2.1-.49-.43-.98-.85-1.47-1.28.34.9.78,1.72,1.39,2.48-.23-.11-.45-.22-.68-.33.09.25.29.37.49.5.21.13.42.24.63.4-.39.09-.78.04-1.12-.14-.34-.18-.63-.46-.96-.71.06.21.12.42.19.63.06.2.13.4.22.64Zm5.6-13.24c.78.81,2.52.78,3.47.08-1.18.13-2.31.16-3.47-.08Zm-6.34,6.43s-.04.05-.06.08c.37.44.73.88,1.13,1.36.11-.09.19-.16.31-.27-.51-.43-.95-.8-1.39-1.17Zm.68,1.57c-.21-.18-.4-.35-.6-.5-.11-.08-.27-.13-.34,0-.05.09-.03.26.03.35.16.27.53.33.92.14Z"/>
      <path d="m115.86,116.71c.91.78,1.81,1.55,2.77,2.38-.19.02-.29.03-.38.03-.79,0-1.58,0-2.37,0-.24,0-.42-.07-.59-.22-.3-.27-.62-.53-.96-.81-.1.06-.2.11-.3.17-3.55,2.08-8.19,1.46-11.07-1.48-1.39-1.42-2.17-3.13-2.4-5.1-.53-4.45,2.37-8.76,7.22-9.63,3.68-.66,7.09.85,8.98,3.73,1.16,1.78,1.6,3.74,1.39,5.85-.17,1.81-.88,3.38-2.05,4.75-.08.1-.16.2-.25.32Zm-9.63-4.79c.06-.03.09-.04.12-.05.06,0,.12,0,.17,0,2.12.1,4.08.72,5.81,1.97.56.4,1.09.84,1.64,1.25.09.07.18.13.27.19,2.57-2.56,2.48-6.64.03-9.25-2.49-2.65-6.73-2.78-9.45-.29-2.57,2.36-3.09,6.54-.67,9.3,1.37,1.56,3.13,2.38,5.22,2.4,1.15.01,2.26-.18,3.26-.84-1.83-1.67-3.93-2.62-6.39-2.68v-1.99Z"/>
      <path d="m65.89,119.1h-2.25c-.01-.12-.04-.25-.04-.37,0-2.98,0-5.97,0-8.95,0-1.35.24-2.65.84-3.87,1.16-2.35,3.06-3.66,5.65-3.99,1.4-.18,2.75.01,4.03.59,2.12.95,3.38,2.63,3.99,4.84.22.81.31,1.64.31,2.47,0,2.94,0,5.88,0,8.82v.46h-2.31c0-.19,0-.36,0-.53,0-2.9,0-5.79,0-8.69,0-.95-.15-1.86-.51-2.74-.76-1.85-2.37-3.08-4.58-3.08-2.12,0-3.76,1.12-4.57,3.04-.38.9-.53,1.85-.53,2.83,0,2.43,0,4.86,0,7.29,0,.48,0,.97,0,1.45,0,.14-.01.28-.02.45Z"/>
      <path d="m74.07,85.49c-.24.3-.11.54-.04.77.21.61.54,1.16.97,1.65.07.08.14.17.27.32-.48-.1-.79-.32-1-.67-.12-.19-.23-.37-.57-.36.1.24.18.44.27.65.38.89.39.89-.04,1.76-.14.29-.3.57-.49.83-.78,1.1-1.88,1.36-3.14,1.16-.07-.01-.14-.03-.21-.06-.33-.13-.42-.29-.36-.64.2-1.12.4-2.24.59-3.37.02-.12.04-.27,0-.38-.25-.84-.15-1.68-.08-2.52.07-.82.38-1.52.93-2.13.35-.38.59-.84.7-1.35.1-.5.36-.89.75-1.2.41-.33.85-.62,1.28-.93.48-.34.97-.66,1.44-1.01.41-.31.77-.68.9-1.21.05-.2.21-.23.36-.29,1.12-.48,2.19-1.05,3.21-1.7.25-.16.49-.32.75-.49.34.21.64.46.89.77.15.19.2.41.19.66-.07.93-.45,1.71-1.13,2.35-.49.47-1.07.82-1.67,1.12-.57.29-1.17.54-1.73.86-.45.26-.89.55-1.3.88-.34.27-.33.54-.03.86.19.2.41.37.65.57-.32.15-.59-.02-.94-.11.5.87,1.02,1.66,1.35,2.56-.54-.56-1.08-1.12-1.62-1.68-.03.02-.06.04-.09.06.36.76.83,1.45,1.31,2.15-.66-.36-.97-1.1-1.59-1.5.46.95.66,2.02,1.47,2.87-.53-.09-.85-.38-1.18-.7-.16.42,0,.79-.01,1.23-.41-.59-.49-1.31-1.05-1.78Z"/>
      <path d="m88.78,103.1c.73-.22,1.46-.44,2.23-.68v16.63c-.31.09-1.74.11-2.23.02v-15.98Z"/>
      <path d="m73.33,38.98c-1.04.03-1.86-.91-1.76-1.98.34.13.67.28,1.01.37.33.09.68.13,1.07.21-.11.48-.21.92-.32,1.4Z"/>
    </g>
  </g>
</svg>