<?xml version="1.0" encoding="UTF-8"?>
<svg id="Ebene_2" data-name="Ebene 2" xmlns="http://www.w3.org/2000/svg" viewBox="0 0 213.51 66.22">
  <defs>
    <style>
      .cls-1 {
        stroke: #000;
        stroke-miterlimit: 10;
      }

      .cls-1, .cls-2 {
        fill: #fff;
      }

      .cls-2, .cls-3 {
        fill-rule: evenodd;
      }

      .cls-3 {
        fill: #010101;
      }
    </style>
  </defs>
  <g id="Ebene_1-2" data-name="Ebene 1">
    <rect class="cls-1" x=".5" y=".5" width="212.51" height="65.22" rx="32.61" ry="32.61"/>
    <g>
      <path class="cls-3" d="m36.24,17.03l-.05-.2s-.01-.05-.01-.07c0-.47.32-.66.74-.66h.38s4.3.16,4.3.16c.49.01.63.52.68.93l3.31,25.87c.11.77.3,1.39,1.15,1.39.62,0,.83-.51.89-1.07l2.74-24.73c.22-1.87.61-2.18,2.5-2.22l4.76-.11c.93-.02,2.08-.02,2.96.34.66.28.75,1.07.83,1.69l2.8,25.03c.08.73.42,1.33,1.21,1.33s1.03-.57,1.14-1.28l2.66-16.8c.38-2.48,1.09-4.86,2.63-6.87l1.5-1.96c.48-.62.9-1.15,1.71-1.15h.36l2.75.07c.29.01.67.1.67.46,0,.49-.36,1.02-.57,1.43l-.62,1.17c-1.39,2.59-2.6,5.34-3.21,8.23l-4.36,20.77c-.12.55-.29.97-.89,1.09-1.34.28-2.85.31-4.22.26l-3.74-.15c-1.43-.06-2.01-.16-2.13-1.67l-2.06-24.91c-.05-.52-.14-1.23-.8-1.23-.75,0-.93.69-1.03,1.31l-4,25.25c-.07.46-.3.67-.75.74-1.26.19-2.6.23-3.87.2l-2.66-.05c-.81-.02-1.69-.1-1.87-1.04l-5.83-31.52h0Zm58.29,32.83h-1.46l-2.54-.04c-1.34-.01-7.1-.05-8.11-.66-.97-.6-1.16-2.92-1.31-3.93l-.9-6.06c-.47-3.06-.55-6.19-.55-9.28,0-1.76.16-11.61,1.78-12.91,1.01-.79,9.08-.61,10.25-.61.81,0,1.64,0,2.46.02l2.18.06c.53.01,1.35.07,1.35.77,0,.28-.07.54-.14.79l-.62,2.48c-.22.81-1.34.87-2.02.96l-2.2.24c-1.88.2-5.17.35-6.34,2.05-1.01,1.47-1.17,5.56-1.17,7.38,0,.75.29,1.21,1.09,1.21h.4l6.72.08c.48,0,.83.34.83.83,0,.11-.02.23-.04.33l-.26,2.1c-.07.54-.6.66-1.05.72l-6.14.83c-.71.1-1.38.49-1.38,1.28,0,1.05.4,3.06.78,3.98.87,2.12,3.46,2.23,5.43,2.55,1.33.22,2.67.36,4,.59.55.1.67.43.78.95l.44,2.22c.04.14.06.3.06.46,0,.48-.43.6-.83.6l-1.47.04h0Zm11.14-17.49l-.54,8.36c-.07.85-.1,1.7-.11,2.55,0,1.58,1.11,1.77,2.47,1.98l4.28.65c.66.1.96.53,1.01,1.17l.11,1.57c0,.07.01.13.01.2,0,1.03-.95.99-1.74.99l-9.57.04c-.38.01-.92-.02-1.05-.46-.29-1.02-.22-2.67-.22-3.71,0-2.93.12-5.86.12-8.79,0-6.22-.29-12.42-.93-18.6-.04-.4-.06-.8-.06-1.2,0-.73.52-.78,1.14-.78h2.4c1.21.01,1.34.06,1.72,1.21.36,1.04.77,2.06,1.05,3.13.34,1.29.48,2.62.48,3.95,0,.97-.07,1.94-.16,2.91l-.41,4.83h0Zm22.52,17.49l-8.9-.29c-.84-.02-2.05.02-2.63-.7-.75-.95-.93-2.52-1.1-3.66l-.71-4.85c-.5-3.5-.68-7.03-.68-10.56,0-2.39-.02-4.86.37-7.23l.66-3.86c.12-.69.28-1.46.96-1.81.99-.5,2.68-.44,3.79-.45l7.04-.07,1.65.02,2.18.06c.49.01,1.38.06,1.38.73,0,.28-.07.56-.14.83l-.63,2.48c-.2.81-1.32.87-1.99.95l-2.23.25c-1.89.22-5.19.35-6.35,2.05-.66.95-.77,2.26-.9,3.38-.16,1.31-.28,2.63-.28,3.94,0,1.14.46,1.26,1.5,1.27l6.71.08c.49,0,.84.35.84.84,0,.11-.04.22-.05.32l-.28,2.1c-.06.54-.57.66-1.04.72l-6.14.83c-.69.1-1.36.49-1.36,1.27,0,1.03.53,3.47.93,4.3.89,1.86,3.52,1.96,5.27,2.25,1.33.23,2.67.35,3.99.57.55.1.67.44.78.95l.46,2.22c.02.14.06.3.06.44,0,.36-.24.55-.57.6-.71.1-1.46.06-2.18.06-.13,0-.25,0-.38-.01h0Zm24.57-26.19l.65,4.61c.11.8.23,1.62.23,2.43,0,2.31-.7,6.36-1.27,8.64-.42,1.65-2.25,8.91-2.84,9.77-.6.87-4.18.74-5.09.74-2.32,0-4.64-.12-6.96-.13-.66,0-2.63.08-3.09-.53-.32-.46-.19-2.42-.2-2.99l-.11-9.41-.12-9.5-.1-7.46-.04-2.28c-.01-.96.22-1.22,1.22-1.23l4.48-.02c1.71-.01,3.44.11,5.15.14,1.7.04,4.02-.18,5.57.6,1.05.53,1.28,2.05,1.56,3.09l.96,3.53h0Zm19.86,22.05l-.17-1.94c-.08-.92-.1-2.4-.59-3.2-.17-.29-.49-.38-.8-.38-1.95,0-6.77.47-8.64.91-.99.24-1.52.77-1.82,1.74-.62,2.01-.89,4.1-1.43,6.12-.12.5-.5.65-.98.65h-2.92c-.77,0-.62-.91-.62-1.46,0-1.56.19-3.13.36-4.68l1.07-10.18c.44-4.26,1.34-8.46,2.1-12.66.35-1.87.12-3.52,2.31-3.88.87-.14,1.77-.14,2.66-.2,1.23-.07,2.48-.14,3.72-.14,1.75,0,5.25.01,6.77.47.96.29,1.08,1.23,1.21,2.11l.92,6.25c.72,4.92.97,9.93,1.28,14.89.17,2.86.3,5.73.3,8.59,0,.68-.19,1.09-.95,1.08l-2.63-.02c-.83-.01-.84-.57-.9-1.28l-.25-2.76h0Z"/>
      <path class="cls-2" d="m139.55,24.56l-.2,9.22-.17,7.46-.04,1.84c-.01.28-.01.56-.01.84,0,.84.41,1.08,1.2,1.08,1.44,0,3.04-.17,4.36-.8.65-.32.92-.97,1.17-1.61l1.19-2.99c1.04-2.61,1.65-5.79,1.65-8.6,0-1.5-.32-2.98-.87-4.37l-1.35-3.45c-.34-.83-.74-1.54-1.7-1.71-.84-.14-1.7-.2-2.55-.17l-1.16.02c-1.36.04-1.44.44-1.47,1.69l-.03,1.55h0Zm30.35,11.31h.62c.66,0,.92-.38.92-1.02,0-1.77-.41-3.62-.68-5.38l-.62-3.9-.38-2.11c-.33-1.82-.38-2.16-2.23-2.17h-1.86c-1.64-.01-2.08.47-2.52,2.05-.75,2.77-1.2,5.65-1.7,8.48-.17.96-.38,1.95-.38,2.92,0,.84.65.99,1.35,1.01l7.47.12h0Z"/>
    </g>
  </g>
</svg>