<?xml version="1.0" encoding="UTF-8"?>
<svg id="Ebene_2" data-name="Ebene 2" xmlns="http://www.w3.org/2000/svg" viewBox="0 0 238.08 87.69">
  <defs>
    <style>
      .cls-1 {
        fill: #fff;
        stroke: #000;
        stroke-miterlimit: 10;
      }
    </style>
  </defs>
  <g id="Ebene_1-2" data-name="Ebene 1">
    <path class="cls-1" d="m202.07,19.24v-.98c0-9.81-7.95-17.76-17.76-17.76H53.77c-9.81,0-17.76,7.95-17.76,17.76v.98c0,9.81-7.95,17.76-17.76,17.76h0c-9.81,0-17.76,7.95-17.76,17.76v14.68c0,9.81,7.95,17.76,17.76,17.76h201.57c9.81,0,17.76-7.95,17.76-17.76v-14.68c0-9.81-7.95-17.76-17.76-17.76h0c-9.81,0-17.76-7.95-17.76-17.76Z"/>
    <g>
      <path d="m220.81,66.52c-.07.44-.11.88-.21,1.31-.73,3.21-2.75,5.24-5.83,6.26-1.05.35-2.14.51-3.25.51-2.78.01-5.57,0-8.35,0-.07,0-.15,0-.24,0v-6.94h.33c2.82,0,5.64,0,8.46-.01.37,0,.76-.1,1.09-.26,1.09-.53,1.24-2,.32-2.79-.53-.45-1.19-.61-1.86-.71-1.79-.27-3.49-.8-4.99-1.85-1.86-1.3-2.91-3.1-3.25-5.33-.35-2.29.07-4.44,1.26-6.42,1.27-2.12,3.19-3.31,5.6-3.7.75-.12,1.53-.16,2.29-.17,1.55-.03,3.1,0,4.65,0h.32v6.94h-.31c-1.68,0-3.36,0-5.04,0-1.26,0-2.06,1.01-1.76,2.24.13.54.48.89.97,1.07.62.22,1.26.4,1.9.57,1.51.39,3,.83,4.35,1.64,1.94,1.17,3.02,2.9,3.38,5.11.07.45.12.89.18,1.34,0,.4,0,.8,0,1.2Z"/>
      <path d="m87.3,46.44c-3.53,7.08-7.04,14.13-10.57,21.21.13,0,.22.02.3.02,6.12,0,12.24,0,18.35,0,.26,0,.53-.04.78-.13.67-.23,1.13-.68,1.2-1.41.07-.7-.19-1.26-.78-1.66-.5-.34-1.07-.48-1.65-.56-1.49-.22-2.93-.63-4.25-1.37-2.18-1.23-3.53-3.07-3.97-5.54-.47-2.64.05-5.08,1.6-7.27,1.27-1.79,3.06-2.78,5.2-3.12.76-.12,1.55-.16,2.32-.17,1.54-.03,3.08,0,4.62,0h.33v6.94h-.29c-1.69,0-3.38,0-5.07,0-1.26,0-2.07,1.07-1.75,2.28.12.45.41.79.83.96.59.23,1.19.42,1.81.58,1.53.39,3.04.81,4.42,1.6,2.04,1.17,3.19,2.95,3.55,5.25.27,1.68.24,3.35-.37,4.96-1.01,2.69-2.99,4.34-5.7,5.16-1.05.32-2.13.45-3.23.45-9.82,0-19.65,0-29.47,0h-.43c3.54-7.1,7.05-14.15,10.59-21.25h-8.15v-6.92h19.77Z"/>
      <path d="m147.84,46.42v28.17h-7.07v-21.26c-.41.06-.79.09-1.14.18-2.28.61-3.62,2.12-4.09,4.41-.1.48-.13.98-.13,1.47,0,4.94,0,9.87,0,14.81v.39h-6.71c0-.12,0-.23,0-.34,0-4.98,0-9.95,0-14.93,0-1.59-.43-3.06-1.55-4.25-.98-1.04-2.2-1.59-3.62-1.7-.05,0-.11,0-.19,0v21.21h-7.1v-28.14s.07-.02.1-.02c2.46,0,4.92-.06,7.38.02,3.15.1,5.9,1.27,8.21,3.44.03.03.06.05.12.09.09-.08.18-.16.27-.24,2.05-1.85,4.44-2.94,7.18-3.25.39-.04.78-.06,1.16-.07,2.28,0,4.56,0,6.84,0h.35Z"/>
      <path d="m169.27,13.17h7.09v.4c0,6.29,0,12.57,0,18.86,0,1.3.88,2.35,2.13,2.54,1.5.23,2.74-.45,3.12-1.74.08-.27.11-.56.11-.84,0-6.28,0-12.55,0-18.83q0-.39.4-.39c2.11,0,4.22,0,6.33,0,.11,0,.22,0,.38,0,0,.14,0,.26,0,.38,0,6.49.02,12.99,0,19.48-.01,2.79-1.22,5.04-3.39,6.75-2.07,1.64-4.47,2.31-7.1,2.15-2-.13-3.82-.77-5.44-1.96-.02-.02-.05-.03-.09-.05-.77.56-1.6,1.05-2.51,1.36-4.04,1.37-7.71.75-10.86-2.17-1.76-1.62-2.64-3.72-2.64-6.12-.01-6.5,0-13.01,0-19.51,0-.09,0-.18.01-.29h7.08v.38c0,6.25,0,12.49,0,18.74,0,1.37.74,2.33,2.01,2.64,1.54.37,2.96-.45,3.3-1.92.05-.23.07-.47.07-.7,0-6.25,0-12.49,0-18.74v-.4Z"/>
      <path d="m164.77,75.19c-8.04.06-14.71-6.59-14.71-14.69,0-8.07,6.69-14.81,14.95-14.68,7.83.12,14.6,6.6,14.45,14.98-.15,8.09-6.86,14.44-14.69,14.39Zm7.43-14.66c0-4.1-3.33-7.46-7.4-7.46-4.11,0-7.47,3.33-7.48,7.41,0,4.09,3.34,7.46,7.4,7.46,4.12,0,7.47-3.32,7.47-7.41Z"/>
      <path d="m200.82,74.59h-7.09c0-.12,0-.23,0-.34,0-3.2.02-6.4,0-9.6-.02-2.38-.64-4.57-2.19-6.44-.68-.82-1.48-1.49-2.41-2.02-.1-.06-.22-.11-.36-.18v18.55h-7.1v-28.17c4.44.28,8.53,1.48,12.06,4.34v-4.31h7.09v28.16Z"/>
      <path d="m71.2,13.18c4.15.15,8.83,1.58,12.05,4.34v-4.34c.13,0,.23-.01.32-.01,2.16,0,4.31,0,6.47,0,.26,0,.33.06.33.33,0,9.18,0,18.36,0,27.54v.3h-7.1v-.34c0-3.13,0-6.27,0-9.4,0-1.81-.33-3.55-1.21-5.15-.83-1.51-1.98-2.7-3.5-3.53-.07-.04-.15-.07-.27-.12v18.54h-7.09V13.18Z"/>
      <path d="m93.14,41.34v-.34c0-9.16,0-18.32,0-27.49,0-.3.08-.36.37-.36,2.32.01,4.64-.02,6.95.01,2.75.05,5.39.58,7.77,2.04,2.91,1.78,4.83,4.32,5.7,7.62.91,3.44.86,6.87-.45,10.2-1.69,4.3-4.92,6.86-9.38,7.9-1.3.3-2.62.42-3.95.41-2.21-.01-4.43,0-6.64,0-.1,0-.21,0-.36,0Zm7.11-6.94c.21,0,.4,0,.59,0,.22-.01.44-.02.65-.06,2.38-.46,4.23-1.65,5.23-3.93.67-1.53.76-3.15.45-4.77-.55-2.9-2.37-4.61-5.17-5.36-.57-.15-1.15-.22-1.75-.15v14.27Z"/>
      <path d="m131.71,31.33c.66.62,1.21,1.3,1.64,2.06.59,1.05.91,2.2.97,3.39.07,1.48.05,2.96.07,4.44,0,.03-.01.05-.02.1h-6.92c0-.1,0-.21,0-.31-.02-1.03,0-2.07-.07-3.1-.09-1.14-.45-2.18-1.43-2.88-.63-.45-1.35-.61-2.15-.59v6.88h-7.11c0-.11,0-.21,0-.32,0-9.17,0-18.34,0-27.51,0-.28.08-.34.35-.34,2.33.01,4.66-.06,6.98.02,3.86.13,7.01,1.66,9.17,4.95.98,1.5,1.41,3.19,1.5,4.97.11,2.11-.22,4.14-1.26,6.01-.42.75-.94,1.42-1.54,2.04-.05.05-.1.11-.17.19Zm-7.91-3.86c2.25.05,3.82-1.61,3.71-3.92-.1-2.02-1.83-3.62-3.71-3.41v7.33Z"/>
      <path d="m68.37,13.17v28.14h-7.09v-3.38h-4.96v3.39h-7.13v-.31c0-3.17-.02-6.34,0-9.51.03-3.62,1.15-6.91,3.1-9.93,1.85-2.87,4.28-5.11,7.35-6.63,1.92-.94,3.94-1.52,6.07-1.68.78-.06,1.57-.07,2.36-.1.09,0,.18,0,.29.01Zm-7.11,9.38c-2.24.6-5.22,5.62-4.92,8.3h4.92v-8.3Z"/>
      <path d="m137.05,13.16c.12,0,.23,0,.33,0,5.6,0,11.21,0,16.81,0q.36,0,.36.37c0,2.07,0,4.14,0,6.21v.35h-10.4v3.69h7.07v6.95h-7.07v3.65h10.52v6.94h-17.63V13.16Z"/>
      <path d="m34.77,53.36h-10.39v3.68h7.08v6.93h-7.1v10.62h-7.08v-28.15h17.5v6.92Z"/>
      <path d="m45.49,46.43h19.62v6.92h-6.25v21.23h-7.11v-21.22h-6.26v-6.93Z"/>
      <path d="m43.66,74.59h-7.07v-28.15h7.07v28.15Z"/>
      <path d="m113.4,74.59h-7.07v-28.15h7.07v28.15Z"/>
    </g>
  </g>
</svg>