<?xml version="1.0" encoding="UTF-8"?>
<svg id="Ebene_2" data-name="Ebene 2" xmlns="http://www.w3.org/2000/svg" viewBox="0 0 154.56 154.56">
  <defs>
    <style>
      .cls-1 {
        fill: #fff;
        stroke: #1d1d1b;
        stroke-miterlimit: 10;
      }

      .cls-2 {
        fill: #010101;
        fill-rule: evenodd;
      }
    </style>
  </defs>
  <g id="Ebene_1-2" data-name="Ebene 1">
    <circle class="cls-1" cx="77.28" cy="77.28" r="76.78"/>
    <path class="cls-2" d="m70.73,62.35c0-7.24-2.94-14.33-8.08-19.46-5.66-5.66-13.4-8.66-22.37-8.66h-2.91v86.11h9.5c3.57,0,9.16-1.42,13.16-5.42,3.19-3.19,4.87-7.55,4.87-12.61,0-5.7-1.76-10.36-5.23-13.83-1.24-1.23-2.64-2.28-4.17-3.11,2.87-1.37,5.5-3.23,7.75-5.47,4.82-4.82,7.47-11.05,7.47-17.54h0Zm-27.54,19.97v5.82c3.57,0,9.1,1.16,12.37,4.44,2.34,2.34,3.53,5.61,3.53,9.71,0,11.88-12.1,12.22-12.22,12.22h-3.69V40.18c6.14.55,11.41,2.88,15.35,6.82,4.05,4.05,6.37,9.64,6.37,15.35,0,10.83-10.05,19.97-21.72,19.97Zm68.96-3.41c-4.5-4.52-10.61-7.06-16.99-7.04-13.25,0-24.02,10.78-24.02,24.03,0,6.42,2.5,12.45,7.04,16.99,4.5,4.52,10.61,7.05,16.99,7.04,6.42,0,12.45-2.5,16.99-7.04,4.54-4.54,7.04-10.57,7.04-16.99s-2.5-12.45-7.04-16.99Zm-16.99,35.2c-4.83.01-9.47-1.91-12.87-5.33-3.43-3.41-5.35-8.04-5.33-12.88,0-4.86,1.89-9.44,5.33-12.87,3.41-3.43,8.04-5.35,12.87-5.34,4.86,0,9.44,1.89,12.88,5.34,3.43,3.41,5.35,8.04,5.33,12.87,0,10.04-8.17,18.21-18.21,18.21Zm17.06-51.12l-4.76-4.66,3.47-3.47-4.11-4.11-3.51,3.51-11.02-10.79c-.59-.59-.91-1.39-.91-2.23,0-.85.33-1.65.93-2.25,1.24-1.24,3.25-1.24,4.5,0,.05.05.1.1.15.16l4.38-3.83c-1.71-1.96-4.18-3.08-6.78-3.08-4.97,0-8.99,4.03-9,9,0,2.45.99,4.79,2.76,6.49l-2.2,2.2c-1.98,1.97-3.09,4.65-3.08,7.44,0,2.79,1.1,5.47,3.08,7.44,1.97,1.98,4.65,3.09,7.44,3.08,2.76,0,5.41-1.08,7.37-3.01l2.42-2.42,4.8,4.7,4.07-4.16h0Zm-15.39-2.26c-.87.86-2.05,1.33-3.28,1.33-1.25,0-2.45-.49-3.33-1.38-.88-.88-1.38-2.08-1.38-3.33,0-1.26.49-2.44,1.38-3.33l2.24-2.24c1.97,1.93,4.38,4.29,6.72,6.58l-2.36,2.36h0Z"/>
  </g>
</svg>