<svg version="1.1"
    width="300" height="200"
    xmlns="http://www.w3.org/2000/svg">

    <path
        d="M185.76 38.8276L185.756 38.8398L185.752 38.8522C184.734 42.1416 185.11 44.1739 186.555 45.3154C187.243 45.8594 188.12 46.1493 189.045 46.3077C189.973 46.4666 190.994 46.5 192 46.5H234C249.74 46.5 262.5 59.2599 262.5 75V96C262.5 100.142 259.142 103.5 255 103.5H76C60.2599 103.5 47.5 90.7401 47.5 75C47.5 71.5453 48.1145 68.2352 49.2396 65.1724L49.2441 65.1602L49.2479 65.1478C50.2661 61.8584 49.8898 59.8261 48.4451 58.6846C47.7567 58.1406 46.8804 57.8507 45.9547 57.6923C45.0267 57.5334 44.0064 57.5 43 57.5H29C13.2599 57.5 0.5 44.7401 0.5 29V8C0.5 3.85787 3.85786 0.5 8 0.5H159C174.74 0.5 187.5 13.2599 187.5 29C187.5 32.4547 186.886 35.7648 185.76 38.8276Z" />

</svg>